<svg xmlns="http://www.w3.org/2000/svg" version="1.1" xmlns:xlink="http://www.w3.org/1999/xlink" xmlns:svgjs="http://svgjs.com/svgjs" width="512" height="512" x="0" y="0" viewBox="0 0 512 512" style="enable-background:new 0 0 512 512" xml:space="preserve" class=""><g><path d="M251.713 429.245a8 8 0 0 1-8 8H74.382a8 8 0 0 1 0-16h169.331a8 8 0 0 1 8 8zM108.514 270.858a7.998 7.998 0 0 1-2.004-6.199c1.995-18.637 13.461-34.09 29.324-41.824-4.641-5.376-7.458-12.369-7.458-20.012 0-16.913 13.759-30.672 30.672-30.672s30.672 13.76 30.672 30.672c0 7.643-2.816 14.636-7.458 20.013 15.862 7.734 27.329 23.188 29.323 41.824a8 8 0 0 1-7.954 8.851h-89.166a7.997 7.997 0 0 1-5.951-2.653zm50.527-53.363H159.054c8.087-.004 14.666-6.583 14.666-14.672 0-8.09-6.582-14.672-14.672-14.672s-14.672 6.582-14.672 14.672c0 8.088 6.578 14.668 14.665 14.672zm-34.557 40.016h69.126c-5.217-14.159-18.793-24.012-34.552-24.016h-.022c-15.758.004-29.334 9.857-34.552 24.016zM499.225 478.75l-19.517 20.113A16.901 16.901 0 0 1 467.543 504a16.887 16.887 0 0 1-11.8-4.776l-54.058-52.455c-3.241-3.145-5.065-7.374-5.133-11.909a16.945 16.945 0 0 1 1.215-6.588l-20.411-19.806a106.55 106.55 0 0 1-17.816 10.726v9.58c0 8.534-6.942 15.476-15.476 15.476h-33.967v33.967c0 8.534-6.942 15.476-15.476 15.476H23.475c-8.533 0-15.476-6.942-15.476-15.476V122.36c0-8.534 6.942-15.476 15.476-15.476h33.967V72.917c0-8.533 6.942-15.476 15.476-15.476h33.967V23.475c0-8.533 6.942-15.476 15.476-15.476h229.171c4.194 0 7.978 1.567 10.943 4.533l41.975 41.974c2.965 2.965 4.533 6.749 4.533 10.943v209.656c7.296 14.41 11.415 30.691 11.415 47.918 0 20.224-5.671 39.148-15.505 55.268l21.31 20.678a16.972 16.972 0 0 1 6.548-1.412c4.532-.063 8.817 1.626 12.059 4.773l54.056 52.455c6.704 6.51 6.865 17.26.359 23.965zm-103.781-87.333a107.617 107.617 0 0 1-5.958 6.526l18.521 17.972 6.151-6.339zm-81.484 22.042c49.867 0 90.436-40.569 90.436-90.436s-40.569-90.437-90.436-90.437-90.436 40.57-90.436 90.437 40.57 90.436 90.436 90.436zm-94.967-250.573H99.102v119.891h116.332a105.765 105.765 0 0 1 3.559-7.78zm44.75-9.649h19.039l-19.039-19.039zm49.443-49.442h19.04l-19.04-19.04zm49.442-49.443h19.039l-19.039-19.039zm-239.744 3.09h179.205c4.193 0 7.977 1.567 10.942 4.533l41.975 41.974c2.966 2.966 4.533 6.75 4.533 10.943v111.962a107.015 107.015 0 0 1 33.443 24.944V70.352h-34.616c-6.472 0-11.738-5.266-11.738-11.738V24H122.884zm-49.443 49.442h179.205c4.194 0 7.979 1.568 10.944 4.534l41.973 41.973c2.965 2.965 4.533 6.749 4.533 10.943v52.33c1.283-.046 2.57-.078 3.864-.078a106.14 106.14 0 0 1 29.579 4.186V119.795h-34.616c-6.472 0-11.738-5.266-11.738-11.738V73.442H73.441zm220.655 370.808v-50.1c-26.323-4.99-49.245-19.701-64.879-40.25H74.382a8 8 0 0 1 0-16h144.757a105.608 105.608 0 0 1-10.635-33.902H74.382a8 8 0 0 1 0-16h133.163a106.247 106.247 0 0 1 2.769-22.664H91.102a8 8 0 0 1-8-8v-135.89a8 8 0 0 1 8-8h135.891a8 8 0 0 1 8 8v96.851c15.264-16.893 35.859-28.877 59.104-33.284v-49.216h-34.615c-6.472 0-11.738-5.266-11.738-11.738v-34.615H24v354.808zm49.443-52.419a105.731 105.731 0 0 1-13.524 2.976h13.524zm144.182 40.993-54.056-52.454a.927.927 0 0 0-.658-.257h-.017a.926.926 0 0 0-.667.277l-19.517 20.113a.937.937 0 0 0-.257.675.933.933 0 0 0 .276.666l54.058 52.456c.361.352.988.342 1.341-.02l19.517-20.113a.974.974 0 0 0-.02-1.343zm-89.516-143.243c0 46.453-37.792 84.245-84.245 84.245s-84.245-37.792-84.245-84.245 37.792-84.245 84.245-84.245 84.245 37.792 84.245 84.245zm-16 0c0-37.63-30.614-68.245-68.245-68.245s-68.245 30.615-68.245 68.245 30.615 68.245 68.245 68.245 68.245-30.615 68.245-68.245z" fill="#2f3191" data-original="#000000" class=""></path></g></svg>