<svg xmlns="http://www.w3.org/2000/svg" version="1.1" xmlns:xlink="http://www.w3.org/1999/xlink" xmlns:svgjs="http://svgjs.com/svgjs" width="512" height="512" x="0" y="0" viewBox="0 0 512.001 512.001" style="enable-background:new 0 0 512 512" xml:space="preserve"><g><path d="M504.713 153.963a7.286 7.286 0 0 0-7.287 7.287v293.589a7.027 7.027 0 0 1-7.019 7.019H291.615a7.287 7.287 0 1 0 0 14.574h198.793c11.906 0 21.592-9.686 21.592-21.592V161.25a7.287 7.287 0 0 0-7.287-7.287zM490.408 6.352H21.592C9.686 6.352 0 16.038 0 27.944v426.894c0 11.906 9.686 21.592 21.592 21.592h19.046a7.287 7.287 0 1 0 0-14.574H21.592a7.027 7.027 0 0 1-7.019-7.019V27.944a7.027 7.027 0 0 1 7.019-7.019h468.816a7.027 7.027 0 0 1 7.019 7.019v87.637a7.287 7.287 0 1 0 14.574 0V27.944C512 16.038 502.314 6.352 490.408 6.352z" fill="#003e74" data-original="#000000"></path><path d="M287.227 313.317c0-11.077-9.011-20.089-20.088-20.089H60.667c-11.077 0-20.089 9.012-20.089 20.089 0 11.077 9.012 20.089 20.089 20.089H73.44L56.958 487.409c-.494 4.616.935 9.052 4.026 12.491 3.283 3.653 8.157 5.749 13.372 5.749h183.541c5.215 0 10.089-2.095 13.372-5.749 3.09-3.438 4.52-7.874 4.026-12.491l-16.482-154.003h8.326c11.076 0 20.088-9.012 20.088-20.089zm-226.56 5.516a5.522 5.522 0 0 1-5.516-5.516 5.522 5.522 0 0 1 5.516-5.516H76.18l-1.181 11.032H60.667zm13.689 172.242c-1.086 0-2.009-.334-2.533-.917-.306-.341-.425-.722-.375-1.199l19.388-181.158h82.03l9.317 183.274H74.356zm122.418 0-9.317-183.274h18.078l14.523 183.274h-23.284zm64.031-2.115c.05.476-.068.857-.375 1.198-.524.583-1.447.917-2.533.917h-23.22l-14.523-183.274h21.263l19.388 181.159zm-3.552-170.127-1.181-11.032h11.066c3.041 0 5.515 2.474 5.515 5.516s-2.474 5.516-5.515 5.516h-9.885zM376.002 293.228h-37.447c-7.812 0-14.168 6.356-14.168 14.168v37.447c0 7.812 6.356 14.167 14.168 14.167h37.447c7.812 0 14.168-6.355 14.168-14.167v-37.447c0-7.812-6.356-14.168-14.168-14.168zm-.405 51.21H338.96v-36.636h36.637v36.636zM457.254 293.228h-37.447c-7.812 0-14.168 6.356-14.168 14.168v37.447c0 7.812 6.356 14.167 14.168 14.167h37.447c7.812 0 14.168-6.355 14.168-14.167v-37.447c0-7.812-6.356-14.168-14.168-14.168zm-.405 51.21h-36.637v-36.636h36.637v36.636zM376.002 372.761h-37.447c-7.812 0-14.168 6.356-14.168 14.168v37.447c0 7.812 6.356 14.168 14.168 14.168h37.447c7.812 0 14.168-6.356 14.168-14.168v-37.447c0-7.813-6.356-14.168-14.168-14.168zm-.405 51.209H338.96v-36.637h36.637v36.637zM457.254 372.761h-37.447c-7.812 0-14.168 6.356-14.168 14.168v37.447c0 7.812 6.356 14.168 14.168 14.168h37.447c7.812 0 14.168-6.356 14.168-14.168v-37.447c0-7.813-6.356-14.168-14.168-14.168zm-.405 51.209h-36.637v-36.637h36.637v36.637zM471.422 68.538c0-11.568-9.412-20.98-20.98-20.98H61.558c-11.568 0-20.98 9.412-20.98 20.98V232.75c0 11.568 9.412 20.98 20.98 20.98h388.884c11.568 0 20.98-9.411 20.98-20.98V68.538zM456.849 232.75a6.414 6.414 0 0 1-6.407 6.407H61.558a6.414 6.414 0 0 1-6.407-6.407V68.538a6.414 6.414 0 0 1 6.407-6.407h388.884a6.414 6.414 0 0 1 6.407 6.407V232.75z" fill="#003e74" data-original="#000000"></path><path d="m186.888 186.518-22.131-72.192c-1.301-4.142-6.627-6.154-12.071-6.154s-10.769 2.012-12.071 6.154l-22.013 72.192c-.118.473-.236.947-.236 1.302 0 4.378 6.745 7.574 11.836 7.574 2.958 0 5.325-.947 6.035-3.432l4.023-14.793h24.971l4.023 14.793c.71 2.485 3.077 3.432 6.036 3.432 5.089 0 11.835-3.195 11.835-7.574 0-.355-.118-.829-.237-1.302zm-42.842-23.551 8.64-31.717 8.64 31.717h-17.28zM273.516 108.882H222.39c-3.906 0-5.562 4.26-5.562 8.166 0 4.497 2.012 8.402 5.562 8.402h16.333v64.263c0 3.787 4.616 5.681 9.231 5.681s9.23-1.894 9.23-5.681V125.45h16.332c3.551 0 5.563-3.905 5.563-8.402 0-3.906-1.657-8.166-5.563-8.166zM384.403 108.882c-6.628 0-9.467.71-14.32 9.231l-12.189 21.303-12.19-21.303c-4.851-8.521-7.692-9.231-14.319-9.231-4.616 0-9.231 2.485-9.231 9.231v71.6c0 3.787 4.615 5.681 9.231 5.681 4.615 0 9.23-1.894 9.23-5.681V144.15l11.243 20.592c1.42 2.722 3.669 3.432 5.799 3.432 2.249 0 4.616-.828 6.154-3.432l11.361-19.409v44.38c0 3.787 4.615 5.681 9.231 5.681 4.615 0 9.23-1.894 9.23-5.681v-71.6c0-6.746-4.497-9.231-9.23-9.231z" fill="#003e74" data-original="#000000"></path></g></svg>