<svg xmlns="http://www.w3.org/2000/svg" version="1.1" xmlns:xlink="http://www.w3.org/1999/xlink" xmlns:svgjs="http://svgjs.com/svgjs" width="512" height="512" x="0" y="0" viewBox="0 0 480 480" style="enable-background:new 0 0 512 512" xml:space="preserve"><g><path d="M432 32v96h-16.64c-3.992-27.517-27.555-47.947-55.36-48H192v48h-20.448A31.675 31.675 0 0 0 176 112c0-17.673-14.327-32-32-32H96c-17.673 0-32 14.327-32 32a31.675 31.675 0 0 0 4.448 16H48V32H0v416h48v-48h384v48h48V32h-48zM208 96h152c22.08.026 39.974 17.92 40 40v24H208V96zM96 96h48c8.837 0 16 7.163 16 16s-7.163 16-16 16H96c-8.837 0-16-7.163-16-16s7.163-16 16-16zM16 48h16v80H16V48zm0 160h16v112H16V208zm16 224H16v-32h16v32zm432 0h-16v-32h16v32zm0-48H16v-48h176v32h224v-32h48v48zM360 272H192v48h-20.448A31.675 31.675 0 0 0 176 304c0-17.673-14.327-32-32-32H96c-17.673 0-32 14.327-32 32a31.675 31.675 0 0 0 4.448 16H48V208h384v112h-16.64c-3.993-27.517-27.555-47.947-55.36-48zm40 56v24H208v-64h152c22.08.026 39.974 17.92 40 40zm-240-24c0 8.837-7.163 16-16 16H96c-8.837 0-16-7.163-16-16s7.163-16 16-16h48c8.837 0 16 7.163 16 16zm304 16h-16V208h16v112zm0-128H16v-48h176v32h224v-32h48v48zm0-64h-16V48h16v80z" fill="#003e74" data-original="#000000"></path></g></svg>