<svg xmlns="http://www.w3.org/2000/svg" version="1.1" xmlns:xlink="http://www.w3.org/1999/xlink" xmlns:svgjs="http://svgjs.com/svgjs" width="512" height="512" x="0" y="0" viewBox="0 0 512 512" style="enable-background:new 0 0 512 512" xml:space="preserve"><g><path d="M447.533 240.045h0c-17.63 0-31.922-14.292-31.922-31.922 0 17.63-14.292 31.922-31.922 31.922h0c-17.63 0-31.922-14.292-31.922-31.922 0 17.63-14.292 31.922-31.922 31.922h0c-17.63 0-31.922-14.292-31.922-31.922 0 17.63-14.292 31.922-31.922 31.922s-31.922-14.292-31.922-31.922c0 17.63-14.292 31.922-31.922 31.922h0c-17.63 0-31.922-14.292-31.922-31.922 0 17.63-14.292 31.922-31.922 31.922h0c-17.63 0-31.922-14.292-31.922-31.922 0 17.63-14.292 31.922-31.922 31.922h0a31.778 31.778 0 0 1-15.158-3.823v233.48H183.52V314.031h144.96v155.671h134.211v-233.48a31.775 31.775 0 0 1-15.158 3.823z" style="stroke-width:15;stroke-linecap:round;stroke-linejoin:round;stroke-miterlimit:10;" fill="none" stroke="#003e74" stroke-width="15" stroke-linecap="round" stroke-linejoin="round" stroke-miterlimit="10" data-original="#000000"></path><path d="M136 285.359H89.364c-5.523 0-10 4.477-10 10v174.343H183.52V314.031h144.96v155.671h104.157V295.359c0-5.523-4.477-10-10-10H171" style="stroke-width:15;stroke-linecap:round;stroke-linejoin:round;stroke-miterlimit:10;" fill="none" stroke="#003e74" stroke-width="15" stroke-linecap="round" stroke-linejoin="round" stroke-miterlimit="10" data-original="#000000"></path><path d="M183.52 314.031h-73.484a2 2 0 0 0-2 2v153.67h75.484v-155.67zM403.963 375v-58.969a2 2 0 0 0-2-2H328.48v155.67h75.484V410M36.982 469.702c-5.523 0-10 4.477-10 10V494.5c0 5.523 4.477 10 10 10H183.52v-34.798H36.982zM475.018 469.702H328.48V504.5h146.538c5.523 0 10-4.477 10-10v-14.798c0-5.523-4.477-10-10-10zM64.467 240.045h0c-17.63 0-31.922-14.292-31.922-31.922V172.85h63.844v35.273c0 17.63-14.292 31.922-31.922 31.922zM128.311 240.045h0c-17.63 0-31.922-14.292-31.922-31.922V172.85h63.844v35.273c0 17.63-14.292 31.922-31.922 31.922zM256 240.045h0c-17.63 0-31.922-14.292-31.922-31.922V172.85h63.844v35.273c0 17.63-14.292 31.922-31.922 31.922zM383.689 240.045h0c-17.63 0-31.922-14.292-31.922-31.922V172.85h63.844v35.273c0 17.63-14.292 31.922-31.922 31.922zM192.156 240.045h0c-17.63 0-31.922-14.292-31.922-31.922V172.85h63.844v35.273c0 17.63-14.292 31.922-31.922 31.922z" style="stroke-width:15;stroke-linecap:round;stroke-linejoin:round;stroke-miterlimit:10;" fill="none" stroke="#003e74" stroke-width="15" stroke-linecap="round" stroke-linejoin="round" stroke-miterlimit="10" data-original="#000000"></path><path d="M319.844 240.045h0c-17.63 0-31.922-14.292-31.922-31.922V172.85h63.844v35.273c.001 17.63-14.292 31.922-31.922 31.922zM447.533 240.045h0c-17.63 0-31.922-14.292-31.922-31.922V172.85h63.844v35.273c0 17.63-14.292 31.922-31.922 31.922zM439.728 73.615a10 10 0 0 0-9.284-6.283h-15.023c0 19.69-15.961 35.651-35.651 35.651H204.46c-10.904 14.672-28.365 24.18-48.05 24.18-33.044 0-59.831-26.787-59.831-59.831H81.556a10 10 0 0 0-9.284 6.283L32.545 172.85h446.91l-39.727-99.235z" style="stroke-width:15;stroke-linecap:round;stroke-linejoin:round;stroke-miterlimit:10;" fill="none" stroke="#003e74" stroke-width="15" stroke-linecap="round" stroke-linejoin="round" stroke-miterlimit="10" data-original="#000000"></path><path d="M330 31.68H204.46c7.4 9.957 11.782 22.292 11.782 35.651s-4.382 25.694-11.782 35.651h175.31c19.689 0 35.651-15.961 35.651-35.651v0c0-19.689-15.961-35.651-35.651-35.651H365M249.283 67.331H378" style="stroke-width:15;stroke-linecap:round;stroke-linejoin:round;stroke-miterlimit:10;" fill="none" stroke="#003e74" stroke-width="15" stroke-linecap="round" stroke-linejoin="round" stroke-miterlimit="10" data-original="#000000"></path><circle cx="156.41" cy="67.331" r="59.831" style="stroke-width:15;stroke-linecap:round;stroke-linejoin:round;stroke-miterlimit:10;" fill="none" stroke="#003e74" stroke-width="15" stroke-linecap="round" stroke-linejoin="round" stroke-miterlimit="10" data-original="#000000"></circle><path d="M156.41 99.28c-17.616 0-31.948-14.331-31.948-31.948s14.332-31.949 31.948-31.949 31.948 14.333 31.948 31.949S174.027 99.28 156.41 99.28zM183.52 314.032h144.959V504.5H183.52zM256 314.032V504.5M229.621 400.131v10.322M282.379 400.131v10.322" style="stroke-width:15;stroke-linecap:round;stroke-linejoin:round;stroke-miterlimit:10;" fill="none" stroke="#003e74" stroke-width="15" stroke-linecap="round" stroke-linejoin="round" stroke-miterlimit="10" data-original="#000000"></path></g></svg>