<svg xmlns="http://www.w3.org/2000/svg" version="1.1" xmlns:xlink="http://www.w3.org/1999/xlink" xmlns:svgjs="http://svgjs.com/svgjs" width="512" height="512" x="0" y="0" viewBox="0 0 682.667 682.667" style="enable-background:new 0 0 512 512" xml:space="preserve"><g><defs><clipPath id="a" clipPathUnits="userSpaceOnUse"><path d="M0 512h512V0H0Z" fill="#003e74" data-original="#000000"></path></clipPath></defs><g clip-path="url(#a)" transform="matrix(1.33333 0 0 -1.33333 0 682.667)"><path d="M0 0h-114.808a9.336 9.336 0 0 0-9.335 9.335v5.63c0 34.28 27.79 62.071 62.072 62.071C-27.79 77.036 0 49.245 0 14.965Z" style="stroke-width:15;stroke-linecap:round;stroke-linejoin:round;stroke-miterlimit:10;stroke-dasharray:none;stroke-opacity:1" transform="translate(131.857 7.5)" fill="none" stroke="#003e74" stroke-width="15" stroke-linecap="round" stroke-linejoin="round" stroke-miterlimit="10" stroke-dasharray="none" stroke-opacity="" data-original="#000000"></path><path d="M0 0h-124.143v14.965c0 34.28 27.79 62.071 62.072 62.071C-27.791 77.036 0 49.245 0 14.965Z" style="stroke-width:15;stroke-linecap:round;stroke-linejoin:round;stroke-miterlimit:10;stroke-dasharray:none;stroke-opacity:1" transform="translate(256 7.5)" fill="none" stroke="#003e74" stroke-width="15" stroke-linecap="round" stroke-linejoin="round" stroke-miterlimit="10" stroke-dasharray="none" stroke-opacity="" data-original="#000000"></path><path d="M0 0h-124.143v14.965c0 34.28 27.79 62.071 62.071 62.071S0 49.245 0 14.965Z" style="stroke-width:15;stroke-linecap:round;stroke-linejoin:round;stroke-miterlimit:10;stroke-dasharray:none;stroke-opacity:1" transform="translate(380.143 7.5)" fill="none" stroke="#003e74" stroke-width="15" stroke-linecap="round" stroke-linejoin="round" stroke-miterlimit="10" stroke-dasharray="none" stroke-opacity="" data-original="#000000"></path><path d="M0 0h-114.808v14.965c0 34.28 27.79 62.071 62.072 62.071 34.281 0 62.071-27.791 62.071-62.071v-5.63A9.336 9.336 0 0 0 0 0Z" style="stroke-width:15;stroke-linecap:round;stroke-linejoin:round;stroke-miterlimit:10;stroke-dasharray:none;stroke-opacity:1" transform="translate(494.95 7.5)" fill="none" stroke="#003e74" stroke-width="15" stroke-linecap="round" stroke-linejoin="round" stroke-miterlimit="10" stroke-dasharray="none" stroke-opacity="" data-original="#000000"></path><path d="M0 0c14.025 4.119 24.299 17.097 24.299 32.437 0 18.64-15.166 33.806-33.807 33.806-18.641 0-33.807-15.166-33.807-33.806 0-15.34 10.273-28.319 24.299-32.437" style="stroke-width:15;stroke-linecap:round;stroke-linejoin:round;stroke-miterlimit:10;stroke-dasharray:none;stroke-opacity:1" transform="translate(79.293 83.81)" fill="none" stroke="#003e74" stroke-width="15" stroke-linecap="round" stroke-linejoin="round" stroke-miterlimit="10" stroke-dasharray="none" stroke-opacity="" data-original="#000000"></path><path d="M0 0c14.025 4.118 24.299 17.097 24.299 32.437 0 18.64-15.166 33.806-33.807 33.806-18.641 0-33.807-15.166-33.807-33.806 0-15.34 10.273-28.319 24.299-32.437" style="stroke-width:15;stroke-linecap:round;stroke-linejoin:round;stroke-miterlimit:10;stroke-dasharray:none;stroke-opacity:1" transform="translate(203.436 83.81)" fill="none" stroke="#003e74" stroke-width="15" stroke-linecap="round" stroke-linejoin="round" stroke-miterlimit="10" stroke-dasharray="none" stroke-opacity="" data-original="#000000"></path><path d="M0 0c14.025 4.118 24.299 17.097 24.299 32.437 0 18.64-15.166 33.806-33.807 33.806-18.641 0-33.807-15.166-33.807-33.806 0-15.34 10.273-28.319 24.299-32.437" style="stroke-width:15;stroke-linecap:round;stroke-linejoin:round;stroke-miterlimit:10;stroke-dasharray:none;stroke-opacity:1" transform="translate(327.58 83.81)" fill="none" stroke="#003e74" stroke-width="15" stroke-linecap="round" stroke-linejoin="round" stroke-miterlimit="10" stroke-dasharray="none" stroke-opacity="" data-original="#000000"></path><path d="M0 0c14.025 4.118 24.299 17.097 24.299 32.437 0 18.64-15.166 33.806-33.807 33.806-18.641 0-33.807-15.166-33.807-33.806 0-15.34 10.273-28.319 24.299-32.437" style="stroke-width:15;stroke-linecap:round;stroke-linejoin:round;stroke-miterlimit:10;stroke-dasharray:none;stroke-opacity:1" transform="translate(451.722 83.81)" fill="none" stroke="#003e74" stroke-width="15" stroke-linecap="round" stroke-linejoin="round" stroke-miterlimit="10" stroke-dasharray="none" stroke-opacity="" data-original="#000000"></path><path d="M0 0h-268.45c-6.29 0-11.389 5.099-11.389 11.389v11.75c0 6.29 5.099 11.389 11.389 11.389H0c6.29 0 11.389-5.099 11.389-11.389v-11.75C11.389 5.099 6.29 0 0 0Z" style="stroke-width:15;stroke-linecap:round;stroke-linejoin:round;stroke-miterlimit:10;stroke-dasharray:none;stroke-opacity:1" transform="translate(390.712 193.736)" fill="none" stroke="#003e74" stroke-width="15" stroke-linecap="round" stroke-linejoin="round" stroke-miterlimit="10" stroke-dasharray="none" stroke-opacity="" data-original="#000000"></path><path d="M0 0h105.813c10.554 0 19.11 8.556 19.11 19.11v194.21c0 10.554-8.556 19.111-19.11 19.111h-351.884c-10.554 0-19.11-8.557-19.11-19.111V19.11c0-10.554 8.556-19.11 19.11-19.11h105.812" style="stroke-width:15;stroke-linecap:round;stroke-linejoin:round;stroke-miterlimit:10;stroke-dasharray:none;stroke-opacity:1" transform="translate(326.616 272.07)" fill="none" stroke="#003e74" stroke-width="15" stroke-linecap="round" stroke-linejoin="round" stroke-miterlimit="10" stroke-dasharray="none" stroke-opacity="" data-original="#000000"></path><path d="M0 0v-104.899a5.104 5.104 0 0 1 5.104-5.105h109.032" style="stroke-width:15;stroke-linecap:round;stroke-linejoin:round;stroke-miterlimit:10;stroke-dasharray:none;stroke-opacity:1" transform="translate(91.433 412.07)" fill="none" stroke="#003e74" stroke-width="15" stroke-linecap="round" stroke-linejoin="round" stroke-miterlimit="10" stroke-dasharray="none" stroke-opacity="" data-original="#000000"></path><path d="M0 0h109.032a5.104 5.104 0 0 1 5.104 5.104v162.228a5.104 5.104 0 0 1-5.104 5.104h-319.901a5.104 5.104 0 0 1-5.104-5.104v-22.268" style="stroke-width:15;stroke-linecap:round;stroke-linejoin:round;stroke-miterlimit:10;stroke-dasharray:none;stroke-opacity:1" transform="translate(307.406 302.066)" fill="none" stroke="#003e74" stroke-width="15" stroke-linecap="round" stroke-linejoin="round" stroke-miterlimit="10" stroke-dasharray="none" stroke-opacity="" data-original="#000000"></path><path d="M0 0c20.1 3.472 35.392 20.979 35.392 42.071 0 23.586-19.121 42.707-42.707 42.707-23.587 0-42.707-19.121-42.707-42.707C-50.022 20.979-34.73 3.472-14.631 0" style="stroke-width:15;stroke-linecap:round;stroke-linejoin:round;stroke-miterlimit:10;stroke-dasharray:none;stroke-opacity:1" transform="translate(263.802 322.022)" fill="none" stroke="#003e74" stroke-width="15" stroke-linecap="round" stroke-linejoin="round" stroke-miterlimit="10" stroke-dasharray="none" stroke-opacity="" data-original="#000000"></path><path d="M0 0v20.088c0 40.888-33.146 74.033-74.033 74.033h-.001c-40.887 0-74.033-33.145-74.033-74.033V0" style="stroke-width:15;stroke-linecap:round;stroke-linejoin:round;stroke-miterlimit:10;stroke-dasharray:none;stroke-opacity:1" transform="translate(330.52 228.265)" fill="none" stroke="#003e74" stroke-width="15" stroke-linecap="round" stroke-linejoin="round" stroke-miterlimit="10" stroke-dasharray="none" stroke-opacity="" data-original="#000000"></path><path d="M0 0v22.047" style="stroke-width:15;stroke-linecap:round;stroke-linejoin:round;stroke-miterlimit:10;stroke-dasharray:none;stroke-opacity:1" transform="translate(380.143 171.69)" fill="none" stroke="#003e74" stroke-width="15" stroke-linecap="round" stroke-linejoin="round" stroke-miterlimit="10" stroke-dasharray="none" stroke-opacity="" data-original="#000000"></path><path d="M0 0v114.788" style="stroke-width:15;stroke-linecap:round;stroke-linejoin:round;stroke-miterlimit:10;stroke-dasharray:none;stroke-opacity:1" transform="translate(380.143 21.84)" fill="none" stroke="#003e74" stroke-width="15" stroke-linecap="round" stroke-linejoin="round" stroke-miterlimit="10" stroke-dasharray="none" stroke-opacity="" data-original="#000000"></path><path d="M0 0v-171.896" style="stroke-width:15;stroke-linecap:round;stroke-linejoin:round;stroke-miterlimit:10;stroke-dasharray:none;stroke-opacity:1" transform="translate(131.857 193.736)" fill="none" stroke="#003e74" stroke-width="15" stroke-linecap="round" stroke-linejoin="round" stroke-miterlimit="10" stroke-dasharray="none" stroke-opacity="" data-original="#000000"></path></g></g></svg>