<svg xmlns="http://www.w3.org/2000/svg" version="1.1" xmlns:xlink="http://www.w3.org/1999/xlink" xmlns:svgjs="http://svgjs.com/svgjs" width="512" height="512" x="0" y="0" viewBox="0 0 32 32" style="enable-background:new 0 0 512 512" xml:space="preserve"><g><path d="M29 10a1 1 0 0 0-1 1v16a1 1 0 0 1-1 1H5a1 1 0 0 1-1-1V5a1 1 0 0 1 1-1h16a1 1 0 0 0 0-2H5a3 3 0 0 0-3 3v22a3 3 0 0 0 3 3h22a3 3 0 0 0 3-3V11a1 1 0 0 0-1-1z" fill="#003e74" data-original="#000000"></path><path d="M8.71 11.29a1 1 0 1 0-1.42 1.42l8 8A1 1 0 0 0 16 21h.07a1 1 0 0 0 .72-.39l13-17a1 1 0 0 0-1.58-1.22L15.9 18.49z" fill="#003e74" data-original="#000000"></path></g></svg>