<svg xmlns="http://www.w3.org/2000/svg" version="1.1" xmlns:xlink="http://www.w3.org/1999/xlink" xmlns:svgjs="http://svgjs.com/svgjs" width="512" height="512" x="0" y="0" viewBox="0 0 64 64" style="enable-background:new 0 0 512 512" xml:space="preserve" class=""><g><path d="M1 1v46h10.586l-7.051 7.051A5.207 5.207 0 0 0 3 57.758 5.249 5.249 0 0 0 8.242 63c1.4 0 2.717-.545 3.707-1.535L23.414 50l-1.5-1.5 1.929-1.929A14.897 14.897 0 0 0 39.452 47H63V1zm9.535 59.051a3.245 3.245 0 0 1-4.586-4.586L16 45.414 20.586 50zM20.5 47.086 18.914 45.5l1.729-1.729a15.223 15.223 0 0 0 1.586 1.586zM32 47c-7.168 0-13-5.832-13-13s5.832-13 13-13 13 5.832 13 13-5.832 13-13 13zM14 25h2c1.209 0 2.364.314 3.399.893A14.89 14.89 0 0 0 17.303 31H7.071c.487-3.388 3.408-6 6.929-6zm-3-6c0-2.206 1.794-4 4-4s4 1.794 4 4-1.794 4-4 4-4-1.794-4-4zm37 6h2c3.521 0 6.442 2.612 6.929 6H46.698a14.888 14.888 0 0 0-2.097-5.108A6.926 6.926 0 0 1 48 25zm-3-6c0-2.206 1.794-4 4-4s4 1.794 4 4-1.794 4-4 4-4-1.794-4-4zm16 26H42.164C45.129 42.258 47 38.348 47 34c0-.338-.029-.668-.051-1H59v-1c0-3.929-2.534-7.269-6.051-8.494A5.981 5.981 0 0 0 55 19c0-3.309-2.691-6-6-6s-6 2.691-6 6c0 1.792.794 3.398 2.043 4.499a8.822 8.822 0 0 0-1.647.773C40.642 21.051 36.559 19 32 19c-4.56 0-8.643 2.051-11.396 5.272a8.916 8.916 0 0 0-1.647-.773A5.983 5.983 0 0 0 21 19c0-3.309-2.691-6-6-6s-6 2.691-6 6c0 1.796.797 3.406 2.051 4.506C7.534 24.731 5 28.071 5 32v1h12.051c-.022.332-.051.662-.051 1 0 3.008.898 5.806 2.429 8.157L17.5 44.086l-1.5-1.5L13.586 45H3V11h58zm0-36H3V3h58z" fill="#003e74" data-original="#000000" class=""></path><path d="M5 5h2v2H5zM9 5h2v2H9zM13 5h2v2h-2zM32 23c-6.065 0-11 4.935-11 11s4.935 11 11 11 11-4.935 11-11-4.935-11-11-11zm0 20c-4.963 0-9-4.037-9-9s4.037-9 9-9 9 4.037 9 9-4.037 9-9 9z" fill="#003e74" data-original="#000000" class=""></path><path d="M27 33h10v2H27zM27 29h10v2H27zM27 37h10v2H27zM49 35h10v2H49zM49 39h10v2H49zM5 35h10v2H5zM5 39h10v2H5zM27 13h2v2h-2zM31 13h2v2h-2zM35 13h2v2h-2z" fill="#003e74" data-original="#000000" class=""></path></g></svg>