<svg xmlns="http://www.w3.org/2000/svg" version="1.1" xmlns:xlink="http://www.w3.org/1999/xlink" xmlns:svgjs="http://svgjs.com/svgjs" width="512" height="512" x="0" y="0" viewBox="0 0 412.799 412.799" style="enable-background:new 0 0 512 512" xml:space="preserve"><g><path d="M411.843 224.482a8.15 8.15 0 0 0-7.189-4.307h-8.525v-13.428c-.029-32.679-19.568-62.184-49.644-74.964 25.643-17.542 32.211-52.55 14.67-78.194-17.542-25.643-52.55-32.211-78.194-14.67-25.643 17.542-32.211 52.55-14.67 78.194a56.27 56.27 0 0 0 14.67 14.67c-30.076 12.781-49.615 42.285-49.644 74.964v13.414h-14.513a8.148 8.148 0 0 0 0 16.296H389.41l-99.265 148.532h-55.408v-19.952c-.048-43.348-27.03-82.102-67.668-97.188 33.719-19.846 44.966-63.269 25.12-96.988s-63.269-44.966-96.988-25.12-44.966 63.269-25.12 96.988a70.844 70.844 0 0 0 25.12 25.12c-40.645 15.082-67.635 53.836-67.687 97.188v19.952H8.148a8.148 8.148 0 0 0 0 16.296h286.355a8.154 8.154 0 0 0 6.775-3.622l110.151-164.828a8.15 8.15 0 0 0 .414-8.353zM274.765 85.56c-.1-22.069 17.709-40.04 39.777-40.14 22.069-.1 40.04 17.709 40.14 39.777s-17.709 40.04-39.777 40.14h-.181c-22.008.027-39.884-17.768-39.959-39.777zm105.067 134.601H249.613v-13.414c-.305-35.959 28.599-65.357 64.558-65.662s65.357 28.599 65.662 64.558c.003.368.003.736 0 1.104zM76.589 207.124c-.141-30.125 24.165-54.661 54.29-54.803s54.661 24.165 54.803 54.29c.141 30.125-24.165 54.661-54.29 54.803l-.279.001c-30.032.025-54.421-24.259-54.524-54.291zm141.869 177.865H43.81v-19.952c-.351-48.228 38.46-87.609 86.688-87.961s87.609 38.46 87.961 86.688c.003.424.003.849 0 1.273v19.952z" fill="#003e74" data-original="#000000"></path><path d="m177.442 87.725 31.429 16.199a8.153 8.153 0 0 0 11.873-7.245V44.106c0-18.001-14.592-32.593-32.593-32.593h-71.007c-18.001 0-32.593 14.592-32.593 32.593v11.04c.013 17.995 14.598 32.58 32.593 32.593zm-76.594-32.579v-11.04c0-9 7.296-16.297 16.297-16.297h71.021c9 0 16.297 7.296 16.297 16.297v39.205L183.17 72.332a8.193 8.193 0 0 0-3.725-.903h-62.3c-8.995 0-16.289-7.288-16.297-16.283z" fill="#003e74" data-original="#000000"></path></g></svg>