<svg xmlns="http://www.w3.org/2000/svg" version="1.1" xmlns:xlink="http://www.w3.org/1999/xlink" xmlns:svgjs="http://svgjs.com/svgjs" width="512" height="512" x="0" y="0" viewBox="0 0 512 512" style="enable-background:new 0 0 512 512" xml:space="preserve"><g><path d="M426.9 373.3h-36.6c-22 0-39.9 18-39.9 40v13.9h116.5v-13.9c0-22-18-40-40-40zm10.1-13c25.1 4.8 43.9 26.9 43.9 53v13.9H491c3.9 0 7 3.1 7 7v50c0 3.9-3.1 7-7 7H21c-3.9 0-7-3.1-7-7v-50c0-3.9 3.1-7 7-7h10.1v-13.9c0-26.1 18.8-48.2 43.9-53-18.5-16.3-19.4-44.9-2-62.4 9.1-9.1 22-13.8 35.4-12.2V118.8c0-54 44.1-98.1 98.1-98.1h91.1c3.9 0 7 3.1 7 7v87.1h91.8c3.9 0 7 3.1 7 7v163.9c25.6-3.1 48 16.9 48 42.5.1 12.7-5.5 24.2-14.4 32.1zm-95.8 30.9c7.2-15.9 21.8-27.6 39.1-30.9-22.9-20.2-17.8-56.9 9.2-70.4V128.8h-84.8v150.5c0 1.6-.5 3.1-1.4 4.3 9 21.6 2.2 46.4-16.1 60.4 25.8 3.5 47.1 22.3 54 47.2zm-219.6-17.9H85c-21.9 0-39.9 18-39.9 40v13.9h116.5v-13.9c0-22-18-40-40-40zm10.1-13c17.3 3.3 31.9 15 39.1 30.9 6.9-24.9 28.2-43.7 54-47.2-24.5-18.8-27-54.9-5.1-76.9 19.4-19.4 50.7-20.1 70.9-1.4v-231h-84.1c-46.2 0-84.1 37.9-84.1 84.1v171c27.1 13.6 32.1 50.3 9.3 70.5zm-28.4-60.9c-25.6 0-38.5 31.1-20.4 49.2s49.2 5.2 49.2-20.4c.1-15.9-12.8-28.8-28.8-28.8zM256 266.1c-20.6 0-37.2 16.7-37.2 37.2 0 20.6 16.6 37.2 37.2 37.2s37.2-16.7 37.2-37.2-16.6-37.2-37.2-37.2zm22.6 91.3h-45.1c-28 0-51 23-51 51v18.8h147v-18.8c0-28-22.9-51-50.9-51zm130-58c-25.6 0-38.5 31.1-20.4 49.2s49.2 5.2 49.2-20.4c.1-15.9-12.8-28.8-28.8-28.8zm-72.9-132.1c-3.9 0-7-3.1-7-7s3.1-7 7-7h22.8c3.9 0 7 3.1 7 7s-3.1 7-7 7zm8.9 84.5c-3.9 0-7-3.1-7-7s3.1-7 7-7h13.8c3.9 0 7 3.1 7 7s-3.1 7-7 7zm-8.9-42.3c-3.9 0-7-3.1-7-7s3.1-7 7-7h22.8c3.9 0 7 3.1 7 7s-3.1 7-7 7zm-181.8 84.6c-3.9 0-7-3.1-7-7s3.1-7 7-7h15.9c3.9 0 7 3.1 7 7s-3.1 7-7 7zm0-42.1c-3.9 0-7-3.1-7-7s3.1-7 7-7h15.9c3.9 0 7 3.1 7 7s-3.1 7-7 7zm0-42.1c-3.9 0-7-3.1-7-7s3.1-7 7-7h15.9c3.9 0 7 3.1 7 7s-3.1 7-7 7zm89.5 0c-3.9 0-7-3.1-7-7s3.1-7 7-7h15.9c3.9 0 7 3.1 7 7s-3.1 7-7 7zm-44.8 0c-3.9 0-7-3.1-7-7s3.1-7 7-7h15.9c3.9 0 7 3.1 7 7s-3.1 7-7 7zm-44.7-42.1c-3.9 0-7-3.1-7-7s3.1-7 7-7h15.9c3.9 0 7 3.1 7 7s-3.1 7-7 7zm89.5 0c-3.9 0-7-3.1-7-7s3.1-7 7-7h15.9c3.9 0 7 3.1 7 7s-3.1 7-7 7zm-44.8 0c-3.9 0-7-3.1-7-7s3.1-7 7-7h15.9c3.9 0 7 3.1 7 7s-3.1 7-7 7zm-44.7-42.1c-3.9 0-7-3.1-7-7s3.1-7 7-7h15.9c3.9 0 7 3.1 7 7s-3.1 7-7 7zm89.5 0c-3.9 0-7-3.1-7-7s3.1-7 7-7h15.9c3.9 0 7 3.1 7 7s-3.1 7-7 7zm-44.8 0c-3.9 0-7-3.1-7-7s3.1-7 7-7h15.9c3.9 0 7 3.1 7 7s-3.1 7-7 7zm44.8-42.1c-3.9 0-7-3.1-7-7s3.1-7 7-7h15.9c3.9 0 7 3.1 7 7s-3.1 7-7 7zm-44.8 0c-3.9 0-7-3.1-7-7s3.1-7 7-7h15.9c3.9 0 7 3.1 7 7s-3.1 7-7 7zM28 477.3h456v-36.1H28z" fill="#003e74" data-original="#000000"></path></g></svg>