<svg xmlns="http://www.w3.org/2000/svg" version="1.1" xmlns:xlink="http://www.w3.org/1999/xlink" xmlns:svgjs="http://svgjs.com/svgjs" width="512" height="512" x="0" y="0" viewBox="0 0 682.667 682.667" style="enable-background:new 0 0 512 512" xml:space="preserve"><g><defs><clipPath id="a" clipPathUnits="userSpaceOnUse"><path d="M0 512h512V0H0Z" fill="#ffffff" data-original="#000000"></path></clipPath></defs><g clip-path="url(#a)" transform="matrix(1.33333 0 0 -1.33333 0 682.667)"><path d="M0 0h-479.613a8.693 8.693 0 0 1-8.694-8.693v-26.71a8.693 8.693 0 0 1 8.694-8.694H0a8.693 8.693 0 0 1 8.693 8.694v26.71A8.692 8.692 0 0 1 0 0Z" style="stroke-width:15;stroke-linecap:round;stroke-linejoin:round;stroke-miterlimit:10;stroke-dasharray:none;stroke-opacity:1" transform="translate(495.807 176.629)" fill="none" stroke="#ffffff" stroke-width="15" stroke-linecap="round" stroke-linejoin="round" stroke-miterlimit="10" stroke-dasharray="none" stroke-opacity="" data-original="#000000"></path><path d="M0 0c0 1.209-1.617 1.625-2.188.56-7.351-13.75-21.839-23.11-38.521-23.11h-66.855v-44.344c0-32.316 25.321-61.832 63.622-61.832 34.095 0 61.833 27.739 61.833 61.832v44.834C7.705-19.897 0-10.806 0 0Z" style="stroke-width:15;stroke-linecap:round;stroke-linejoin:round;stroke-miterlimit:10;stroke-dasharray:none;stroke-opacity:1" transform="translate(300.188 417.068)" fill="none" stroke="#ffffff" stroke-width="15" stroke-linecap="round" stroke-linejoin="round" stroke-miterlimit="10" stroke-dasharray="none" stroke-opacity="" data-original="#000000"></path><path d="M0 0c-7.696-3.665-13.028-11.491-13.028-20.583v-.001c0-12.598 10.213-22.811 22.81-22.811h12.28v36.508h-7.727C8.535-6.887 3.37-4.195 0 0Z" style="stroke-width:15;stroke-linecap:round;stroke-linejoin:round;stroke-miterlimit:10;stroke-dasharray:none;stroke-opacity:1" transform="translate(170.56 401.405)" fill="none" stroke="#ffffff" stroke-width="15" stroke-linecap="round" stroke-linejoin="round" stroke-miterlimit="10" stroke-dasharray="none" stroke-opacity="" data-original="#000000"></path><path d="M0 0c-1.354-5.035-5.958-8.775-11.405-8.775-1.598 0-3.153.179-4.657.501l-.003-.011v-36.998h12.28c12.598 0 22.811 10.213 22.811 22.81v.001C19.026-11.166 10.793-1.807 0 0Z" style="stroke-width:15;stroke-linecap:round;stroke-linejoin:round;stroke-miterlimit:10;stroke-dasharray:none;stroke-opacity:1" transform="translate(334.144 403.294)" fill="none" stroke="#ffffff" stroke-width="15" stroke-linecap="round" stroke-linejoin="round" stroke-miterlimit="10" stroke-dasharray="none" stroke-opacity="" data-original="#000000"></path><path d="M0 0v8.817c0 27.856-19.412 46.629-33.909 52.595l-88.909 33.931a6.267 6.267 0 0 0-4.007 5.83l-.018 20.608c-9.714-6.356-21.307-10.067-33.757-10.067-13.729 0-25.777 3.807-35.602 10.16l.001-20.662c0-2.583-1.242-4.106-2.672-5.075l-88.909-34.725c-14.497-5.966-33.909-24.739-33.909-52.595V0Z" style="stroke-width:15;stroke-linecap:round;stroke-linejoin:round;stroke-miterlimit:10;stroke-dasharray:none;stroke-opacity:1" transform="translate(416.846 176.629)" fill="none" stroke="#ffffff" stroke-width="15" stroke-linecap="round" stroke-linejoin="round" stroke-miterlimit="10" stroke-dasharray="none" stroke-opacity="" data-original="#000000"></path><path d="m0 0-13.47 86.868-65.177-25.456c-14.498-5.966-33.91-24.739-33.91-52.595V0Z" style="stroke-width:15;stroke-linecap:round;stroke-linejoin:round;stroke-miterlimit:10;stroke-dasharray:none;stroke-opacity:1" transform="translate(207.71 176.629)" fill="none" stroke="#ffffff" stroke-width="15" stroke-linecap="round" stroke-linejoin="round" stroke-miterlimit="10" stroke-dasharray="none" stroke-opacity="" data-original="#000000"></path><path d="M0 0v8.817c0 27.856-19.412 46.629-33.909 52.595l-65.263 24.906L-112.557 0Z" style="stroke-width:15;stroke-linecap:round;stroke-linejoin:round;stroke-miterlimit:10;stroke-dasharray:none;stroke-opacity:1" transform="translate(416.846 176.629)" fill="none" stroke="#ffffff" stroke-width="15" stroke-linecap="round" stroke-linejoin="round" stroke-miterlimit="10" stroke-dasharray="none" stroke-opacity="" data-original="#000000"></path><path d="M0 0c-5.468 4.344-12.374 6.957-19.899 6.957-17.696 0-32.039-14.345-32.039-32.039 0-17.695 14.343-32.04 32.039-32.04 7.525 0 14.431 2.613 19.899 6.957" style="stroke-width:15;stroke-linecap:round;stroke-linejoin:round;stroke-miterlimit:10;stroke-dasharray:none;stroke-opacity:1" transform="translate(208.19 95.099)" fill="none" stroke="#ffffff" stroke-width="15" stroke-linecap="round" stroke-linejoin="round" stroke-miterlimit="10" stroke-dasharray="none" stroke-opacity="" data-original="#000000"></path><path d="M0 0h-32.371v64.079H0" style="stroke-width:15;stroke-linecap:round;stroke-linejoin:round;stroke-miterlimit:10;stroke-dasharray:none;stroke-opacity:1" transform="translate(266.632 37.977)" fill="none" stroke="#ffffff" stroke-width="15" stroke-linecap="round" stroke-linejoin="round" stroke-miterlimit="10" stroke-dasharray="none" stroke-opacity="" data-original="#000000"></path><path d="M0 0h29.58" style="stroke-width:15;stroke-linecap:round;stroke-linejoin:round;stroke-miterlimit:10;stroke-dasharray:none;stroke-opacity:1" transform="translate(237.052 70.017)" fill="none" stroke="#ffffff" stroke-width="15" stroke-linecap="round" stroke-linejoin="round" stroke-miterlimit="10" stroke-dasharray="none" stroke-opacity="" data-original="#000000"></path><path d="M0 0c0 17.694-14.345 32.039-32.039 32.039-17.695 0-32.039-14.345-32.039-32.039 0-17.695 14.344-32.04 32.039-32.04C-14.345-32.04 0-17.695 0 0Z" style="stroke-width:15;stroke-linecap:round;stroke-linejoin:round;stroke-miterlimit:10;stroke-dasharray:none;stroke-opacity:1" transform="translate(355.749 70.017)" fill="none" stroke="#ffffff" stroke-width="15" stroke-linecap="round" stroke-linejoin="round" stroke-miterlimit="10" stroke-dasharray="none" stroke-opacity="" data-original="#000000"></path><path d="M0 0c-1.269 1.88-1.031 3.393-1.031 4.282h-24.857A6.32 6.32 0 0 0-26.919 0l-10.054-14.889 9.598-20.942H.456l9.598 20.941z" style="stroke-width:15;stroke-linecap:round;stroke-linejoin:round;stroke-miterlimit:10;stroke-dasharray:none;stroke-opacity:1" transform="translate(268.997 249.77)" fill="none" stroke="#ffffff" stroke-width="15" stroke-linecap="round" stroke-linejoin="round" stroke-miterlimit="10" stroke-dasharray="none" stroke-opacity="" data-original="#000000"></path><path d="M0 0h-27.831l-6.573-37.311H6.573Z" style="stroke-width:15;stroke-linecap:round;stroke-linejoin:round;stroke-miterlimit:10;stroke-dasharray:none;stroke-opacity:1" transform="translate(269.453 213.94)" fill="none" stroke="#ffffff" stroke-width="15" stroke-linecap="round" stroke-linejoin="round" stroke-miterlimit="10" stroke-dasharray="none" stroke-opacity="" data-original="#000000"></path><path d="m0 0-20.709 17.177c-.49-1.153-1.306-1.97-2.194-2.573l-23.732-9.269 1.341-8.649 26.711-21.99a6.314 6.314 0 0 1 9.262 1.327L1.202-8.392A6.312 6.312 0 0 1 0 0Z" style="stroke-width:15;stroke-linecap:round;stroke-linejoin:round;stroke-miterlimit:10;stroke-dasharray:none;stroke-opacity:1" transform="translate(240.876 258.162)" fill="none" stroke="#ffffff" stroke-width="15" stroke-linecap="round" stroke-linejoin="round" stroke-miterlimit="10" stroke-dasharray="none" stroke-opacity="" data-original="#000000"></path><path d="M0 0a6.253 6.253 0 0 0-3.512 3.449l-20.316-17.258A6.312 6.312 0 0 1-25.03-22.2l10.523-15.585a6.313 6.313 0 0 1 9.262-1.327l27.857 23.419 1.034 6.67z" style="stroke-width:15;stroke-linecap:round;stroke-linejoin:round;stroke-miterlimit:10;stroke-dasharray:none;stroke-opacity:1" transform="translate(294.027 271.97)" fill="none" stroke="#ffffff" stroke-width="15" stroke-linecap="round" stroke-linejoin="round" stroke-miterlimit="10" stroke-dasharray="none" stroke-opacity="" data-original="#000000"></path><path d="M0 0h-15.481C-39.6 0-59.15-19.551-59.15-43.669v-47.925c0-10.156 8.231-18.387 18.386-18.387h74.583c16.682 0 31.17 9.358 38.522 23.109.57 1.065 2.187.649 2.187-.56 0-12.402 10.148-22.549 22.551-22.549 6.501 0 11.819 5.319 11.819 11.82v50.013c0 11.781-10.279 20.345-20.496 19.56-5.908-.455-11.329 3.26-12.465 9.075C74.021-9.719 69.173 0 50.232 0H35" style="stroke-width:15;stroke-linecap:round;stroke-linejoin:round;stroke-miterlimit:10;stroke-dasharray:none;stroke-opacity:1" transform="translate(225.66 504.5)" fill="none" stroke="#ffffff" stroke-width="15" stroke-linecap="round" stroke-linejoin="round" stroke-miterlimit="10" stroke-dasharray="none" stroke-opacity="" data-original="#000000"></path><path d="M0 0v45.017h-454.254V-71.322a8.694 8.694 0 0 1 8.692-8.694h436.87c4.8 0 8.692 3.893 8.692 8.694V-35" style="stroke-width:15;stroke-linecap:round;stroke-linejoin:round;stroke-miterlimit:10;stroke-dasharray:none;stroke-opacity:1" transform="translate(483.127 87.516)" fill="none" stroke="#ffffff" stroke-width="15" stroke-linecap="round" stroke-linejoin="round" stroke-miterlimit="10" stroke-dasharray="none" stroke-opacity="" data-original="#000000"></path></g></g></svg>