<svg xmlns="http://www.w3.org/2000/svg" version="1.1" xmlns:xlink="http://www.w3.org/1999/xlink" xmlns:svgjs="http://svgjs.com/svgjs" width="512" height="512" x="0" y="0" viewBox="0 0 100 100" style="enable-background:new 0 0 512 512" xml:space="preserve" class=""><g><path d="M78.19 80.8H85a1.24 1.24 0 0 0 1.25-1.25V64A1.24 1.24 0 0 0 85 62.75h-6.81A1.25 1.25 0 0 0 76.94 64v15.55a1.25 1.25 0 0 0 1.25 1.25Zm1.25-15.55h4.35v13h-4.35Zm-57.63-2.5H15A1.24 1.24 0 0 0 13.71 64v15.55A1.24 1.24 0 0 0 15 80.8h6.85a1.25 1.25 0 0 0 1.25-1.25V64a1.25 1.25 0 0 0-1.29-1.25ZM20.56 78.3h-4.35v-13h4.35ZM93.8 22.07H58.67a1.3 1.3 0 0 0-.21 0l-7.16-3.42v-3H60a1.25 1.25 0 0 0 1.25-1.25V7.66A1.25 1.25 0 0 0 60 6.41h-8.7V6.2a1.25 1.25 0 0 0-2.5 0v12.43l-6.89 3.59a1.28 1.28 0 0 0-.58-.15H6.25A1.24 1.24 0 0 0 5 23.32V30a1.25 1.25 0 0 0 1.25 1.25h1.26v54.14H6.27A1.25 1.25 0 0 0 5 86.64v5.26a1.25 1.25 0 0 0 1.25 1.25h87.48A1.25 1.25 0 0 0 95 91.9v-5.26a1.25 1.25 0 0 0-1.25-1.25h-1.26V31.24h1.31A1.25 1.25 0 0 0 95.05 30v-6.68a1.24 1.24 0 0 0-1.25-1.25ZM43.21 85.39v-20.9h6.37v20.9Zm8.87-20.9h6.37v20.9h-6.37ZM59.7 62H42a1.25 1.25 0 0 0-1.25 1.25v22.14H30.6V38.23h40.46v47.16H61V63.24A1.25 1.25 0 0 0 59.7 62Zm10.81-31.3a1.23 1.23 0 0 0 .55.46v4.58H30.6v-4.8L50 20.81ZM58.79 8.91v4.24H51.3V8.91ZM7.5 24.57h29.91l-8.34 4.34a1.19 1.19 0 0 0-.59-.17H7.5Zm2.5 6.67h18.1v54.15H10Zm82.48 59.41h-85v-2.76h85ZM90 85.39H73.56V31.24H90Zm2.56-56.65H72.21l-8.65-4.17h29ZM78.19 56H85a1.24 1.24 0 0 0 1.25-1.25V39.22A1.24 1.24 0 0 0 85 38h-6.81a1.25 1.25 0 0 0-1.25 1.25v15.52A1.25 1.25 0 0 0 78.19 56Zm1.25-15.55h4.35v13.07h-4.35ZM21.81 38H15a1.24 1.24 0 0 0-1.25 1.25v15.52A1.24 1.24 0 0 0 15 56h6.85a1.25 1.25 0 0 0 1.25-1.25V39.22A1.25 1.25 0 0 0 21.81 38Zm-1.25 15.52h-4.35V40.47h4.35Zm24.23-24.86a5.26 5.26 0 1 0 5.26-5.26 5.27 5.27 0 0 0-5.26 5.26Zm5.26-2.76a2.76 2.76 0 1 1-2.76 2.76 2.77 2.77 0 0 1 2.76-2.76Zm7.72 17.3H44.26A1.25 1.25 0 0 0 43 44.45V58a1.25 1.25 0 0 0 1.25 1.25h13.52A1.25 1.25 0 0 0 59 58V44.45a1.25 1.25 0 0 0-1.23-1.25Zm-12.26 2.5h4.07v11h-4.07Zm11 11h-4.43v-11h4.44ZM63.9 58V44.45a1.25 1.25 0 0 1 2.5 0V58a1.25 1.25 0 1 1-2.5 0ZM37.76 44.45V58a1.25 1.25 0 0 1-2.5 0V44.45a1.25 1.25 0 0 1 2.5 0Z" fill="#ffffff" data-original="#000000"></path></g></svg>