<svg xmlns="http://www.w3.org/2000/svg" version="1.1" xmlns:xlink="http://www.w3.org/1999/xlink" xmlns:svgjs="http://svgjs.com/svgjs" width="512" height="512" x="0" y="0" viewBox="0 0 682.667 682.667" style="enable-background:new 0 0 512 512" xml:space="preserve"><g><defs><clipPath id="a" clipPathUnits="userSpaceOnUse"><path d="M0 512h512V0H0Z" fill="#ffffff" data-original="#000000"></path></clipPath></defs><g clip-path="url(#a)" transform="matrix(1.33333 0 0 -1.33333 0 682.667)"><path d="M0 0a229.797 229.797 0 0 1-45.956-33.92c-41.865-39.807-68.689-95.297-71.075-157.053-.114-2.98-.177-5.985-.177-9.004 0-126.553 102.597-229.149 229.15-229.149 54.796 0 105.11 19.233 144.537 51.323 26.646 21.671 48.318 49.214 63.068 80.66a227.378 227.378 0 0 1 17.87 56.009 230.087 230.087 0 0 1 3.687 41.157c0 112.789-81.494 206.557-188.826 225.614a230.753 230.753 0 0 1-40.336 3.536c-9.987 0-19.822-.651-29.473-1.89" style="stroke-width:20;stroke-linecap:round;stroke-linejoin:round;stroke-miterlimit:10;stroke-dasharray:none;stroke-opacity:1" transform="translate(127.208 451.024)" fill="none" stroke="#ffffff" stroke-width="20" stroke-linecap="round" stroke-linejoin="round" stroke-miterlimit="10" stroke-dasharray="none" stroke-opacity="" data-original="#000000"></path><path d="M0 0v-68.12c0-4.596-1.831-9.004-5.077-12.25l-79.839-79.839c-7.767-7.767-21.052-2.261-21.052 8.727v78.374c0 4.597-1.819 9.004-5.065 12.25l-30.006 29.993a17.323 17.323 0 0 0-5.064 12.25v49.96c0 9.56-7.767 17.326-17.339 17.326h-57.537c2.387 61.756 29.21 117.246 71.075 157.053v-63.7a17.28 17.28 0 0 1 5.077-12.25l52.283-52.296a17.28 17.28 0 0 0 5.077-12.25V34.667c0-9.573 7.767-17.34 17.339-17.34h52.801C-7.754 17.327 0 9.573 0 0Z" style="stroke-width:20;stroke-linecap:round;stroke-linejoin:round;stroke-miterlimit:10;stroke-dasharray:none;stroke-opacity:1" transform="translate(231.156 211.38)" fill="none" stroke="#ffffff" stroke-width="20" stroke-linecap="round" stroke-linejoin="round" stroke-miterlimit="10" stroke-dasharray="none" stroke-opacity="" data-original="#000000"></path><path d="M0 0c0-14.056-1.263-27.809-3.688-41.158-6.503-2.753-14.359-1.515-19.713 3.852l-23.932 23.932a17.97 17.97 0 0 1-12.704 5.266h-23.731c-9.925 0-17.97 8.045-17.97 17.959v24.726a17.97 17.97 0 0 1-5.253 12.705l-55.971 55.984a17.928 17.928 0 0 0-5.267 12.704v25.346c0 4.761 1.895 9.333 5.267 12.705 3.511 3.498 5.253 8.095 5.253 12.705 0 4.596-1.742 9.193-5.253 12.704l-20.598 20.597a17.929 17.929 0 0 0-5.266 12.705v12.881C-81.494 206.557 0 112.788 0 0Z" style="stroke-width:20;stroke-linecap:round;stroke-linejoin:round;stroke-miterlimit:10;stroke-dasharray:none;stroke-opacity:1" transform="translate(468.313 251.047)" fill="none" stroke="#ffffff" stroke-width="20" stroke-linecap="round" stroke-linejoin="round" stroke-miterlimit="10" stroke-dasharray="none" stroke-opacity="" data-original="#000000"></path><path d="M0 0c-14.75-31.446-36.422-58.99-63.068-80.661l-26.786 26.786a25.025 25.025 0 0 0-5.379 8.058 24.861 24.861 0 0 0 5.379 27.088l13.867 13.867a24.865 24.865 0 0 0 17.579 7.274h47.724C-6.946 2.412-3.296 1.566 0 0Z" style="stroke-width:20;stroke-linecap:round;stroke-linejoin:round;stroke-miterlimit:10;stroke-dasharray:none;stroke-opacity:1" transform="translate(446.755 153.881)" fill="none" stroke="#ffffff" stroke-width="20" stroke-linecap="round" stroke-linejoin="round" stroke-miterlimit="10" stroke-dasharray="none" stroke-opacity="" data-original="#000000"></path><path d="m0 0 4.95 10.938c3.331 7.66 5.936 17.811 5.936 17.811 3.056 11.73 3.399 26.515-7.994 37.909-39.537 39.536-161.326-69.849-269.394-177.918-108.069-108.068-217.455-229.857-177.918-269.393 11.143-11.143 25.529-11.06 37.129-8.192 0 0 14.479 5.332 21.716 9.353" style="stroke-width:20;stroke-linecap:round;stroke-linejoin:round;stroke-miterlimit:10;stroke-dasharray:none;stroke-opacity:1" transform="translate(467.893 415.181)" fill="none" stroke="#ffffff" stroke-width="20" stroke-linecap="round" stroke-linejoin="round" stroke-miterlimit="10" stroke-dasharray="none" stroke-opacity="" data-original="#000000"></path><path d="m0 0 20.146-29.674 34.107 17.076" style="stroke-width:20;stroke-linecap:round;stroke-linejoin:round;stroke-miterlimit:10;stroke-dasharray:none;stroke-opacity:1" transform="translate(447.747 444.856)" fill="none" stroke="#ffffff" stroke-width="20" stroke-linecap="round" stroke-linejoin="round" stroke-miterlimit="10" stroke-dasharray="none" stroke-opacity="" data-original="#000000"></path><path d="M0 0v0" style="stroke-width:20;stroke-linecap:round;stroke-linejoin:round;stroke-miterlimit:10;stroke-dasharray:none;stroke-opacity:1" transform="translate(168.03 468.946)" fill="none" stroke="#ffffff" stroke-width="20" stroke-linecap="round" stroke-linejoin="round" stroke-miterlimit="10" stroke-dasharray="none" stroke-opacity="" data-original="#000000"></path></g></g></svg>