<svg xmlns="http://www.w3.org/2000/svg" version="1.1" xmlns:xlink="http://www.w3.org/1999/xlink" xmlns:svgjs="http://svgjs.com/svgjs" width="512" height="512" x="0" y="0" viewBox="0 0 60 60" style="enable-background:new 0 0 512 512" xml:space="preserve" class=""><g><rect width="4" height="12" x="28" y="1" fill="#b80c09" rx="2" data-original="#67b9cc"></rect><rect width="4" height="12" x="16.5" y="4.081" fill="#b80c09" rx="2" transform="rotate(-30 18.5 10.082)" data-original="#67b9cc"></rect><rect width="4" height="12" x="8.081" y="12.5" fill="#7f0e0c" rx="2" transform="rotate(-60 10.081 18.5)" data-original="#2fa8cc" class=""></rect><rect width="4" height="12" x="5" y="24" fill="#7f0e0c" rx="2" transform="rotate(-90 7 30)" data-original="#2fa8cc" class=""></rect><rect width="4" height="12" x="8.081" y="35.5" fill="#5d0b0a" rx="2" transform="rotate(-120 10.081 41.5)" data-original="#3b97d3" class=""></rect><rect width="4" height="12" x="16.5" y="43.919" fill="#5d0b0a" rx="2" transform="rotate(-150 18.5 49.919)" data-original="#3b97d3" class=""></rect><g fill="#2980ba"><rect width="4" height="12" x="28" y="47" rx="2" transform="rotate(180 30 53)" fill="#390908" data-original="#2980ba" class=""></rect><rect width="4" height="12" x="39.5" y="43.919" rx="2" transform="rotate(150 41.5 49.92)" fill="#390908" data-original="#2980ba" class=""></rect><rect width="4" height="12" x="47.919" y="35.5" rx="2" transform="rotate(120 49.92 41.5)" fill="#390908" data-original="#2980ba" class=""></rect></g><rect width="4" height="12" x="51" y="24" fill="#160302" rx="2" transform="rotate(90 53 30)" data-original="#285680" class=""></rect><rect width="4" height="12" x="47.919" y="12.5" fill="#160302" rx="2" transform="rotate(60 49.92 18.5)" data-original="#285680" class=""></rect></g></svg>