<svg xmlns="http://www.w3.org/2000/svg" version="1.1" xmlns:xlink="http://www.w3.org/1999/xlink" xmlns:svgjs="http://svgjs.com/svgjs" width="512" height="512" x="0" y="0" viewBox="0 0 48 48" style="enable-background:new 0 0 512 512" xml:space="preserve"><g><path d="M3 32.865a6.121 6.121 0 0 1 .975.072c.026.008.053.011.08.016a5.467 5.467 0 0 1 1.932.798 6.987 6.987 0 0 0 4.01 1.163 6.913 6.913 0 0 0 3.97-1.14.79.79 0 0 0 .04-.022 5.056 5.056 0 0 1 2.986-.887 5.122 5.122 0 0 1 2.996.886 6.944 6.944 0 0 0 4 1.163A7.04 7.04 0 0 0 28 33.752a5.055 5.055 0 0 1 2.986-.887 5.147 5.147 0 0 1 3.013.896 7 7 0 0 0 3.994 1.153 6.916 6.916 0 0 0 2.788-.52 10.11 10.11 0 0 0 1.22-.642A5.269 5.269 0 0 1 45 32.865a1 1 0 0 0 0-2 7.066 7.066 0 0 0-1.162.082 7.155 7.155 0 0 0-2.849 1.081 8.455 8.455 0 0 1-.99.526 4.89 4.89 0 0 1-2.006.36 5.088 5.088 0 0 1-3.019-.9 7.193 7.193 0 0 0-2.768-1.06l-8.24-12.033 10.559-5.285a3.547 3.547 0 0 0 1.256-5.297 3.608 3.608 0 0 0-4.352-1.071l-14.588 6.905a4.072 4.072 0 0 0-1.792 5.7l1.939 3.448-12.935 7.613A8.263 8.263 0 0 0 3 30.866a1 1 0 0 0 0 2Zm15.007-7.824a2.021 2.021 0 0 0 .725-2.747l-1.948-3.415a2.072 2.072 0 0 1 .913-2.898l14.586-6.904a1.536 1.536 0 0 1 2.16 1.753 1.509 1.509 0 0 1-.81 1.016l-10.555 5.283a2.012 2.012 0 0 0-1.06 1.293 2.034 2.034 0 0 0 .287 1.666l7.472 10.865a7.135 7.135 0 0 0-2.791 1.075 5.054 5.054 0 0 1-2.996.886 5.078 5.078 0 0 1-3.009-.9 7 7 0 0 0-3.988-1.149 6.937 6.937 0 0 0-3.979 1.15l-.046.026a5.002 5.002 0 0 1-2.971.873 5.092 5.092 0 0 1-2.999-.889c-.14-.082-.286-.165-.434-.248ZM45 37.012a7.003 7.003 0 0 0-4.007 1.161 5.506 5.506 0 0 1-5.996 0 7.493 7.493 0 0 0-8.013 0 5.087 5.087 0 0 1-2.995.888 5.077 5.077 0 0 1-2.992-.888 6.987 6.987 0 0 0-4.002-1.161 6.994 6.994 0 0 0-4.005 1.161 5.082 5.082 0 0 1-2.994.888 5.082 5.082 0 0 1-2.993-.888A6.991 6.991 0 0 0 3 37.012a1 1 0 0 0 0 2 5.081 5.081 0 0 1 2.993.888 6.992 6.992 0 0 0 4.004 1.161A6.994 6.994 0 0 0 14 39.9a5.082 5.082 0 0 1 2.994-.888 5.077 5.077 0 0 1 2.991.888 6.987 6.987 0 0 0 4.003 1.161 6.997 6.997 0 0 0 4.006-1.161 5.5 5.5 0 0 1 5.992 0 7.496 7.496 0 0 0 8.015 0A5.096 5.096 0 0 1 45 39.012a1 1 0 0 0 0-2Z" fill="#003e74" data-original="#000000"></path><path d="M30.683 22.647A7.146 7.146 0 1 0 37.83 15.5a7.154 7.154 0 0 0-7.146 7.147ZM37.83 17.5a5.146 5.146 0 1 1-5.146 5.146A5.152 5.152 0 0 1 37.83 17.5Z" fill="#003e74" data-original="#000000"></path></g></svg>