<svg height="512" viewBox="0 0 512 512" width="512" xmlns="http://www.w3.org/2000/svg" xmlns:xlink="http://www.w3.org/1999/xlink"><linearGradient id="linear-gradient" gradientUnits="userSpaceOnUse" x1="16.33" x2="518.77" y1="259.38" y2="252.3"><stop offset="0" stop-color="#0049af"/><stop offset=".99" stop-color="#0b1073"/></linearGradient><g id="Layer_2" data-name="Layer 2"><g id="Layer_1-2" data-name="Layer 1"><g id="_3" data-name="3"><circle cx="256" cy="256" fill="url(#linear-gradient)" r="256"/><path d="m229.72 235.68h22.9q13.13 0 20.18-7.06t7.06-19.62a23.58 23.58 0 0 0 -6.34-16.72q-6.34-6.76-18.44-6.77a26.85 26.85 0 0 0 -16.72 5.49 17 17 0 0 0 -7.2 14.12h-47.27l-.28-.87q-.87-25.07 19.74-40.63t50-15.56q34.14 0 54.61 15.63t20.46 44.31a43.34 43.34 0 0 1 -8.87 26.29 59.23 59.23 0 0 1 -23.7 18.81q16.86 6.19 26.37 18.8t9.51 30.19q0 28.81-22.05 45.31t-56.33 16.5q-29.55 0-51.66-15.49t-21.4-44.88l.29-.86h47.55a21.61 21.61 0 0 0 7.87 16.95 28.08 28.08 0 0 0 19.1 6.84q12.81 0 20.46-7.2a23.92 23.92 0 0 0 7.63-18.16q0-15.27-8-22.26t-22.56-7h-22.9z" fill="#fff"/></g></g></g></svg>