<svg xmlns="http://www.w3.org/2000/svg" xmlns:xlink="http://www.w3.org/1999/xlink" viewBox="0 0 512 512" width="512" height="512" preserveAspectRatio="xMidYMid meet" style="width: 100%; height: 100%; transform: translate3d(0px, 0px, 0px); content-visibility: visible;"><defs><clipPath id="__lottie_element_44"><rect width="512" height="512" x="0" y="0"/></clipPath><g id="__lottie_element_54"><g transform="matrix(1,0,0,1,256,264.8786315917969)" opacity="1" style="display: block;"><g opacity="1" transform="matrix(1,0,0,1,0,0)"><path fill="rgb(47,47,47)" fill-opacity="1" d=" M110.61199951171875,-95.25299835205078 C110.61199951171875,-95.25299835205078 122.2979965209961,-88.50599670410156 122.2979965209961,-88.50599670410156 C124.86499786376953,-87.02400207519531 126.9489974975586,-88.24099731445312 126.95700073242188,-91.19000244140625 C126.95700073242188,-91.19000244140625 127.06099700927734,-127.9020004272461 127.06099700927734,-127.9020004272461 C127.06900024414062,-130.8509979248047 124.9990005493164,-134.43800354003906 122.43199920654297,-135.9199981689453 C122.43199920654297,-135.9199981689453 68.11599731445312,-167.2790069580078 68.11599731445312,-167.2790069580078 C65.54900360107422,-168.76100158691406 63.46500015258789,-167.572998046875 63.457000732421875,-164.62399291992188 C63.457000732421875,-164.62399291992188 63.35300064086914,-127.91200256347656 63.35300064086914,-127.91200256347656 C63.345001220703125,-124.96299743652344 65.41500091552734,-121.34700012207031 67.98200225830078,-119.86499786376953 C67.98200225830078,-119.86499786376953 105.41400146484375,-98.25399780273438 105.41400146484375,-98.25399780273438"/><path stroke-linecap="round" stroke-linejoin="round" fill-opacity="0" stroke="rgb(47,47,47)" stroke-opacity="1" stroke-width="1.819" d=" M110.61199951171875,-95.25299835205078 C110.61199951171875,-95.25299835205078 122.2979965209961,-88.50599670410156 122.2979965209961,-88.50599670410156 C124.86499786376953,-87.02400207519531 126.9489974975586,-88.24099731445312 126.95700073242188,-91.19000244140625 C126.95700073242188,-91.19000244140625 127.06099700927734,-127.9020004272461 127.06099700927734,-127.9020004272461 C127.06900024414062,-130.8509979248047 124.9990005493164,-134.43800354003906 122.43199920654297,-135.9199981689453 C122.43199920654297,-135.9199981689453 68.11599731445312,-167.2790069580078 68.11599731445312,-167.2790069580078 C65.54900360107422,-168.76100158691406 63.46500015258789,-167.572998046875 63.457000732421875,-164.62399291992188 C63.457000732421875,-164.62399291992188 63.35300064086914,-127.91200256347656 63.35300064086914,-127.91200256347656 C63.345001220703125,-124.96299743652344 65.41500091552734,-121.34700012207031 67.98200225830078,-119.86499786376953 C67.98200225830078,-119.86499786376953 105.41400146484375,-98.25399780273438 105.41400146484375,-98.25399780273438"/></g></g></g><clipPath id="__lottie_element_58"><path fill="#ffffff" clip-rule="nonzero" d=" M65.35900115966797,-53.07699966430664 C65.35900115966797,-53.07699966430664 65.85900115966797,-36.810001373291016 65.85900115966797,-36.810001373291016 C65.85900115966797,-36.810001373291016 98.69100189208984,-49.810001373291016 98.69100189208984,-49.810001373291016 C98.69100189208984,-49.810001373291016 91.69100189208984,-100.4520034790039 91.69100189208984,-100.4520034790039 C91.69100189208984,-100.4520034790039 65.35900115966797,-53.07699966430664 65.35900115966797,-53.07699966430664" fill-opacity="1"/></clipPath><g id="__lottie_element_60"><g transform="matrix(1,0,0,1,256,264.8786315917969)" opacity="1" style="display: block;"><g opacity="1" transform="matrix(1,0,0,1,0,0)"><path fill="rgb(47,47,47)" fill-opacity="1" d=" M138.07200622558594,-142.59500122070312 C138.07200622558594,-142.59500122070312 99.34200286865234,-164.99200439453125 99.34200286865234,-164.99200439453125 C99.34200286865234,-164.99200439453125 91.73400115966797,-169.39199829101562 91.73400115966797,-169.39199829101562 C91.73400115966797,-169.39199829101562 67.072998046875,-183.6529998779297 67.072998046875,-183.6529998779297 C65.37100219726562,-184.60400390625 63.819000244140625,-184.70399475097656 62.71699905395508,-184.05299377441406 C62.71699905395508,-184.05299377441406 55.4739990234375,-179.8459930419922 55.4739990234375,-179.8459930419922 C55.750999450683594,-179.9969940185547 56.053001403808594,-180.1060028076172 56.37699890136719,-180.1699981689453 C54.75899887084961,-179.84800720214844 53.69200134277344,-178.33799743652344 53.685001373291016,-175.92799377441406 C53.685001373291016,-175.92799377441406 53.54899978637695,-127.91699981689453 53.54899978637695,-127.91699981689453 C53.53799819946289,-124.05999755859375 56.24599838256836,-119.33200073242188 59.60300064086914,-117.39399719238281 C59.60300064086914,-117.39399719238281 108.55500030517578,-89.13099670410156 108.55500030517578,-89.13099670410156 C108.55500030517578,-89.13099670410156 115.35299682617188,-85.20700073242188 115.35299682617188,-85.20700073242188 C115.35299682617188,-85.20700073242188 130.63600158691406,-76.38300323486328 130.63600158691406,-76.38300323486328 C133.9929962158203,-74.44499969482422 136.71800231933594,-76.03500366210938 136.72900390625,-79.89199829101562 C136.72900390625,-79.89199829101562 136.86599731445312,-127.90399932861328 136.86599731445312,-127.90399932861328 C136.8769989013672,-131.76100158691406 134.16900634765625,-136.45199584960938 130.81199645996094,-138.38999938964844 C130.81199645996094,-138.38999938964844 84.63700103759766,-165.0489959716797 84.63700103759766,-165.0489959716797 C84.63700103759766,-165.0489959716797 130.8300018310547,-138.38800048828125 130.8300018310547,-138.38800048828125 C134.18499755859375,-136.43499755859375 136.88900756835938,-131.7779998779297 136.88900756835938,-127.9229965209961 C136.88900756835938,-127.9229965209961 136.73800659179688,-79.90599822998047 136.73800659179688,-79.90599822998047 C136.73800659179688,-77.9530029296875 136.03799438476562,-76.60099792480469 134.93600463867188,-75.94999694824219 C134.93600463867188,-75.94999694824219 142.22799682617188,-80.20800018310547 142.22799682617188,-80.20800018310547 C143.3300018310547,-80.85900115966797 143.9810028076172,-82.20999908447266 144.031005859375,-84.11299896240234 C144.031005859375,-84.11299896240234 144.13099670410156,-132.1300048828125 144.13099670410156,-132.1300048828125 C144.13099670410156,-135.98599243164062 141.427001953125,-140.69200134277344 138.07200622558594,-142.59500122070312z M56.44300079345703,-180.17799377441406 C57.24800109863281,-180.3209991455078 58.183998107910156,-180.18600463867188 59.207000732421875,-179.697998046875 C58.19300079345703,-180.1750030517578 57.25199890136719,-180.32200622558594 56.44300079345703,-180.17799377441406z"/><path stroke-linecap="round" stroke-linejoin="round" fill-opacity="0" stroke="rgb(47,47,47)" stroke-opacity="1" stroke-width="1.819" d=" M138.07200622558594,-142.59500122070312 C138.07200622558594,-142.59500122070312 99.34200286865234,-164.99200439453125 99.34200286865234,-164.99200439453125 C99.34200286865234,-164.99200439453125 91.73400115966797,-169.39199829101562 91.73400115966797,-169.39199829101562 C91.73400115966797,-169.39199829101562 67.072998046875,-183.6529998779297 67.072998046875,-183.6529998779297 C65.37100219726562,-184.60400390625 63.819000244140625,-184.70399475097656 62.71699905395508,-184.05299377441406 C62.71699905395508,-184.05299377441406 55.4739990234375,-179.8459930419922 55.4739990234375,-179.8459930419922 C55.750999450683594,-179.9969940185547 56.053001403808594,-180.1060028076172 56.37699890136719,-180.1699981689453 C54.75899887084961,-179.84800720214844 53.69200134277344,-178.33799743652344 53.685001373291016,-175.92799377441406 C53.685001373291016,-175.92799377441406 53.54899978637695,-127.91699981689453 53.54899978637695,-127.91699981689453 C53.53799819946289,-124.05999755859375 56.24599838256836,-119.33200073242188 59.60300064086914,-117.39399719238281 C59.60300064086914,-117.39399719238281 108.55500030517578,-89.13099670410156 108.55500030517578,-89.13099670410156 C108.55500030517578,-89.13099670410156 115.35299682617188,-85.20700073242188 115.35299682617188,-85.20700073242188 C115.35299682617188,-85.20700073242188 130.63600158691406,-76.38300323486328 130.63600158691406,-76.38300323486328 C133.9929962158203,-74.44499969482422 136.71800231933594,-76.03500366210938 136.72900390625,-79.89199829101562 C136.72900390625,-79.89199829101562 136.86599731445312,-127.90399932861328 136.86599731445312,-127.90399932861328 C136.8769989013672,-131.76100158691406 134.16900634765625,-136.45199584960938 130.81199645996094,-138.38999938964844 C130.81199645996094,-138.38999938964844 84.63700103759766,-165.0489959716797 84.63700103759766,-165.0489959716797 C84.63700103759766,-165.0489959716797 130.8300018310547,-138.38800048828125 130.8300018310547,-138.38800048828125 C134.18499755859375,-136.43499755859375 136.88900756835938,-131.7779998779297 136.88900756835938,-127.9229965209961 C136.88900756835938,-127.9229965209961 136.73800659179688,-79.90599822998047 136.73800659179688,-79.90599822998047 C136.73800659179688,-77.9530029296875 136.03799438476562,-76.60099792480469 134.93600463867188,-75.94999694824219 C134.93600463867188,-75.94999694824219 142.22799682617188,-80.20800018310547 142.22799682617188,-80.20800018310547 C143.3300018310547,-80.85900115966797 143.9810028076172,-82.20999908447266 144.031005859375,-84.11299896240234 C144.031005859375,-84.11299896240234 144.13099670410156,-132.1300048828125 144.13099670410156,-132.1300048828125 C144.13099670410156,-135.98599243164062 141.427001953125,-140.69200134277344 138.07200622558594,-142.59500122070312z M56.44300079345703,-180.17799377441406 C57.24800109863281,-180.3209991455078 58.183998107910156,-180.18600463867188 59.207000732421875,-179.697998046875 C58.19300079345703,-180.1750030517578 57.25199890136719,-180.32200622558594 56.44300079345703,-180.17799377441406z"/></g></g></g><clipPath id="__lottie_element_67"><path fill="#ffffff" clip-rule="nonzero" d=" M-4.500999927520752,123.11699676513672 C-4.500999927520752,123.11699676513672 0.49900001287460327,186.572998046875 0.49900001287460327,186.572998046875 C0.49900001287460327,186.572998046875 114.62999725341797,146.447998046875 114.62999725341797,146.447998046875 C114.62999725341797,146.447998046875 6.755000114440918,116.61699676513672 6.755000114440918,116.61699676513672 C6.755000114440918,116.61699676513672 -4.500999927520752,123.11699676513672 -4.500999927520752,123.11699676513672" fill-opacity="1"/></clipPath><filter id="__lottie_element_75" filterUnits="objectBoundingBox" x="0%" y="0%" width="100%" height="100%"><feComponentTransfer in="SourceGraphic"><feFuncA type="table" tableValues="1.0 0.0"/></feComponentTransfer></filter><mask id="__lottie_element_60_2" mask-type="alpha"><g filter="url(#__lottie_element_75)"><rect width="512" height="512" x="0" y="0" fill="#ffffff" opacity="0"/><use xmlns:ns1="http://www.w3.org/1999/xlink" ns1:href="#__lottie_element_60"/></g></mask><mask id="__lottie_element_54_1" mask-type="alpha"><use xmlns:ns2="http://www.w3.org/1999/xlink" ns2:href="#__lottie_element_54"/></mask></defs><g clip-path="url(#__lottie_element_44)"><g transform="matrix(1,0,0,1,256,256)" opacity="1" style="display: block;"><g opacity="1" transform="matrix(1,0,0,1,0,0)"><path fill="rgb(227,231,240)" fill-opacity="1" d=" M46.97800064086914,47.334999084472656 C46.97800064086914,47.334999084472656 -48.32099914550781,102.71700286865234 -48.32099914550781,102.71700286865234 C-52.10499954223633,104.93699645996094 -58.25400161743164,104.93699645996094 -62.07500076293945,102.75399780273438 C-62.07500076293945,102.75399780273438 -158.02999877929688,47.334999084472656 -158.02999877929688,47.334999084472656 C-161.81399536132812,45.152000427246094 -161.81399536132812,41.58599853515625 -158.02999877929688,39.40299987792969 C-158.02999877929688,39.40299987792969 -153.77200317382812,36.928001403808594 -153.77200317382812,36.928001403808594 C-153.77200317382812,36.928001403808594 -63.2400016784668,89.21700286865234 -63.2400016784668,89.21700286865234 C-58.80099868774414,91.8010025024414 -51.70500183105469,91.72799682617188 -47.3380012512207,89.21700286865234 C-47.3380012512207,89.21700286865234 17.759000778198242,51.374000549316406 17.759000778198242,51.374000549316406 C17.759000778198242,51.374000549316406 29.29400062561035,44.67900085449219 29.29400062561035,44.67900085449219 C29.29400062561035,44.67900085449219 42.64799880981445,36.928001403808594 42.64799880981445,36.928001403808594 C42.64799880981445,36.928001403808594 46.94200134277344,39.40299987792969 46.94200134277344,39.40299987792969 C50.72600173950195,41.62300109863281 50.762001037597656,45.152000427246094 46.97800064086914,47.334999084472656z"/></g><g opacity="1" transform="matrix(1,0,0,1,0,0)"><path fill="rgb(227,231,240)" fill-opacity="1" d=" M58.54999923706055,102.06199645996094 C58.54999923706055,102.06199645996094 -47.52000045776367,163.7030029296875 -47.52000045776367,163.7030029296875 C-51.70500183105469,166.14100646972656 -58.582000732421875,166.14100646972656 -62.803001403808594,163.7030029296875 C-62.803001403808594,163.7030029296875 -169.6009979248047,102.06199645996094 -169.6009979248047,102.06199645996094 C-173.82200622558594,99.6240005493164 -173.82200622558594,95.62200164794922 -169.6009979248047,93.18399810791016 C-169.6009979248047,93.18399810791016 -164.21600341796875,90.05400085449219 -164.21600341796875,90.05400085449219 C-164.21600341796875,90.05400085449219 -63.2400016784668,148.3470001220703 -63.2400016784668,148.3470001220703 C-58.80099868774414,150.93099975585938 -51.70500183105469,150.85800170898438 -47.3380012512207,148.3470001220703 C-47.3380012512207,148.3470001220703 -17.136999130249023,130.77200317382812 -17.136999130249023,130.77200317382812 C-17.136999130249023,130.77200317382812 -6.51200008392334,124.58599853515625 -6.51200008392334,124.58599853515625 C-6.51200008392334,124.58599853515625 52.981998443603516,90.01799774169922 52.981998443603516,90.01799774169922 C52.981998443603516,90.01799774169922 58.51300048828125,93.22000122070312 58.51300048828125,93.22000122070312 C62.73400115966797,95.65799713134766 62.770999908447266,99.58799743652344 58.54999923706055,102.06199645996094z"/></g><g opacity="1" transform="matrix(1,0,0,1,0,0)"><g opacity="1" transform="matrix(1,0,0,1,0,0)"><g opacity="1" transform="matrix(1,0,0,1,0,0)"><path stroke-linecap="round" stroke-linejoin="round" fill-opacity="0" stroke="rgb(47,47,47)" stroke-opacity="1" stroke-width="1.819" d=" M-17.136999130249023,130.77200317382812 C-17.136999130249023,130.77200317382812 -47.3380012512207,148.3470001220703 -47.3380012512207,148.3470001220703 C-51.70500183105469,150.85800170898438 -58.80099868774414,150.93099975585938 -63.2400016784668,148.3470001220703 C-63.2400016784668,148.3470001220703 -164.21600341796875,90.05400085449219 -164.21600341796875,90.05400085449219 C-164.21600341796875,90.05400085449219 -174.14999389648438,84.30500030517578 -174.14999389648438,84.30500030517578 C-176.33299255371094,83.06800079345703 -177.46099853515625,81.35800170898438 -177.46099853515625,79.68399810791016 C-177.46099853515625,79.68399810791016 -177.2790069580078,43.36899948120117 -177.2790069580078,43.36899948120117 C-177.2790069580078,45.042999267578125 -176.22300720214844,46.75299835205078 -174.0399932861328,47.9900016784668 C-174.0399932861328,47.9900016784668 -132.81300354003906,71.78800201416016 -132.81300354003906,71.78800201416016 C-132.81300354003906,71.78800201416016 -63.13100051879883,112.03299713134766 -63.13100051879883,112.03299713134766 C-58.69200134277344,114.61599731445312 -51.560001373291016,114.54399871826172 -47.15700149536133,112.03299713134766 C-47.15700149536133,112.03299713134766 21.725000381469727,71.97000122070312 21.725000381469727,71.97000122070312 C21.725000381469727,71.97000122070312 62.95199966430664,47.9900016784668 62.95199966430664,47.9900016784668 C65.13500213623047,46.75299835205078 66.22699737548828,45.042999267578125 66.22699737548828,43.44200134277344 C66.22699737548828,43.44200134277344 66.11799621582031,79.75700378417969 66.11799621582031,79.75700378417969 C66.11799621582031,81.43099975585938 65.0260009765625,83.06800079345703 62.84299850463867,84.30500030517578 C62.84299850463867,84.30500030517578 52.981998443603516,90.01799774169922 52.981998443603516,90.01799774169922 C52.981998443603516,90.01799774169922 -6.51200008392334,124.58599853515625 -6.51200008392334,124.58599853515625"/></g></g></g><g opacity="1" transform="matrix(1,0,0,1,0,0)"><path fill="rgb(255,255,255)" fill-opacity="1" d=" M-47.15700149536133,52.90299987792969 C-51.560001373291016,55.41400146484375 -58.69200134277344,55.486000061035156 -63.13100051879883,52.90299987792969 C-57.86000061035156,55.45000076293945 -52.53499984741211,55.45000076293945 -47.15700149536133,52.90299987792969z"/><path stroke-linecap="round" stroke-linejoin="round" fill-opacity="0" stroke="rgb(47,47,47)" stroke-opacity="1" stroke-width="1.819" d=" M-47.15700149536133,52.90299987792969 C-51.560001373291016,55.41400146484375 -58.69200134277344,55.486000061035156 -63.13100051879883,52.90299987792969 C-57.86000061035156,55.45000076293945 -52.53499984741211,55.45000076293945 -47.15700149536133,52.90299987792969z"/></g><g opacity="1" transform="matrix(1,0,0,1,0,0)"><path stroke-linecap="round" stroke-linejoin="round" fill-opacity="0" stroke="rgb(47,47,47)" stroke-opacity="1" stroke-width="1.819" d=" M29.29400062561035,44.67900085449219 C29.29400062561035,44.67900085449219 51.09000015258789,32.01599884033203 51.09000015258789,32.01599884033203 C51.09000015258789,32.01599884033203 62.91600036621094,38.82099914550781 62.91600036621094,38.82099914550781 C67.31900024414062,41.36800003051758 67.3550033569336,45.44300079345703 62.95199966430664,47.9900016784668 C62.95199966430664,47.9900016784668 -47.19300079345703,112.03299713134766 -47.19300079345703,112.03299713134766 C-51.560001373291016,114.54399871826172 -58.691001892089844,114.58000183105469 -63.09400177001953,112.03299713134766 C-63.09400177001953,112.03299713134766 -174.00399780273438,47.9900016784668 -174.00399780273438,47.9900016784668 C-178.37100219726562,45.479000091552734 -178.40699768066406,41.33100128173828 -174.0399932861328,38.784000396728516 C-174.0399932861328,38.784000396728516 -162.36000061035156,31.979999542236328 -162.36000061035156,31.979999542236328 C-162.36000061035156,31.979999542236328 -63.2400016784668,89.21700286865234 -63.2400016784668,89.21700286865234 C-58.80099868774414,91.8010025024414 -51.70500183105469,91.72799682617188 -47.3380012512207,89.21700286865234 C-47.3380012512207,89.21700286865234 17.759000778198242,51.374000549316406 17.759000778198242,51.374000549316406"/></g><g opacity="1" transform="matrix(1,0,0,1,0,0)"><g opacity="1" transform="matrix(1,0,0,1,0,0)"><g opacity="1" transform="matrix(1,0,0,1,0,0)"><path stroke-linecap="round" stroke-linejoin="round" fill-opacity="0" stroke="rgb(47,47,47)" stroke-opacity="1" stroke-width="1.819" d=" M17.759000778198242,51.374000549316406 C17.759000778198242,51.374000549316406 -47.3380012512207,89.21700286865234 -47.3380012512207,89.21700286865234 C-51.70500183105469,91.72799682617188 -58.80099868774414,91.8010025024414 -63.2400016784668,89.21700286865234 C-63.2400016784668,89.21700286865234 -153.77200317382812,36.928001403808594 -153.77200317382812,36.928001403808594 C-153.77200317382812,36.928001403808594 -162.36000061035156,31.979999542236328 -162.36000061035156,31.979999542236328 C-162.36000061035156,31.979999542236328 -174.14999389648438,25.174999237060547 -174.14999389648438,25.174999237060547 C-176.33299255371094,23.937999725341797 -177.46099853515625,22.263999938964844 -177.46099853515625,20.554000854492188 C-177.46099853515625,20.554000854492188 -177.2790069580078,-15.76099967956543 -177.2790069580078,-15.76099967956543 C-177.2790069580078,-14.050999641418457 -176.22300720214844,-12.376999855041504 -174.0399932861328,-11.140000343322754 C-153.2259979248047,0.8679999709129333 -136.23300170898438,10.692999839782715 -122.40599822998047,18.697999954223633 C-83.25299835205078,41.257999420166016 -69.27999877929688,49.33700180053711 -64.87699890136719,51.88399887084961 C-64.84100341796875,51.91999816894531 -64.76799774169922,51.91999816894531 -64.73200225830078,51.99300003051758 C-64.69599914550781,51.99300003051758 -64.69499969482422,51.99300003051758 -64.65899658203125,52.02899932861328 C-64.65899658203125,52.02899932861328 -64.62300109863281,52.02899932861328 -64.62300109863281,52.02899932861328 C-64.58699798583984,52.02899932861328 -64.58599853515625,52.066001892089844 -64.55000305175781,52.10200119018555 C-64.33200073242188,52.21099853515625 -64.04000091552734,52.393001556396484 -63.63999938964844,52.611000061035156 C-63.604000091552734,52.611000061035156 -63.604000091552734,52.64799880981445 -63.604000091552734,52.64799880981445 C-63.56800079345703,52.64799880981445 -63.53099822998047,52.683998107910156 -63.494998931884766,52.683998107910156 C-63.45899963378906,52.683998107910156 -63.422000885009766,52.72100067138672 -63.38600158691406,52.75699996948242 C-63.349998474121094,52.75699996948242 -63.3120002746582,52.792999267578125 -63.2760009765625,52.792999267578125 C-63.2400016784668,52.82899856567383 -63.202999114990234,52.86600112915039 -63.16699981689453,52.86600112915039 C-63.16699981689453,52.902000427246094 -63.13100051879883,52.90299987792969 -63.13100051879883,52.90299987792969 C-58.69200134277344,55.486000061035156 -51.560001373291016,55.41400146484375 -47.15700149536133,52.90299987792969 C-47.08399963378906,52.867000579833984 -46.974998474121094,52.792999267578125 -46.902000427246094,52.75699996948242 C-46.86600112915039,52.72100067138672 -46.82899856567383,52.720001220703125 -46.792999267578125,52.683998107910156 C-46.75699996948242,52.683998107910156 -46.720001220703125,52.64799880981445 -46.683998107910156,52.64799880981445 C-46.683998107910156,52.64799880981445 -46.64699935913086,52.57500076293945 -46.611000061035156,52.57500076293945 C-46.53799819946289,52.53900146484375 -46.42900085449219,52.50299835205078 -46.35599899291992,52.43000030517578 C-46.13800048828125,52.32099914550781 -45.95600128173828,52.21099853515625 -45.84700012207031,52.13800048828125 C-45.84700012207031,52.13800048828125 -45.810001373291016,52.10200119018555 -45.810001373291016,52.10200119018555 C-45.70100021362305,52.066001892089844 -45.62799835205078,52.02899932861328 -45.59199905395508,51.99300003051758 C-45.483001708984375,51.91999816894531 -45.40999984741211,51.88399887084961 -45.40999984741211,51.88399887084961 C-45.374000549316406,51.847999572753906 -45.374000549316406,51.84700012207031 -45.374000549316406,51.84700012207031 C-40.97100067138672,49.29999923706055 -27.14299964904785,41.257999420166016 11.354999542236328,18.8799991607666 C25.145999908447266,10.838000297546387 42.10200119018555,0.9769999980926514 62.95199966430664,-11.140000343322754 C65.13500213623047,-12.376999855041504 66.22699737548828,-14.050999641418457 66.22699737548828,-15.687999725341797 C66.22699737548828,-15.687999725341797 66.11799621582031,20.62700080871582 66.11799621582031,20.62700080871582 C66.11799621582031,22.301000595092773 65.0260009765625,23.937999725341797 62.84299850463867,25.174999237060547 C62.84299850463867,25.174999237060547 51.09000015258789,32.01599884033203 51.09000015258789,32.01599884033203 C51.09000015258789,32.01599884033203 42.64799880981445,36.928001403808594 42.64799880981445,36.928001403808594 C42.64799880981445,36.928001403808594 29.29400062561035,44.67900085449219 29.29400062561035,44.67900085449219"/></g></g></g><g opacity="1" transform="matrix(1,0,0,1,0,0)"><path stroke-linecap="round" stroke-linejoin="round" fill-opacity="0" stroke="rgb(47,47,47)" stroke-opacity="1" stroke-width="1.819" d=" M62.95199966430664,-11.140000343322754 C62.95199966430664,-11.140000343322754 -47.19300079345703,52.90299987792969 -47.19300079345703,52.90299987792969 C-51.560001373291016,55.45000076293945 -58.691001892089844,55.45000076293945 -63.09400177001953,52.90299987792969 C-63.09400177001953,52.90299987792969 -174.00399780273438,-11.140000343322754 -174.00399780273438,-11.140000343322754 C-178.37100219726562,-13.651000022888184 -178.40699768066406,-17.798999786376953 -174.0399932861328,-20.34600067138672 C-174.0399932861328,-20.34600067138672 -162.32400512695312,-27.149999618530273 -162.32400512695312,-27.149999618530273 C-162.32400512695312,-27.149999618530273 -155.8459930419922,-23.402000427246094 -155.8459930419922,-23.402000427246094 C-155.8459930419922,-23.402000427246094 -63.2400016784668,30.086999893188477 -63.2400016784668,30.086999893188477 C-58.80099868774414,32.67100143432617 -51.70500183105469,32.63399887084961 -47.3380012512207,30.086999893188477 C-47.3380012512207,30.086999893188477 44.72200012207031,-23.402000427246094 44.72200012207031,-23.402000427246094 C44.72200012207031,-23.402000427246094 51.12699890136719,-27.11400032043457 51.12699890136719,-27.11400032043457 C51.12699890136719,-27.11400032043457 62.91600036621094,-20.30900001525879 62.91600036621094,-20.30900001525879 C67.31900024414062,-17.761999130249023 67.3550033569336,-13.687000274658203 62.95199966430664,-11.140000343322754z"/></g><g opacity="1" transform="matrix(1,0,0,1,0,0)"><path fill="rgb(227,231,240)" fill-opacity="1" d=" M46.97800064086914,-14.15999984741211 C46.97800064086914,-14.15999984741211 -48.32099914550781,41.22200012207031 -48.32099914550781,41.22200012207031 C-52.10499954223633,43.404998779296875 -58.25400161743164,43.44200134277344 -62.07500076293945,41.22200012207031 C-62.07500076293945,41.22200012207031 -158.02999877929688,-14.15999984741211 -158.02999877929688,-14.15999984741211 C-161.81399536132812,-16.343000411987305 -161.81399536132812,-19.909000396728516 -158.02999877929688,-22.128999710083008 C-158.02999877929688,-22.128999710083008 -155.8459930419922,-23.402000427246094 -155.8459930419922,-23.402000427246094 C-155.8459930419922,-23.402000427246094 -63.2400016784668,30.086999893188477 -63.2400016784668,30.086999893188477 C-58.80099868774414,32.67100143432617 -51.70500183105469,32.63399887084961 -47.3380012512207,30.086999893188477 C-47.3380012512207,30.086999893188477 44.72200012207031,-23.402000427246094 44.72200012207031,-23.402000427246094 C44.72200012207031,-23.402000427246094 46.94200134277344,-22.128999710083008 46.94200134277344,-22.128999710083008 C50.72600173950195,-19.909000396728516 50.762001037597656,-16.3799991607666 46.97800064086914,-14.15999984741211z"/></g><g opacity="1" transform="matrix(1,0,0,1,0,0)"><path fill="rgb(255,255,255)" fill-opacity="1" d=" M-177.2790069580078,-74.85399627685547 C-177.2790069580078,-74.80999755859375 -177.26199340820312,-74.77300262451172 -177.25999450683594,-74.7300033569336 C-177.2570037841797,-74.5770034790039 -177.3000030517578,-74.42500305175781 -177.2790069580078,-74.27200317382812 C-177.2790069580078,-74.27200317382812 -177.2790069580078,-74.85399627685547 -177.2790069580078,-74.85399627685547z"/><path stroke-linecap="round" stroke-linejoin="round" fill-opacity="0" stroke="rgb(47,47,47)" stroke-opacity="1" stroke-width="1.819" d=" M-177.2790069580078,-74.85399627685547 C-177.2790069580078,-74.80999755859375 -177.26199340820312,-74.77300262451172 -177.25999450683594,-74.7300033569336 C-177.2570037841797,-74.5770034790039 -177.3000030517578,-74.42500305175781 -177.2790069580078,-74.27200317382812 C-177.2790069580078,-74.27200317382812 -177.2790069580078,-74.85399627685547 -177.2790069580078,-74.85399627685547z"/></g><g opacity="1" transform="matrix(1,0,0,1,0,0)"><path fill="rgb(255,255,255)" fill-opacity="1" d=" M-177.0970001220703,-73.61699676513672 C-177.1699981689453,-73.79900360107422 -177.2429962158203,-74.01799774169922 -177.2790069580078,-74.23600006103516 C-177.2790069580078,-74.23600006103516 -177.2790069580078,-74.23600006103516 -177.2790069580078,-74.27200317382812 C-177.2790069580078,-74.27200317382812 -177.2790069580078,-74.85399627685547 -177.2790069580078,-74.85399627685547 C-177.2790069580078,-74.74500274658203 -177.2779998779297,-74.63600158691406 -177.24200439453125,-74.5270004272461 C-177.24200439453125,-74.38099670410156 -177.24200439453125,-74.27200317382812 -177.20599365234375,-74.16300201416016 C-177.1699981689453,-73.98100280761719 -177.13299560546875,-73.79900360107422 -177.0970001220703,-73.61699676513672z"/><path stroke-linecap="round" stroke-linejoin="round" fill-opacity="0" stroke="rgb(47,47,47)" stroke-opacity="1" stroke-width="1.819" d=" M-177.0970001220703,-73.61699676513672 C-177.1699981689453,-73.79900360107422 -177.2429962158203,-74.01799774169922 -177.2790069580078,-74.23600006103516 C-177.2790069580078,-74.23600006103516 -177.2790069580078,-74.23600006103516 -177.2790069580078,-74.27200317382812 C-177.2790069580078,-74.27200317382812 -177.2790069580078,-74.85399627685547 -177.2790069580078,-74.85399627685547 C-177.2790069580078,-74.74500274658203 -177.2779998779297,-74.63600158691406 -177.24200439453125,-74.5270004272461 C-177.24200439453125,-74.38099670410156 -177.24200439453125,-74.27200317382812 -177.20599365234375,-74.16300201416016 C-177.1699981689453,-73.98100280761719 -177.13299560546875,-73.79900360107422 -177.0970001220703,-73.61699676513672z"/></g><g opacity="1" transform="matrix(1,0,0,1,0,0)"><path fill="rgb(47,47,47)" fill-opacity="1" d=" M-72.56500244140625,8.491999626159668 C-72.56500244140625,8.491999626159668 -115.2770004272461,-16.17099952697754 -115.2770004272461,-16.17099952697754"/><path stroke-linecap="round" stroke-linejoin="round" fill-opacity="0" stroke="rgb(46,88,255)" stroke-opacity="1" stroke-width="1.819" d=" M-72.56500244140625,8.491999626159668 C-72.56500244140625,8.491999626159668 -115.2770004272461,-16.17099952697754 -115.2770004272461,-16.17099952697754"/></g><g opacity="1" transform="matrix(1,0,0,1,0,0)"><path fill="rgb(47,47,47)" fill-opacity="1" d=" M-72.56500244140625,67.54299926757812 C-72.56500244140625,67.54299926757812 -115.2770004272461,42.880001068115234 -115.2770004272461,42.880001068115234"/><path stroke-linecap="round" stroke-linejoin="round" fill-opacity="0" stroke="rgb(46,88,255)" stroke-opacity="1" stroke-width="1.819" d=" M-72.56500244140625,67.54299926757812 C-72.56500244140625,67.54299926757812 -115.2770004272461,42.880001068115234 -115.2770004272461,42.880001068115234"/></g><g opacity="0.8664000000000022" transform="matrix(1,0,0,1,0,0)"><g opacity="1" transform="matrix(1,0,0,1,0,0)"><g opacity="1" transform="matrix(1,0,0,1,0,0)"><path fill="rgb(255,52,43)" fill-opacity="1" d=" M-164.27999877929688,-51.10499954223633 C-161.51100158691406,-49.50600051879883 -159.23399353027344,-45.56100082397461 -159.2429962158203,-42.32899856567383 C-159.2519989013672,-39.09700012207031 -161.54400634765625,-37.84000015258789 -164.31300354003906,-39.43899917602539 C-167.1699981689453,-41.0880012512207 -169.4040069580078,-44.95800018310547 -169.39500427246094,-48.189998626708984 C-169.38600158691406,-51.422000885009766 -167.13699340820312,-52.75400161743164 -164.27999877929688,-51.10499954223633z"/></g></g><g opacity="1" transform="matrix(1,0,0,1,0,0)"><g opacity="1" transform="matrix(1,0,0,1,0,0)"><path fill="rgb(255,52,43)" fill-opacity="1" d=" M-131.6699981689453,-32.27799987792969 C-128.85699462890625,-30.65399932861328 -126.58000183105469,-26.70800018310547 -126.58899688720703,-23.47599983215332 C-126.5979995727539,-20.243999481201172 -128.88999938964844,-18.988000869750977 -131.7030029296875,-20.61199951171875 C-134.51600646972656,-22.236000061035156 -136.75,-26.106000900268555 -136.74099731445312,-29.33799934387207 C-136.73199462890625,-32.56999969482422 -134.48300170898438,-33.902000427246094 -131.6699981689453,-32.27799987792969z"/></g></g><g opacity="1" transform="matrix(1,0,0,1,0,0)"><g opacity="1" transform="matrix(1,0,0,1,0,0)"><path fill="rgb(255,52,43)" fill-opacity="1" d=" M-147.97500610351562,17.360000610351562 C-145.20599365234375,18.958999633789062 -142.88499450683594,22.929000854492188 -142.8939971923828,26.160999298095703 C-142.9029998779297,29.39299964904785 -145.23899841308594,30.625 -148.00799560546875,29.025999069213867 C-150.8209991455078,27.402000427246094 -153.0989990234375,23.506999969482422 -153.08999633789062,20.274999618530273 C-153.08099365234375,17.042999267578125 -150.78799438476562,15.736000061035156 -147.97500610351562,17.360000610351562z"/></g></g><g opacity="1" transform="matrix(1,0,0,1,0,0)"><g opacity="1" transform="matrix(1,0,0,1,0,0)"><path fill="rgb(255,52,43)" fill-opacity="1" d=" M-131.6699981689453,26.77400016784668 C-128.85699462890625,28.398000717163086 -126.58000183105469,32.34299850463867 -126.58899688720703,35.57500076293945 C-126.5979995727539,38.80699920654297 -128.88999938964844,40.0629997253418 -131.7030029296875,38.43899917602539 C-134.51600646972656,36.814998626708984 -136.75,32.94599914550781 -136.74099731445312,29.714000701904297 C-136.73199462890625,26.48200035095215 -134.48300170898438,25.149999618530273 -131.6699981689453,26.77400016784668z"/></g></g><g opacity="1" transform="matrix(1,0,0,1,0,0)"><g opacity="1" transform="matrix(1,0,0,1,0,0)"><path fill="rgb(255,52,43)" fill-opacity="1" d=" M-147.97500610351562,75.68900299072266 C-145.20599365234375,77.28800201416016 -142.88499450683594,81.25900268554688 -142.8939971923828,84.49099731445312 C-142.9029998779297,87.7229995727539 -145.23899841308594,88.9540023803711 -148.00799560546875,87.3550033569336 C-150.8209991455078,85.73100280761719 -153.0989990234375,81.83599853515625 -153.08999633789062,78.60399627685547 C-153.08099365234375,75.37200164794922 -150.78799438476562,74.06500244140625 -147.97500610351562,75.68900299072266z"/></g></g></g><g opacity="0.33359999999999784" transform="matrix(1,0,0,1,0,0)"><g opacity="1" transform="matrix(1,0,0,1,0,0)"><g opacity="1" transform="matrix(1,0,0,1,0,0)"><path fill="rgb(255,52,43)" fill-opacity="1" d=" M-147.97500610351562,-41.691001892089844 C-145.20599365234375,-40.09199905395508 -142.88499450683594,-36.12200164794922 -142.8939971923828,-32.88999938964844 C-142.9029998779297,-29.658000946044922 -145.23899841308594,-28.427000045776367 -148.00799560546875,-30.025999069213867 C-150.8209991455078,-31.649999618530273 -153.0989990234375,-35.54499816894531 -153.08999633789062,-38.777000427246094 C-153.08099365234375,-42.00899887084961 -150.78799438476562,-43.314998626708984 -147.97500610351562,-41.691001892089844z"/></g></g><g opacity="1" transform="matrix(1,0,0,1,0,0)"><g opacity="1" transform="matrix(1,0,0,1,0,0)"><path fill="rgb(255,52,43)" fill-opacity="1" d=" M-164.27999877929688,7.946000099182129 C-161.51100158691406,9.545000076293945 -159.23399353027344,13.489999771118164 -159.2429962158203,16.722000122070312 C-159.2519989013672,19.95400047302246 -161.54400634765625,21.211000442504883 -164.31300354003906,19.61199951171875 C-167.1699981689453,17.96299934387207 -169.4040069580078,14.093000411987305 -169.39500427246094,10.861000061035156 C-169.38600158691406,7.629000186920166 -167.13699340820312,6.296999931335449 -164.27999877929688,7.946000099182129z"/></g></g><g opacity="1" transform="matrix(1,0,0,1,0,0)"><g opacity="1" transform="matrix(1,0,0,1,0,0)"><path fill="rgb(255,52,43)" fill-opacity="1" d=" M-164.27999877929688,66.2760009765625 C-161.51100158691406,67.875 -159.23399353027344,71.81999969482422 -159.2429962158203,75.052001953125 C-159.2519989013672,78.28399658203125 -161.54400634765625,79.54000091552734 -164.31300354003906,77.94100189208984 C-167.1699981689453,76.29199981689453 -169.4040069580078,72.4219970703125 -169.39500427246094,69.19000244140625 C-169.38600158691406,65.95800018310547 -167.13699340820312,64.62699890136719 -164.27999877929688,66.2760009765625z"/></g></g><g opacity="1" transform="matrix(1,0,0,1,0,0)"><g opacity="1" transform="matrix(1,0,0,1,0,0)"><path fill="rgb(255,52,43)" fill-opacity="1" d=" M-131.6699981689453,85.10299682617188 C-128.85699462890625,86.72699737548828 -126.58000183105469,90.6719970703125 -126.58899688720703,93.90399932861328 C-126.5979995727539,97.13600158691406 -128.88999938964844,98.39199829101562 -131.7030029296875,96.76799774169922 C-134.51600646972656,95.14399719238281 -136.75,91.2750015258789 -136.74099731445312,88.04299926757812 C-136.73199462890625,84.81099700927734 -134.48300170898438,83.47899627685547 -131.6699981689453,85.10299682617188z"/></g></g></g><g opacity="1" transform="matrix(1,0,0,1,0,0)"><path fill="rgb(47,47,47)" fill-opacity="1" d=" M-72.56500244140625,125.87200164794922 C-72.56500244140625,125.87200164794922 -115.2770004272461,101.20899963378906 -115.2770004272461,101.20899963378906"/><path stroke-linecap="round" stroke-linejoin="round" fill-opacity="0" stroke="rgb(46,88,255)" stroke-opacity="1" stroke-width="1.819" d=" M-72.56500244140625,125.87200164794922 C-72.56500244140625,125.87200164794922 -115.2770004272461,101.20899963378906 -115.2770004272461,101.20899963378906"/></g><g opacity="1" transform="matrix(1,0,0,1,0,0)"><g opacity="1" transform="matrix(1,0,0,1,0,0)"><g opacity="1" transform="matrix(1,0,0,1,0,0)"><g opacity="1" transform="matrix(1,0,0,1,0,0)"><path stroke-linecap="round" stroke-linejoin="round" fill-opacity="0" stroke="rgb(47,47,47)" stroke-opacity="1" stroke-width="1.819" d=" M66.22699737548828,-74.81800079345703 C66.22699737548828,-74.81800079345703 66.11799621582031,-38.50299835205078 66.11799621582031,-38.50299835205078 C66.11799621582031,-36.82899856567383 65.0260009765625,-35.19200134277344 62.84299850463867,-33.95500183105469 C62.84299850463867,-33.95500183105469 51.12699890136719,-27.11400032043457 51.12699890136719,-27.11400032043457 C51.12699890136719,-27.11400032043457 44.72200012207031,-23.402000427246094 44.72200012207031,-23.402000427246094 C44.72200012207031,-23.402000427246094 -47.3380012512207,30.086999893188477 -47.3380012512207,30.086999893188477 C-51.70500183105469,32.63399887084961 -58.80099868774414,32.67100143432617 -63.2400016784668,30.086999893188477 C-63.2400016784668,30.086999893188477 -155.8459930419922,-23.402000427246094 -155.8459930419922,-23.402000427246094 C-155.8459930419922,-23.402000427246094 -162.32400512695312,-27.149999618530273 -162.32400512695312,-27.149999618530273 C-162.32400512695312,-27.149999618530273 -174.14999389648438,-33.95500183105469 -174.14999389648438,-33.95500183105469 C-176.33299255371094,-35.19200134277344 -177.46099853515625,-36.86600112915039 -177.46099853515625,-38.540000915527344 C-177.46099853515625,-38.540000915527344 -177.2790069580078,-74.23600006103516 -177.2790069580078,-74.23600006103516 C-177.2429962158203,-74.01799774169922 -177.1699981689453,-73.79900360107422 -177.0970001220703,-73.61699676513672 C-176.87899780273438,-72.99800109863281 -176.51400756835938,-72.37999725341797 -176.0050048828125,-71.7979965209961 C-175.75,-71.50700378417969 -175.45899963378906,-71.25199890136719 -175.09500122070312,-70.96099853515625 C-174.76800537109375,-70.70600128173828 -174.4040069580078,-70.45099639892578 -174.00399780273438,-70.23300170898438 C-174.00399780273438,-70.23300170898438 -130.95700073242188,-45.38100051879883 -130.95700073242188,-45.38100051879883 C-130.95700073242188,-45.38100051879883 -63.09400177001953,-6.190999984741211 -63.09400177001953,-6.190999984741211 C-58.691001892089844,-3.680000066757202 -51.560001373291016,-3.680000066757202 -47.19300079345703,-6.2270002365112305 C-47.19300079345703,-6.2270002365112305 19.83300018310547,-45.19900131225586 19.83300018310547,-45.19900131225586 C19.83300018310547,-45.19900131225586 62.95199966430664,-70.23300170898438 62.95199966430664,-70.23300170898438 C63.06100082397461,-70.30599975585938 63.20800018310547,-70.37899780273438 63.35300064086914,-70.48799896240234 C63.49800109863281,-70.59700012207031 63.608001708984375,-70.66999816894531 63.71699905395508,-70.74299621582031 C64.19000244140625,-71.07099914550781 64.58999633789062,-71.43399810791016 64.9540023803711,-71.83399963378906 C65.8270034790039,-72.77999877929688 66.22699737548828,-73.79900360107422 66.22699737548828,-74.81800079345703z"/></g><g opacity="1" transform="matrix(1,0,0,1,0,0)"><path fill="rgb(255,255,255)" fill-opacity="1" d=" M-177.0970001220703,-73.61699676513672 C-177.1699981689453,-73.79900360107422 -177.2429962158203,-74.01799774169922 -177.2790069580078,-74.23600006103516 C-177.2790069580078,-74.23600006103516 -177.2790069580078,-74.23600006103516 -177.2790069580078,-74.27200317382812 C-177.2790069580078,-74.27200317382812 -177.2790069580078,-74.85399627685547 -177.2790069580078,-74.85399627685547 C-177.2790069580078,-74.78099822998047 -177.2779998779297,-74.70899963378906 -177.24200439453125,-74.63600158691406 C-177.24200439453125,-74.63600158691406 -177.24200439453125,-74.5270004272461 -177.24200439453125,-74.5270004272461 C-177.24200439453125,-74.41799926757812 -177.24200439453125,-74.27200317382812 -177.20599365234375,-74.16300201416016 C-177.1699981689453,-73.98100280761719 -177.13299560546875,-73.79900360107422 -177.0970001220703,-73.61699676513672z"/><path stroke-linecap="round" stroke-linejoin="round" fill-opacity="0" stroke="rgb(47,47,47)" stroke-opacity="1" stroke-width="1.819" d=" M-177.0970001220703,-73.61699676513672 C-177.1699981689453,-73.79900360107422 -177.2429962158203,-74.01799774169922 -177.2790069580078,-74.23600006103516 C-177.2790069580078,-74.23600006103516 -177.2790069580078,-74.23600006103516 -177.2790069580078,-74.27200317382812 C-177.2790069580078,-74.27200317382812 -177.2790069580078,-74.85399627685547 -177.2790069580078,-74.85399627685547 C-177.2790069580078,-74.78099822998047 -177.2779998779297,-74.70899963378906 -177.24200439453125,-74.63600158691406 C-177.24200439453125,-74.63600158691406 -177.24200439453125,-74.5270004272461 -177.24200439453125,-74.5270004272461 C-177.24200439453125,-74.41799926757812 -177.24200439453125,-74.27200317382812 -177.20599365234375,-74.16300201416016 C-177.1699981689453,-73.98100280761719 -177.13299560546875,-73.79900360107422 -177.0970001220703,-73.61699676513672z"/></g><g opacity="1" transform="matrix(1,0,0,1,0,0)"><path fill="rgb(255,255,255)" fill-opacity="1" d=" M63.35300064086914,-70.48799896240234 C63.20800018310547,-70.37899780273438 63.06100082397461,-70.30599975585938 62.95199966430664,-70.23300170898438 C62.95199966430664,-70.23300170898438 19.83300018310547,-45.19900131225586 19.83300018310547,-45.19900131225586 C19.83300018310547,-45.19900131225586 62.95199966430664,-70.2699966430664 62.95199966430664,-70.2699966430664 C63.06100082397461,-70.34300231933594 63.20800018310547,-70.41500091552734 63.35300064086914,-70.48799896240234z"/><path stroke-linecap="round" stroke-linejoin="round" fill-opacity="0" stroke="rgb(47,47,47)" stroke-opacity="1" stroke-width="1.819" d=" M63.35300064086914,-70.48799896240234 C63.20800018310547,-70.37899780273438 63.06100082397461,-70.30599975585938 62.95199966430664,-70.23300170898438 C62.95199966430664,-70.23300170898438 19.83300018310547,-45.19900131225586 19.83300018310547,-45.19900131225586 C19.83300018310547,-45.19900131225586 62.95199966430664,-70.2699966430664 62.95199966430664,-70.2699966430664 C63.06100082397461,-70.34300231933594 63.20800018310547,-70.41500091552734 63.35300064086914,-70.48799896240234z"/></g></g></g><g opacity="1" transform="matrix(1,0,0,1,0,0)"><path stroke-linecap="round" stroke-linejoin="round" fill-opacity="0" stroke="rgb(47,47,47)" stroke-opacity="1" stroke-width="1.819" d=" M24.054000854492188,-101.85399627685547 C24.054000854492188,-101.85399627685547 62.91600036621094,-79.43900299072266 62.91600036621094,-79.43900299072266 C65.13600158691406,-78.16600036621094 66.22699737548828,-76.49199676513672 66.22699737548828,-74.81800079345703 C66.22699737548828,-73.79900360107422 65.8270034790039,-72.77999877929688 64.9540023803711,-71.83399963378906 C64.58999633789062,-71.43399810791016 64.19000244140625,-71.07099914550781 63.71699905395508,-70.74299621582031 C63.608001708984375,-70.66999816894531 63.49800109863281,-70.59700012207031 63.35300064086914,-70.48799896240234 C63.20800018310547,-70.41500091552734 63.06100082397461,-70.34300231933594 62.95199966430664,-70.2699966430664 C62.95199966430664,-70.2699966430664 19.83300018310547,-45.19900131225586 19.83300018310547,-45.19900131225586 C19.83300018310547,-45.19900131225586 -47.19300079345703,-6.2270002365112305 -47.19300079345703,-6.2270002365112305 C-51.560001373291016,-3.680000066757202 -58.691001892089844,-3.680000066757202 -63.09400177001953,-6.190999984741211 C-63.09400177001953,-6.190999984741211 -130.95700073242188,-45.38100051879883 -130.95700073242188,-45.38100051879883 C-130.95700073242188,-45.38100051879883 -174.00399780273438,-70.23300170898438 -174.00399780273438,-70.23300170898438 C-174.4040069580078,-70.45099639892578 -174.76800537109375,-70.70600128173828 -175.09500122070312,-70.96099853515625 C-175.45899963378906,-71.25199890136719 -175.75,-71.50700378417969 -176.0050048828125,-71.7979965209961 C-176.51400756835938,-72.37999725341797 -176.87899780273438,-72.99800109863281 -177.0970001220703,-73.61699676513672 C-177.13299560546875,-73.79900360107422 -177.1699981689453,-73.98100280761719 -177.20599365234375,-74.16300201416016 C-177.24200439453125,-74.27200317382812 -177.24200439453125,-74.41799926757812 -177.24200439453125,-74.5270004272461 C-177.24200439453125,-74.5270004272461 -177.24200439453125,-74.74500274658203 -177.24200439453125,-74.74500274658203 C-177.2779998779297,-76.41899871826172 -176.25999450683594,-78.12899780273438 -174.0399932861328,-79.43900299072266 C-174.0399932861328,-79.43900299072266 -63.85900115966797,-143.4810028076172 -63.85900115966797,-143.4810028076172 C-59.492000579833984,-146.0279998779297 -52.36000061035156,-145.99200439453125 -47.99300003051758,-143.4810028076172 C-47.99300003051758,-143.4810028076172 4.296000003814697,-113.27999877929688 4.296000003814697,-113.27999877929688"/></g><g opacity="1" transform="matrix(1,0,0,1,0,0)"><path fill="rgb(255,255,255)" fill-opacity="1" d=" M63.35300064086914,-70.48799896240234 C63.20800018310547,-70.37899780273438 63.06100082397461,-70.30599975585938 62.95199966430664,-70.23300170898438 C62.95199966430664,-70.23300170898438 19.83300018310547,-45.19900131225586 19.83300018310547,-45.19900131225586 C19.83300018310547,-45.19900131225586 62.95199966430664,-70.2699966430664 62.95199966430664,-70.2699966430664 C63.06100082397461,-70.34300231933594 63.20800018310547,-70.41500091552734 63.35300064086914,-70.48799896240234z"/><path stroke-linecap="round" stroke-linejoin="round" fill-opacity="0" stroke="rgb(47,47,47)" stroke-opacity="1" stroke-width="1.819" d=" M63.35300064086914,-70.48799896240234 C63.20800018310547,-70.37899780273438 63.06100082397461,-70.30599975585938 62.95199966430664,-70.23300170898438 C62.95199966430664,-70.23300170898438 19.83300018310547,-45.19900131225586 19.83300018310547,-45.19900131225586 C19.83300018310547,-45.19900131225586 62.95199966430664,-70.2699966430664 62.95199966430664,-70.2699966430664 C63.06100082397461,-70.34300231933594 63.20800018310547,-70.41500091552734 63.35300064086914,-70.48799896240234z"/></g><g opacity="1" transform="matrix(1,0,0,1,0,0)"><path fill="rgb(47,47,47)" fill-opacity="1" d=" M13.611000061035156,-72.16200256347656 C13.611000061035156,-72.16200256347656 9.935999870300293,-70.01499938964844 9.935999870300293,-70.01499938964844 C9.935999870300293,-70.01499938964844 -51.12300109863281,-105.27400207519531 -51.12300109863281,-105.27400207519531 C-53.70600128173828,-106.7300033569336 -57.81800079345703,-106.76599884033203 -60.402000427246094,-105.27400207519531 C-60.402000427246094,-105.27400207519531 -120.98699951171875,-70.01499938964844 -120.98699951171875,-70.01499938964844 C-120.98699951171875,-70.01499938964844 -124.66200256347656,-72.16200256347656 -124.66200256347656,-72.16200256347656 C-127.20899963378906,-73.61799621582031 -127.20899963378906,-76.05500030517578 -124.66200256347656,-77.51100158691406 C-124.66200256347656,-77.51100158691406 -60.402000427246094,-114.88099670410156 -60.402000427246094,-114.88099670410156 C-57.81800079345703,-116.37300109863281 -53.70600128173828,-116.37300109863281 -51.12300109863281,-114.88099670410156 C-51.12300109863281,-114.88099670410156 13.574000358581543,-77.51100158691406 13.574000358581543,-77.51100158691406 C16.158000946044922,-76.01899719238281 16.158000946044922,-73.65399932861328 13.611000061035156,-72.16200256347656z"/><path stroke-linecap="round" stroke-linejoin="round" fill-opacity="0" stroke="rgb(47,47,47)" stroke-opacity="1" stroke-width="1.819" d=" M13.611000061035156,-72.16200256347656 C13.611000061035156,-72.16200256347656 9.935999870300293,-70.01499938964844 9.935999870300293,-70.01499938964844 C9.935999870300293,-70.01499938964844 -51.12300109863281,-105.27400207519531 -51.12300109863281,-105.27400207519531 C-53.70600128173828,-106.7300033569336 -57.81800079345703,-106.76599884033203 -60.402000427246094,-105.27400207519531 C-60.402000427246094,-105.27400207519531 -120.98699951171875,-70.01499938964844 -120.98699951171875,-70.01499938964844 C-120.98699951171875,-70.01499938964844 -124.66200256347656,-72.16200256347656 -124.66200256347656,-72.16200256347656 C-127.20899963378906,-73.61799621582031 -127.20899963378906,-76.05500030517578 -124.66200256347656,-77.51100158691406 C-124.66200256347656,-77.51100158691406 -60.402000427246094,-114.88099670410156 -60.402000427246094,-114.88099670410156 C-57.81800079345703,-116.37300109863281 -53.70600128173828,-116.37300109863281 -51.12300109863281,-114.88099670410156 C-51.12300109863281,-114.88099670410156 13.574000358581543,-77.51100158691406 13.574000358581543,-77.51100158691406 C16.158000946044922,-76.01899719238281 16.158000946044922,-73.65399932861328 13.611000061035156,-72.16200256347656z"/></g><g opacity="1" transform="matrix(1,0,0,1,0,0)"><path stroke-linecap="round" stroke-linejoin="round" fill-opacity="0" stroke="rgb(47,47,47)" stroke-opacity="1" stroke-width="1.819" d=" M9.935999870300293,-70.01499938964844 C9.935999870300293,-70.01499938964844 -50.650001525878906,-34.827999114990234 -50.650001525878906,-34.827999114990234 C-53.233001708984375,-33.29999923706055 -57.38199996948242,-33.29999923706055 -59.92900085449219,-34.79199981689453 C-59.92900085449219,-34.79199981689453 -120.98699951171875,-70.01499938964844 -120.98699951171875,-70.01499938964844 C-120.98699951171875,-70.01499938964844 -60.402000427246094,-105.27400207519531 -60.402000427246094,-105.27400207519531 C-57.81800079345703,-106.76599884033203 -53.70600128173828,-106.7300033569336 -51.12300109863281,-105.27400207519531 C-51.12300109863281,-105.27400207519531 9.935999870300293,-70.01499938964844 9.935999870300293,-70.01499938964844z"/></g><g opacity="1" transform="matrix(1,0,0,1,0,0)"><g opacity="1" transform="matrix(1,0,0,1,0,0)"><path fill="rgb(255,255,255)" fill-opacity="1" d=" M-36.95600128173828,-127.04399871826172 C-36.95600128173828,-127.04399871826172 -25.83099937438965,-120.62100219726562 -25.83099937438965,-120.62100219726562"/><path stroke-linecap="round" stroke-linejoin="round" fill-opacity="0" stroke="rgb(47,47,47)" stroke-opacity="1" stroke-width="1.819" d=" M-36.95600128173828,-127.04399871826172 C-36.95600128173828,-127.04399871826172 -25.83099937438965,-120.62100219726562 -25.83099937438965,-120.62100219726562"/></g><g opacity="1" transform="matrix(1,0,0,1,0,0)"><path stroke-linecap="round" stroke-linejoin="round" fill-opacity="0" stroke="rgb(47,47,47)" stroke-opacity="1" stroke-width="1.819" d=" M-67.8030014038086,-131.1320037841797 C-67.8030014038086,-131.1320037841797 -55.95899963378906,-138.01499938964844 -55.95899963378906,-138.01499938964844 C-55.95899963378906,-138.01499938964844 -44.47999954223633,-131.38800048828125 -44.47999954223633,-131.38800048828125"/></g></g></g></g><g transform="matrix(1,0,0,1,256,264.8786315917969)" opacity="1" style="display: block;"><g opacity="1" transform="matrix(1,0,0,1,0,0)"><path fill="rgb(201,206,226)" fill-opacity="1" d=" M91.73400115966797,-169.39199829101562 C91.73400115966797,-169.39199829101562 67.072998046875,-183.6529998779297 67.072998046875,-183.6529998779297 C65.37100219726562,-184.60400390625 63.819000244140625,-184.70399475097656 62.71699905395508,-184.05299377441406 C62.71699905395508,-184.05299377441406 55.4739990234375,-179.8459930419922 55.4739990234375,-179.8459930419922 C56.57500076293945,-180.44700622558594 58.077999114990234,-180.39599609375 59.779998779296875,-179.39500427246094 C59.779998779296875,-179.39500427246094 130.8300018310547,-138.38800048828125 130.8300018310547,-138.38800048828125 C134.18499755859375,-136.43499755859375 136.88900756835938,-131.7779998779297 136.88900756835938,-127.9229965209961 C136.88900756835938,-127.9229965209961 136.73800659179688,-79.90599822998047 136.73800659179688,-79.90599822998047 C136.73800659179688,-77.9530029296875 136.03799438476562,-76.60099792480469 134.93600463867188,-75.94999694824219 C134.93600463867188,-75.94999694824219 142.22799682617188,-80.20800018310547 142.22799682617188,-80.20800018310547 C143.3300018310547,-80.85900115966797 143.9810028076172,-82.20999908447266 144.031005859375,-84.11299896240234 C144.031005859375,-84.11299896240234 144.13099670410156,-132.1300048828125 144.13099670410156,-132.1300048828125 C144.13099670410156,-135.98500061035156 141.427001953125,-140.69200134277344 138.07200622558594,-142.59500122070312 C138.07200622558594,-142.59500122070312 99.34200286865234,-164.99200439453125 99.34200286865234,-164.99200439453125"/><path stroke-linecap="round" stroke-linejoin="round" fill-opacity="0" stroke="rgb(47,47,47)" stroke-opacity="1" stroke-width="1.819" d=" M91.73400115966797,-169.39199829101562 C91.73400115966797,-169.39199829101562 67.072998046875,-183.6529998779297 67.072998046875,-183.6529998779297 C65.37100219726562,-184.60400390625 63.819000244140625,-184.70399475097656 62.71699905395508,-184.05299377441406 C62.71699905395508,-184.05299377441406 55.4739990234375,-179.8459930419922 55.4739990234375,-179.8459930419922 C56.57500076293945,-180.44700622558594 58.077999114990234,-180.39599609375 59.779998779296875,-179.39500427246094 C59.779998779296875,-179.39500427246094 130.8300018310547,-138.38800048828125 130.8300018310547,-138.38800048828125 C134.18499755859375,-136.43499755859375 136.88900756835938,-131.7779998779297 136.88900756835938,-127.9229965209961 C136.88900756835938,-127.9229965209961 136.73800659179688,-79.90599822998047 136.73800659179688,-79.90599822998047 C136.73800659179688,-77.9530029296875 136.03799438476562,-76.60099792480469 134.93600463867188,-75.94999694824219 C134.93600463867188,-75.94999694824219 142.22799682617188,-80.20800018310547 142.22799682617188,-80.20800018310547 C143.3300018310547,-80.85900115966797 143.9810028076172,-82.20999908447266 144.031005859375,-84.11299896240234 C144.031005859375,-84.11299896240234 144.13099670410156,-132.1300048828125 144.13099670410156,-132.1300048828125 C144.13099670410156,-135.98500061035156 141.427001953125,-140.69200134277344 138.07200622558594,-142.59500122070312 C138.07200622558594,-142.59500122070312 99.34200286865234,-164.99200439453125 99.34200286865234,-164.99200439453125"/></g><g opacity="1" transform="matrix(1,0,0,1,0,0)"><path stroke-linecap="round" stroke-linejoin="round" fill-opacity="0" stroke="rgb(47,47,47)" stroke-opacity="1" stroke-width="1.819" d=" M115.35299682617188,-85.20600128173828 C115.35299682617188,-85.20600128173828 130.63600158691406,-76.38300323486328 130.63600158691406,-76.38300323486328 C133.9929962158203,-74.44499969482422 136.71800231933594,-76.03500366210938 136.72900390625,-79.89199829101562 C136.72900390625,-79.89199829101562 136.86599731445312,-127.90299987792969 136.86599731445312,-127.90299987792969 C136.8769989013672,-131.75999450683594 134.16900634765625,-136.45199584960938 130.81199645996094,-138.38999938964844 C130.81199645996094,-138.38999938964844 59.77799987792969,-179.4010009765625 59.77799987792969,-179.4010009765625 C56.42100143432617,-181.33900451660156 53.69599914550781,-179.78500366210938 53.685001373291016,-175.92799377441406 C53.685001373291016,-175.92799377441406 53.54899978637695,-127.91699981689453 53.54899978637695,-127.91699981689453 C53.53799819946289,-124.05999755859375 56.24599838256836,-119.33200073242188 59.60300064086914,-117.39399719238281 C59.60300064086914,-117.39399719238281 108.55500030517578,-89.13099670410156 108.55500030517578,-89.13099670410156"/></g></g><g mask="url(#__lottie_element_54_1)" style="display: block;"><g transform="matrix(1,0,0,1,186.23716735839844,224.4658203125)" opacity="1"><g opacity="1" transform="matrix(1,0,0,1,0,0)"><g opacity="1" transform="matrix(1,0,0,1,0,0)"><g opacity="1" transform="matrix(1,0,0,1,0,0)"><g opacity="1" transform="matrix(1,0,0,1,0,0)"><path fill="rgb(255,52,43)" fill-opacity="1" d=" M29.60300064086914,-177.3090057373047 C30.132999420166016,-176.7209930419922 30.60700035095215,-176.0330047607422 31.04400062561035,-175.281005859375 C31.04400062561035,-175.281005859375 35.84400177001953,-166.7760009765625 35.84400177001953,-166.7760009765625 C36.78300094604492,-165.05599975585938 38.05799865722656,-163.7530059814453 39.33300018310547,-163.00799560546875 C40.83000183105469,-162.1479949951172 42.29999923706055,-162.0399932861328 43.29600143432617,-162.97900390625 C43.29600143432617,-162.97900390625 51.027000427246094,-170.23699951171875 51.027000427246094,-170.23699951171875 C52.02299880981445,-171.1540069580078 53.470001220703125,-171.04600524902344 54.959999084472656,-170.21499633789062 C56.42900085449219,-169.3769989013672 57.869998931884766,-167.80099487304688 58.84400177001953,-165.72300720214844 C58.84400177001953,-165.72300720214844 69.64800262451172,-143.0240020751953 69.64800262451172,-143.0240020751953 C70.6510009765625,-140.91700744628906 72.12100219726562,-139.34100341796875 73.56099700927734,-138.50999450683594 C75.0510025024414,-137.64999389648438 76.54900360107422,-137.53599548339844 77.52300262451172,-138.50999450683594 C78.48999786376953,-139.4770050048828 79.98799896240234,-139.3699951171875 81.48500061035156,-138.53900146484375 C82.98200225830078,-137.6790008544922 84.4800033569336,-136.06700134277344 85.41899871826172,-133.93899536132812 C85.41899871826172,-133.93899536132812 87.24600219726562,-130.02699279785156 87.24600219726562,-130.02699279785156 C88.22000122070312,-127.9489974975586 89.71800231933594,-126.34400177001953 91.20800018310547,-125.45600128173828 C91.88200378417969,-125.07599639892578 92.56900024414062,-124.85399627685547 93.19999694824219,-124.81099700927734 C93.76599884033203,-124.76799774169922 94.28900146484375,-124.8759994506836 94.73300170898438,-125.15499877929688 C94.73300170898438,-125.15499877929688 96.38200378417969,-125.33000183105469 96.38200378417969,-125.33000183105469 C96.38200378417969,-125.33000183105469 96.38200378417969,-125.33000183105469 96.38200378417969,-125.33000183105469 C96.38200378417969,-125.33000183105469 96.38200378417969,-125.33000183105469 96.38200378417969,-125.33000183105469 C96.38200378417969,-125.33000183105469 102.47000122070312,-125.97599792480469 102.47000122070312,-125.97599792480469 C104.0270004272461,-126.42400360107422 105.36599731445312,-126.9530029296875 105.76300048828125,-127.3280029296875 C105.76300048828125,-127.3280029296875 113.49400329589844,-134.58599853515625 113.49400329589844,-134.58599853515625 C114.48999786376953,-135.5030059814453 115.93699645996094,-135.39500427246094 117.427001953125,-134.56399536132812 C118.89600372314453,-133.7259979248047 120.33699798583984,-132.14999389648438 121.31099700927734,-130.07200622558594 C121.31099700927734,-130.07200622558594 132.11500549316406,-107.37300109863281 132.11500549316406,-107.37300109863281 C133.1179962158203,-105.26599884033203 134.58700561523438,-103.69000244140625 136.02699279785156,-102.85900115966797 C137.51699829101562,-101.9990005493164 139.01600646972656,-101.88500213623047 139.99000549316406,-102.85900115966797 C140.95700073242188,-103.82599639892578 142.4550018310547,-103.71900177001953 143.95199584960938,-102.88800048828125 C145.44900512695312,-102.02799987792969 146.9459991455078,-100.41600036621094 147.88499450683594,-98.28800201416016 C147.88499450683594,-98.28800201416016 149.71299743652344,-94.3759994506836 149.71299743652344,-94.3759994506836 C150.68699645996094,-92.2979965209961 152.18499755859375,-90.69300079345703 153.6750030517578,-89.80500030517578 C154.34800720214844,-89.42500305175781 155.03599548339844,-89.2030029296875 155.66700744628906,-89.16000366210938 C156.23300170898438,-89.11699676513672 156.75599670410156,-89.2249984741211 157.1999969482422,-89.50399780273438 C157.1999969482422,-89.50399780273438 162.7100067138672,-92.9219970703125 162.7100067138672,-92.9219970703125 C163.52699279785156,-91.80400085449219 164.47900390625,-90.93699645996094 165.4320068359375,-90.37799835205078 C166.9219970703125,-89.51799774169922 168.39199829101562,-89.40299987792969 169.39500427246094,-90.3489990234375 C169.39500427246094,-90.3489990234375 169.59500122070312,-90.53600311279297 169.59500122070312,-90.53600311279297 C169.59500122070312,-90.53600311279297 177.12600708007812,-97.60800170898438 177.12600708007812,-97.60800170898438 C178.1219940185547,-98.5250015258789 179.56199645996094,-98.41000366210938 181.0590057373047,-97.5790023803711 C182.5279998779297,-96.74800109863281 183.968994140625,-95.1719970703125 184.93600463867188,-93.09400177001953 C184.93600463867188,-93.09400177001953 195.7480010986328,-70.3949966430664 195.7480010986328,-70.3949966430664 C196.74400329589844,-68.28800201416016 198.21200561523438,-66.71199798583984 199.65199279785156,-65.8740005493164 C201.1490020751953,-65.02100372314453 202.6479949951172,-64.90699768066406 203.61500549316406,-65.8740005493164 C204.58900451660156,-66.8479995727539 206.08700561523438,-66.73400115966797 207.57699584960938,-65.90299987792969 C209.07400512695312,-65.04299926757812 210.57200622558594,-63.4379997253418 211.51800537109375,-61.303001403808594 C211.51800537109375,-61.303001403808594 213.34500122070312,-57.39799880981445 213.34500122070312,-57.39799880981445 C214.31199645996094,-55.31999969482422 215.80999755859375,-53.7140007019043 217.3070068359375,-52.82600021362305 C218.58200073242188,-52.10200119018555 219.88600158691406,-51.9379997253418 220.8249969482422,-52.518001556396484 C220.8249969482422,-52.518001556396484 231.9949951171875,-59.446998596191406 231.9949951171875,-59.446998596191406 C232.35299682617188,-59.66899871826172 232.7689971923828,-59.78300094604492 233.24200439453125,-59.80500030517578 C233.24200439453125,-59.80500030517578 233.18499755859375,-38.83300018310547 233.18499755859375,-38.83300018310547 C233.18499755859375,-34.641998291015625 228.64199829101562,-32.012001037597656 225.00900268554688,-34.11899948120117 C225.00900268554688,-34.11899948120117 161.10499572753906,-71.00399780273438 161.10499572753906,-71.00399780273438 C160.4669952392578,-71.37699890136719 159.87899780273438,-71.79900360107422 159.3419952392578,-72.27200317382812 C159.3419952392578,-72.27200317382812 100.75599670410156,-106.09100341796875 100.75599670410156,-106.09100341796875 C100.13400268554688,-106.19499969482422 99.51300048828125,-106.4020004272461 98.91699981689453,-106.74800109863281 C98.91699981689453,-106.74800109863281 96.875,-107.9229965209961 96.875,-107.9229965209961 C96.875,-107.9229965209961 35.01300048828125,-143.63299560546875 35.01300048828125,-143.63299560546875 C31.709999084472656,-145.54600524902344 29.631999969482422,-149.04299926757812 29.575000762939453,-152.86199951171875 C29.554000854492188,-152.947998046875 29.55299949645996,-153.03399658203125 29.55299949645996,-153.11300659179688 C29.55299949645996,-153.11300659179688 29.60300064086914,-177.3090057373047 29.60300064086914,-177.3090057373047z"/></g></g><g opacity="1" transform="matrix(1,0,0,1,0,0)"><g opacity="1" transform="matrix(1,0,0,1,0,0)"><path fill="rgb(47,47,47)" fill-opacity="1" d=" M149.71299743652344,-93.66000366210938 C149.4429931640625,-93.66000366210938 149.18499755859375,-93.81300354003906 149.06300354003906,-94.072998046875 C149.06300354003906,-94.072998046875 147.23599243164062,-97.98500061035156 147.23599243164062,-97.98500061035156 C146.41099548339844,-99.8550033569336 145.08599853515625,-101.41100311279297 143.59500122070312,-102.26699829101562 C142.98599243164062,-102.60600280761719 141.44500732421875,-103.302001953125 140.49600219726562,-102.35299682617188 C139.3459930419922,-101.2020034790039 137.54299926757812,-101.15799713134766 135.66900634765625,-102.23899841308594 C134.0019989013672,-103.20099639892578 132.47000122070312,-104.95999908447266 131.46800231933594,-107.06500244140625 C131.46800231933594,-107.06500244140625 120.66300201416016,-129.76400756835938 120.66300201416016,-129.76400756835938 C119.7959976196289,-131.61199951171875 118.48799896240234,-133.13400268554688 117.0719985961914,-133.94200134277344 C116.3280029296875,-134.35800170898438 114.9260025024414,-134.93099975585938 113.97899627685547,-134.0590057373047 C113.97899627685547,-134.0590057373047 106.25299835205078,-126.80500030517578 106.25299835205078,-126.80500030517578 C105.96499633789062,-126.53399658203125 105.51100158691406,-126.54900360107422 105.23999786376953,-126.83699798583984 C104.96900177001953,-127.1259994506836 104.98400115966797,-127.5790023803711 105.27200317382812,-127.8499984741211 C105.27200317382812,-127.8499984741211 113.00299835205078,-135.10800170898438 113.00299835205078,-135.10800170898438 C114.18399810791016,-136.1959991455078 115.9219970703125,-136.2239990234375 117.7770004272461,-135.19000244140625 C119.4489974975586,-134.23500061035156 120.97100067138672,-132.48199462890625 121.95899963378906,-130.37600708007812 C121.95899963378906,-130.37600708007812 132.76300048828125,-107.68099975585938 132.76300048828125,-107.68099975585938 C133.64300537109375,-105.83200073242188 134.96299743652344,-104.3010025024414 136.38600158691406,-103.4800033569336 C136.9980010986328,-103.12699890136719 138.5260009765625,-102.40799713134766 139.48300170898438,-103.36599731445312 C140.61900329589844,-104.50199890136719 142.4199981689453,-104.55899810791016 144.3000030517578,-103.51499938964844 C146.0590057373047,-102.50499725341797 147.6009979248047,-100.70700073242188 148.54100036621094,-98.5780029296875 C148.54100036621094,-98.5780029296875 150.36199951171875,-94.68000030517578 150.36199951171875,-94.68000030517578 C150.5290069580078,-94.32099914550781 150.37399291992188,-93.8949966430664 150.01499938964844,-93.72699737548828 C149.91700744628906,-93.68199920654297 149.81399536132812,-93.66000366210938 149.71299743652344,-93.66000366210938z"/></g></g><g opacity="1" transform="matrix(1,0,0,1,0,0)"><g opacity="1" transform="matrix(1,0,0,1,0,0)"><path fill="rgb(47,47,47)" fill-opacity="1" d=" M93.20099639892578,-124.09400177001953 C93.18499755859375,-124.09400177001953 93.16799926757812,-124.09500122070312 93.1510009765625,-124.09600067138672 C92.41400146484375,-124.14600372314453 91.62000274658203,-124.4010009765625 90.85600280761719,-124.83200073242188 C89.11699676513672,-125.86900329589844 87.56999969482422,-127.64800262451172 86.59700012207031,-129.72300720214844 C86.59700012207031,-129.72300720214844 84.76899719238281,-133.63600158691406 84.76899719238281,-133.63600158691406 C83.94499969482422,-135.50599670410156 82.62000274658203,-137.06100463867188 81.12799835205078,-137.91799926757812 C80.51899719238281,-138.2570037841797 78.97599792480469,-138.95199584960938 78.02899932861328,-138.00399780273438 C76.87999725341797,-136.85299682617188 75.07599639892578,-136.8090057373047 73.2020034790039,-137.88999938964844 C72.85900115966797,-138.08799743652344 72.74199676513672,-138.5260009765625 72.94000244140625,-138.86900329589844 C73.13800048828125,-139.21200561523438 73.57599639892578,-139.32899475097656 73.91899871826172,-139.13099670410156 C74.53099822998047,-138.77699279785156 76.05799865722656,-138.0590057373047 77.01599884033203,-139.01699829101562 C78.1520004272461,-140.1529998779297 79.95099639892578,-140.20899963378906 81.83300018310547,-139.16600036621094 C83.59300231933594,-138.15499877929688 85.13500213623047,-136.35699462890625 86.0739974975586,-134.22799682617188 C86.0739974975586,-134.22799682617188 87.8949966430664,-130.33099365234375 87.8949966430664,-130.33099365234375 C88.7490005493164,-128.50900268554688 90.09100341796875,-126.95600128173828 91.57499694824219,-126.07099914550781 C92.13999938964844,-125.75299835205078 92.7229995727539,-125.56199645996094 93.2490005493164,-125.5260009765625 C93.64399719238281,-125.4990005493164 93.94200134277344,-125.15699768066406 93.91500091552734,-124.76200103759766 C93.88899993896484,-124.38400268554688 93.57499694824219,-124.09400177001953 93.20099639892578,-124.09400177001953z"/></g></g><g opacity="1" transform="matrix(1,0,0,1,0,0)"><g opacity="1" transform="matrix(1,0,0,1,0,0)"><path fill="rgb(47,47,47)" fill-opacity="1" d=" M227.73800659179688,-32.65800094604492 C226.677001953125,-32.65800094604492 225.61500549316406,-32.93899917602539 224.6490020751953,-33.499000549316406 C224.6490020751953,-33.499000549316406 160.7469940185547,-70.38300323486328 160.7469940185547,-70.38300323486328 C160.09100341796875,-70.76599884033203 159.47900390625,-71.2040023803711 158.92300415039062,-71.68699645996094 C158.92300415039062,-71.68699645996094 100.50599670410156,-105.40799713134766 100.50599670410156,-105.40799713134766 C99.80899810791016,-105.54000091552734 99.15499877929688,-105.78099822998047 98.55799865722656,-106.12799835205078 C98.55799865722656,-106.12799835205078 96.51799774169922,-107.302001953125 96.51799774169922,-107.302001953125 C96.51799774169922,-107.302001953125 34.654998779296875,-143.01300048828125 34.654998779296875,-143.01300048828125 C31.159000396728516,-145.03799438476562 28.941999435424805,-148.77699279785156 28.858999252319336,-152.78500366210938 C28.836999893188477,-152.91700744628906 28.836999893188477,-153.03199768066406 28.836999893188477,-153.11300659179688 C28.836999893188477,-153.11300659179688 28.886999130249023,-177.30999755859375 28.886999130249023,-177.30999755859375 C28.88800048828125,-177.6060028076172 29.06999969482422,-177.8719940185547 29.34600067138672,-177.97799682617188 C29.624000549316406,-178.08399963378906 29.93600082397461,-178.00900268554688 30.135000228881836,-177.78900146484375 C30.663999557495117,-177.2030029296875 31.163999557495117,-176.50100708007812 31.663000106811523,-175.64100646972656 C31.86199951171875,-175.2989959716797 31.7450008392334,-174.86000061035156 31.40399932861328,-174.66099548339844 C31.062000274658203,-174.46299743652344 30.62299919128418,-174.5800018310547 30.424999237060547,-174.92100524902344 C30.388999938964844,-174.98399353027344 30.35099983215332,-175.0449981689453 30.315000534057617,-175.1060028076172 C30.315000534057617,-175.1060028076172 30.270000457763672,-153.11099243164062 30.270000457763672,-153.11099243164062 C30.270000457763672,-153.08399963378906 30.26799964904785,-153.0540008544922 30.27199935913086,-153.0240020751953 C30.275999069213867,-152.99400329589844 30.290000915527344,-152.9029998779297 30.291000366210938,-152.8730010986328 C30.3439998626709,-149.34100341796875 32.29100036621094,-146.03799438476562 35.37200164794922,-144.2530059814453 C35.37200164794922,-144.2530059814453 99.2750015258789,-107.36900329589844 99.2750015258789,-107.36900329589844 C99.76200103759766,-107.08599853515625 100.29900360107422,-106.8949966430664 100.8740005493164,-106.7979965209961 C100.95899963378906,-106.78399658203125 101.04000091552734,-106.75499725341797 101.11399841308594,-106.71199798583984 C101.11399841308594,-106.71199798583984 159.7010040283203,-72.89299774169922 159.7010040283203,-72.89299774169922 C159.74200439453125,-72.86900329589844 159.77999877929688,-72.84100341796875 159.8159942626953,-72.80999755859375 C160.3159942626953,-72.36900329589844 160.8719940185547,-71.97000122070312 161.46600341796875,-71.62300109863281 C161.46600341796875,-71.62300109863281 225.36700439453125,-34.73899841308594 225.36700439453125,-34.73899841308594 C226.8489990234375,-33.880001068115234 228.61599731445312,-33.880001068115234 230.0970001220703,-34.731998443603516 C231.58200073242188,-35.5880012512207 232.46800231933594,-37.119998931884766 232.46800231933594,-38.83300018310547 C232.46800231933594,-38.83300018310547 232.5229949951172,-58.91999816894531 232.5229949951172,-58.91999816894531 C232.4709930419922,-58.895999908447266 232.42100524902344,-58.86800003051758 232.3730010986328,-58.8380012512207 C232.3730010986328,-58.8380012512207 226.19000244140625,-55.00299835205078 226.19000244140625,-55.00299835205078 C225.85299682617188,-54.79399871826172 225.41200256347656,-54.89799880981445 225.2030029296875,-55.23400115966797 C224.99400329589844,-55.57099914550781 225.09800720214844,-56.01100158691406 225.4340057373047,-56.220001220703125 C225.4340057373047,-56.220001220703125 231.61700439453125,-60.05500030517578 231.61700439453125,-60.05500030517578 C232.0709991455078,-60.33700180053711 232.60699462890625,-60.49399948120117 233.2100067138672,-60.520999908447266 C233.40899658203125,-60.53300094604492 233.5970001220703,-60.457000732421875 233.73800659179688,-60.321998596191406 C233.87899780273438,-60.18600082397461 233.95899963378906,-59.999000549316406 233.95799255371094,-59.803001403808594 C233.95799255371094,-59.803001403808594 233.9010009765625,-38.83100128173828 233.9010009765625,-38.83100128173828 C233.9010009765625,-36.60200119018555 232.74600219726562,-34.604000091552734 230.81199645996094,-33.4900016784668 C229.8489990234375,-32.935001373291016 228.79299926757812,-32.65800094604492 227.73800659179688,-32.65800094604492z"/></g></g></g><g opacity="1" transform="matrix(1,0,0,1,0,0)"><g opacity="1" transform="matrix(1,0,0,1,0,0)"><path fill="rgb(47,47,47)" fill-opacity="1" d=" M213.3459930419922,-56.680999755859375 C213.07699584960938,-56.680999755859375 212.8179931640625,-56.83399963378906 212.6959991455078,-57.09400177001953 C212.6959991455078,-57.09400177001953 210.86900329589844,-60.999000549316406 210.86900329589844,-60.999000549316406 C210.04100036621094,-62.86899948120117 208.71299743652344,-64.42400360107422 207.22000122070312,-65.28099822998047 C206.61099243164062,-65.62000274658203 205.0709991455078,-66.31700134277344 204.1219940185547,-65.36799621582031 C202.97900390625,-64.22599792480469 201.177001953125,-64.18099975585938 199.29800415039062,-65.2509994506836 C197.6199951171875,-66.22799682617188 196.0919952392578,-67.99099731445312 195.10000610351562,-70.08899688720703 C195.10000610351562,-70.08899688720703 184.28900146484375,-92.78500366210938 184.28900146484375,-92.78500366210938 C183.427001953125,-94.63600158691406 182.1230010986328,-96.15299987792969 180.70700073242188,-96.95500183105469 C179.95700073242188,-97.37100219726562 178.5489959716797,-97.94499969482422 177.61099243164062,-97.08000183105469 C177.61099243164062,-97.08000183105469 169.88099670410156,-89.8239974975586 169.88099670410156,-89.8239974975586 C168.69400024414062,-88.70500183105469 166.9409942626953,-88.68099975585938 165.07400512695312,-89.75700378417969 C163.9969940185547,-90.38800048828125 162.9810028076172,-91.33599853515625 162.13099670410156,-92.4990005493164 C161.8979949951172,-92.81800079345703 161.9669952392578,-93.26699829101562 162.28700256347656,-93.5 C162.6060028076172,-93.73400115966797 163.0540008544922,-93.66400146484375 163.28799438476562,-93.34500122070312 C164.0229949951172,-92.33899688720703 164.88999938964844,-91.5260009765625 165.7949981689453,-90.99600219726562 C166.54400634765625,-90.56400299072266 167.94900512695312,-89.96900177001953 168.9029998779297,-90.87100219726562 C168.9029998779297,-90.87100219726562 169.10800170898438,-91.06099700927734 169.10800170898438,-91.06099700927734 C169.10800170898438,-91.06099700927734 176.63499450683594,-98.12999725341797 176.63499450683594,-98.12999725341797 C177.80999755859375,-99.21199798583984 179.5469970703125,-99.23799896240234 181.40699768066406,-98.20500183105469 C183.08200073242188,-97.25700378417969 184.60299682617188,-95.50599670410156 185.5850067138672,-93.39600372314453 C185.5850067138672,-93.39600372314453 196.3939971923828,-70.7030029296875 196.3939971923828,-70.7030029296875 C197.26699829101562,-68.85800170898438 198.5850067138672,-67.3239974975586 200.01300048828125,-66.49299621582031 C200.6230010986328,-66.14600372314453 202.1580047607422,-65.43199920654297 203.10800170898438,-66.38099670410156 C204.2480010986328,-67.51899719238281 206.04800415039062,-67.57499694824219 207.9250030517578,-66.52799987792969 C209.68499755859375,-65.51799774169922 211.22999572753906,-63.72100067138672 212.1719970703125,-61.59199905395508 C212.1719970703125,-61.59199905395508 213.99400329589844,-57.70199966430664 213.99400329589844,-57.70199966430664 C214.16200256347656,-57.34400177001953 214.0070037841797,-56.91600036621094 213.6490020751953,-56.749000549316406 C213.55099487304688,-56.702999114990234 213.44700622558594,-56.680999755859375 213.3459930419922,-56.680999755859375z"/></g></g></g><g opacity="1" transform="matrix(1,0,0,1,0,0)"><g opacity="1" transform="matrix(1,0,0,1,0,0)"><path fill="rgb(47,47,47)" fill-opacity="1" d=" M41.58399963378906,-161.5989990234375 C40.77799987792969,-161.5989990234375 39.89099884033203,-161.86099243164062 38.97600173950195,-162.38600158691406 C38.632999420166016,-162.58299255371094 38.51499938964844,-163.02099609375 38.71200180053711,-163.36399841308594 C38.909000396728516,-163.70700073242188 39.34600067138672,-163.82699584960938 39.689998626708984,-163.62899780273438 C40.444000244140625,-163.1959991455078 41.85100173950195,-162.60299682617188 42.80500030517578,-163.5 C42.80500030517578,-163.5 50.5359992980957,-170.75900268554688 50.5359992980957,-170.75900268554688 C51.71699905395508,-171.8470001220703 53.45500183105469,-171.87399291992188 55.310001373291016,-170.84100341796875 C56.981998443603516,-169.88600158691406 58.50400161743164,-168.13299560546875 59.492000579833984,-166.02699279785156 C59.65999984741211,-165.66900634765625 59.50600051879883,-165.24200439453125 59.14799880981445,-165.07400512695312 C58.78799819946289,-164.90499877929688 58.36199951171875,-165.06100463867188 58.19499969482422,-165.41900634765625 C57.32899856567383,-167.26400756835938 56.020999908447266,-168.78500366210938 54.60499954223633,-169.59300231933594 C53.861000061035156,-170.00900268554688 52.45899963378906,-170.58099365234375 51.512001037597656,-169.7100067138672 C51.512001037597656,-169.7100067138672 43.7859992980957,-162.45599365234375 43.7859992980957,-162.45599365234375 C43.18000030517578,-161.88499450683594 42.42599868774414,-161.5989990234375 41.58399963378906,-161.5989990234375z"/></g></g></g></g><g mask="url(#__lottie_element_60_2)" style="display: block;"><g clip-path="url(#__lottie_element_58)" transform="matrix(1,0,0,1,256,256)" opacity="1"><g opacity="1" transform="matrix(1,0,0,1,0,0)"><path stroke-linecap="round" stroke-linejoin="round" fill-opacity="0" stroke-dasharray=" 5.458 5.094" stroke-dashoffset="0" stroke="rgb(47,47,47)" stroke-opacity="1" stroke-width="1.819" d=" M57.422000885009766,-58.13100051879883 C58.15700149536133,-72.93800354003906 59.560001373291016,-101.18900299072266 59.560001373291016,-101.18900299072266 C59.560001373291016,-101.18900299072266 91.44100189208984,-107.5770034790039 91.44100189208984,-107.5770034790039 C91.44100189208984,-107.5770034790039 91.44100189208984,-107.5770034790039 91.44100189208984,-107.5770034790039 C91.44100189208984,-107.5770034790039 91.44100189208984,-69.38099670410156 91.44100189208984,-69.38099670410156 C91.44100189208984,-69.38099670410156 56.98400115966797,-49.310001373291016 56.98400115966797,-49.310001373291016 C56.98400115966797,-49.310001373291016 57.1609992980957,-52.87300109863281 57.422000885009766,-58.13100051879883"/></g></g></g><g transform="matrix(1,0,0,1,256,256)" opacity="1" style="display: block;"><g opacity="1" transform="matrix(0.9063815474510193,-0.42246007919311523,0.42246007919311523,0.9063815474510193,69.69461059570312,-85.73601531982422)"><g opacity="1" transform="matrix(1,0,0,1,0,0)"><g opacity="1" transform="matrix(1,0,0,1,0,0)"><path fill="rgb(255,255,255)" fill-opacity="1" d=" M-130.125,-151.8800048828125 C-130.125,-151.8800048828125 -143.35699462890625,-151.87899780273438 -143.35699462890625,-151.87899780273438"/><path stroke-linecap="round" stroke-linejoin="round" fill-opacity="0" stroke="rgb(47,47,47)" stroke-opacity="1" stroke-width="1.819" d=" M-130.125,-151.8800048828125 C-130.125,-151.8800048828125 -143.35699462890625,-151.87899780273438 -143.35699462890625,-151.87899780273438"/></g><g opacity="1" transform="matrix(1,0,0,1,0,0)"><path fill="rgb(255,255,255)" fill-opacity="1" d=" M-136.74099731445312,-145.26400756835938 C-136.74099731445312,-145.26400756835938 -136.74099731445312,-158.49600219726562 -136.74099731445312,-158.49600219726562"/><path stroke-linecap="round" stroke-linejoin="round" fill-opacity="0" stroke="rgb(47,47,47)" stroke-opacity="1" stroke-width="1.819" d=" M-136.74099731445312,-145.26400756835938 C-136.74099731445312,-145.26400756835938 -136.74099731445312,-158.49600219726562 -136.74099731445312,-158.49600219726562"/></g></g></g><g opacity="1" transform="matrix(1,0,0,1,18.332855224609375,-18.332862854003906)"><g opacity="1" transform="matrix(1,0,0,1,0,0)"><path stroke-linecap="round" stroke-linejoin="round" fill-opacity="0" stroke="rgb(176,184,207)" stroke-opacity="1" stroke-width="1.819" d=" M-153.46299743652344,143.82400512695312 C-153.46299743652344,146.99600219726562 -156.00100708007812,149.60400390625 -159.2429962158203,149.60400390625 C-162.4149932861328,149.60400390625 -165.02200317382812,146.99600219726562 -165.02200317382812,143.82400512695312 C-165.02200317382812,140.58200073242188 -162.4149932861328,138.04400634765625 -159.2429962158203,138.04400634765625 C-156.00100708007812,138.04400634765625 -153.46299743652344,140.58200073242188 -153.46299743652344,143.82400512695312z"/></g></g><g opacity="1" transform="matrix(1,0,0,1,-4.583213806152344,37.12403869628906)"><g opacity="1" transform="matrix(1,0,0,1,0,0)"><path fill="rgb(255,52,43)" fill-opacity="1" d=" M104.51599884033203,-12.73900032043457 C104.51599884033203,-9.62399959564209 102.02400207519531,-7.063000202178955 98.83999633789062,-7.063000202178955 C95.7249984741211,-7.063000202178955 93.16300201416016,-9.62399959564209 93.16300201416016,-12.73900032043457 C93.16300201416016,-15.92300033569336 95.7249984741211,-18.416000366210938 98.83999633789062,-18.416000366210938 C102.02400207519531,-18.416000366210938 104.51599884033203,-15.92300033569336 104.51599884033203,-12.73900032043457z"/></g></g></g><g clip-path="url(#__lottie_element_67)" transform="matrix(1,0,0,1,256,256)" opacity="1" style="display: block;"><g opacity="1" transform="matrix(1,0,0,1,0,0)"><path stroke-linecap="round" stroke-linejoin="round" fill-opacity="0" stroke-dasharray=" 5.458 5.094" stroke-dashoffset="0" stroke="rgb(47,47,47)" stroke-opacity="1" stroke-width="1.819" d=" M97.87999725341797,126.66600036621094 C79.64600372314453,113.1709976196289 43.76499938964844,86.61699676513672 43.76499938964844,86.61699676513672 C43.76499938964844,86.61699676513672 -8.00100040435791,117.1449966430664 -8.00100040435791,117.1449966430664 C-8.00100040435791,117.1449966430664 -8.00100040435791,117.1449966430664 -8.00100040435791,117.1449966430664 C-8.00100040435791,117.1449966430664 65.5979995727539,158.572998046875 65.5979995727539,158.572998046875 C65.5979995727539,158.572998046875 108.25499725341797,134.343994140625 108.25499725341797,134.343994140625 C108.25499725341797,134.343994140625 104.09100341796875,131.26300048828125 97.87999725341797,126.66600036621094"/></g></g><g transform="matrix(1,0,0,1,256,256)" opacity="1" style="display: block;"><g opacity="1" transform="matrix(1,0,0,1,0,0)"><g opacity="1" transform="matrix(1,0,0,1,0,0)"><path fill="rgb(227,231,240)" fill-opacity="1" d=" M131.4040069580078,141.30599975585938 C131.4040069580078,141.30599975585938 108.33100128173828,127.89800262451172 108.33100128173828,127.89800262451172 C108.33100128173828,127.89800262451172 85.10600280761719,141.30599975585938 85.10600280761719,141.30599975585938 C85.10600280761719,141.30599975585938 108.17900085449219,154.71499633789062 108.17900085449219,154.71499633789062 C108.17900085449219,154.71499633789062 131.4040069580078,141.30599975585938 131.4040069580078,141.30599975585938z"/></g></g><g opacity="1" transform="matrix(1,0,0,1,0,0)"><g opacity="1" transform="matrix(1,0,0,1,0,0)"><path fill="rgb(227,231,240)" fill-opacity="1" d=" M177.70199584960938,113.92900085449219 C177.70199584960938,113.92900085449219 154.62899780273438,100.5199966430664 154.62899780273438,100.5199966430664 C154.62899780273438,100.5199966430664 131.4040069580078,113.92900085449219 131.4040069580078,113.92900085449219 C131.4040069580078,113.92900085449219 154.47799682617188,127.33799743652344 154.47799682617188,127.33799743652344 C154.47799682617188,127.33799743652344 177.70199584960938,113.92900085449219 177.70199584960938,113.92900085449219z"/></g></g></g><g transform="matrix(1,0,0,1,256,256)" opacity="1" style="display: block;"><g opacity="1" transform="matrix(1,0,0,1,0,0)"><g opacity="1" transform="matrix(1,0,0,1,0,0)"><g opacity="1" transform="matrix(1,0,0,1,0,0)"><path fill="rgb(47,47,47)" fill-opacity="1" d=" M89.45989227294922,43.6384391784668 C89.45989227294922,43.6384391784668 90.05899810791016,136.9149932861328 90.05899810791016,136.9149932861328 C90.05899810791016,136.9149932861328 108.2490005493164,147.48599243164062 108.2490005493164,147.48599243164062 C108.2490005493164,147.48599243164062 107.64989471435547,54.20943832397461 107.64989471435547,54.20943832397461 C107.64989471435547,54.20943832397461 89.45989227294922,43.6384391784668 89.45989227294922,43.6384391784668z"/><path stroke-linecap="round" stroke-linejoin="round" fill-opacity="0" stroke="rgb(47,47,47)" stroke-opacity="1" stroke-width="1.819" d=" M89.45989227294922,43.6384391784668 C89.45989227294922,43.6384391784668 90.05899810791016,136.9149932861328 90.05899810791016,136.9149932861328 C90.05899810791016,136.9149932861328 108.2490005493164,147.48599243164062 108.2490005493164,147.48599243164062 C108.2490005493164,147.48599243164062 107.64989471435547,54.20943832397461 107.64989471435547,54.20943832397461 C107.64989471435547,54.20943832397461 89.45989227294922,43.6384391784668 89.45989227294922,43.6384391784668z"/></g><g opacity="1" transform="matrix(1,0,0,1,0,0)"><path stroke-linecap="round" stroke-linejoin="round" fill-opacity="0" stroke="rgb(47,47,47)" stroke-opacity="1" stroke-width="1.819" d=" M126.55799865722656,136.9219970703125 C126.55799865722656,136.9219970703125 108.25499725341797,147.4739990234375 108.25499725341797,147.4739990234375 C108.25499725341797,147.4739990234375 107.66551208496094,54.199440002441406 107.66551208496094,54.199440002441406 C107.66551208496094,54.199440002441406 125.9688949584961,43.647438049316406 125.9688949584961,43.647438049316406 C125.9688949584961,43.647438049316406 126.55799865722656,136.9219970703125 126.55799865722656,136.9219970703125z"/></g><g opacity="1" transform="matrix(1,0,0,1,0,0)"><path fill="rgb(46,88,255)" fill-opacity="1" d=" M89.45989227294922,43.6384391784668 C89.45989227294922,43.6384391784668 107.64989471435547,54.20943832397461 107.64989471435547,54.20943832397461 C107.64989471435547,54.20943832397461 125.95951080322266,43.6384391784668 125.95951080322266,43.6384391784668 C125.95951080322266,43.6384391784668 107.7695083618164,33.06843948364258 107.7695083618164,33.06843948364258 C107.7695083618164,33.06843948364258 89.45989227294922,43.6384391784668 89.45989227294922,43.6384391784668z"/><path stroke-linecap="round" stroke-linejoin="round" fill-opacity="0" stroke="rgb(47,47,47)" stroke-opacity="1" stroke-width="1.819" d=" M89.45989227294922,43.6384391784668 C89.45989227294922,43.6384391784668 107.64989471435547,54.20943832397461 107.64989471435547,54.20943832397461 C107.64989471435547,54.20943832397461 125.95951080322266,43.6384391784668 125.95951080322266,43.6384391784668 C125.95951080322266,43.6384391784668 107.7695083618164,33.06843948364258 107.7695083618164,33.06843948364258 C107.7695083618164,33.06843948364258 89.45989227294922,43.6384391784668 89.45989227294922,43.6384391784668z"/></g></g></g><g opacity="1" transform="matrix(1,0,0,1,0,0)"><g opacity="1" transform="matrix(1,0,0,1,0,0)"><g opacity="1" transform="matrix(1,0,0,1,0,0)"><path fill="rgb(47,47,47)" fill-opacity="1" d=" M134.11415100097656,36.20399856567383 C134.11415100097656,36.20399856567383 134.64700317382812,111 134.64700317382812,111 C134.64700317382812,111 152.83700561523438,121.57099914550781 152.83700561523438,121.57099914550781 C152.83700561523438,121.57099914550781 152.3041534423828,46.77499771118164 152.3041534423828,46.77499771118164 C152.3041534423828,46.77499771118164 134.11415100097656,36.20399856567383 134.11415100097656,36.20399856567383z"/><path stroke-linecap="round" stroke-linejoin="round" fill-opacity="0" stroke="rgb(47,47,47)" stroke-opacity="1" stroke-width="1.819" d=" M134.11415100097656,36.20399856567383 C134.11415100097656,36.20399856567383 134.64700317382812,111 134.64700317382812,111 C134.64700317382812,111 152.83700561523438,121.57099914550781 152.83700561523438,121.57099914550781 C152.83700561523438,121.57099914550781 152.3041534423828,46.77499771118164 152.3041534423828,46.77499771118164 C152.3041534423828,46.77499771118164 134.11415100097656,36.20399856567383 134.11415100097656,36.20399856567383z"/></g><g opacity="1" transform="matrix(1,0,0,1,0,0)"><path stroke-linecap="round" stroke-linejoin="round" fill-opacity="0" stroke="rgb(47,47,47)" stroke-opacity="1" stroke-width="1.819" d=" M171.13299560546875,111.01399993896484 C171.13299560546875,111.01399993896484 152.8300018310547,121.56600189208984 152.8300018310547,121.56600189208984 C152.8300018310547,121.56600189208984 152.30615234375,46.769996643066406 152.30615234375,46.769996643066406 C152.30615234375,46.769996643066406 170.60916137695312,36.21699905395508 170.60916137695312,36.21699905395508 C170.60916137695312,36.21699905395508 171.13299560546875,111.01399993896484 171.13299560546875,111.01399993896484z"/></g><g opacity="1" transform="matrix(1,0,0,1,0,0)"><path fill="rgb(46,88,255)" fill-opacity="1" d=" M134.11415100097656,36.20399856567383 C134.11415100097656,36.20399856567383 152.3041534423828,46.77499771118164 152.3041534423828,46.77499771118164 C152.3041534423828,46.77499771118164 170.6131591796875,36.20399856567383 170.6131591796875,36.20399856567383 C170.6131591796875,36.20399856567383 152.42315673828125,25.632997512817383 152.42315673828125,25.632997512817383 C152.42315673828125,25.632997512817383 134.11415100097656,36.20399856567383 134.11415100097656,36.20399856567383z"/><path stroke-linecap="round" stroke-linejoin="round" fill-opacity="0" stroke="rgb(47,47,47)" stroke-opacity="1" stroke-width="1.819" d=" M134.11415100097656,36.20399856567383 C134.11415100097656,36.20399856567383 152.3041534423828,46.77499771118164 152.3041534423828,46.77499771118164 C152.3041534423828,46.77499771118164 170.6131591796875,36.20399856567383 170.6131591796875,36.20399856567383 C170.6131591796875,36.20399856567383 152.42315673828125,25.632997512817383 152.42315673828125,25.632997512817383 C152.42315673828125,25.632997512817383 134.11415100097656,36.20399856567383 134.11415100097656,36.20399856567383z"/></g></g></g></g></g></svg>