<svg xmlns="http://www.w3.org/2000/svg" xmlns:xlink="http://www.w3.org/1999/xlink" viewBox="0 0 512 512" width="512" height="512" preserveAspectRatio="xMidYMid meet" style="width: 100%; height: 100%; transform: translate3d(0px, 0px, 0px); content-visibility: visible;"><defs><clipPath id="__lottie_element_105"><rect width="512" height="512" x="0" y="0"/></clipPath><g id="__lottie_element_109"><g transform="matrix(1,0,0,1,256,201.20608520507812)" opacity="1" style="display: block;"><g opacity="1" transform="matrix(1,0,0,1,0,0)"><path fill="rgb(224,224,224)" fill-opacity="1" d=" M41.81999969482422,26.420000076293945 C41.81999969482422,26.420000076293945 41.79999923706055,35.599998474121094 41.79999923706055,35.599998474121094 C41.79999923706055,35.91999816894531 41.619998931884766,36.220001220703125 41.34000015258789,36.380001068115234 C41.34000015258789,36.380001068115234 33.06999969482422,41.189998626708984 33.06999969482422,41.189998626708984 C32.93000030517578,41.27000045776367 32.77000045776367,41.310001373291016 32.61000061035156,41.310001373291016 C32.529998779296875,41.310001373291016 32.45000076293945,41.29999923706055 32.369998931884766,41.27000045776367 C32.290000915527344,41.25 32.220001220703125,41.220001220703125 32.13999938964844,41.18000030517578 C32.13999938964844,41.18000030517578 -0.10000000149011612,22.559999465942383 -0.10000000149011612,22.559999465942383 C-0.10000000149011612,22.559999465942383 -14.59000015258789,52.599998474121094 -14.59000015258789,52.599998474121094 C-14.600000381469727,52.619998931884766 -14.619999885559082,52.68000030517578 -14.640000343322754,52.75 C-14.65999984741211,52.810001373291016 -14.680000305175781,52.86000061035156 -14.699999809265137,52.91999816894531 C-14.869999885559082,54.88999938964844 -15.220000267028809,57.650001525878906 -15.970000267028809,59.86000061035156 C-16.139999389648438,60.36000061035156 -16.3799991607666,61.029998779296875 -16.799999237060547,61.66999816894531 C-17.950000762939453,63.83000183105469 -20.1200008392334,65.87999725341797 -23.020000457763672,67.54000091552734 C-27.81999969482422,70.33000183105469 -34.11000061035156,71.72000122070312 -40.38999938964844,71.72000122070312 C-46.66999816894531,71.72000122070312 -52.939998626708984,70.33000183105469 -57.689998626708984,67.54000091552734 C-60.5,65.93000030517578 -62.54999923706055,63.97999954223633 -63.779998779296875,61.72999954223633 C-63.79999923706055,61.709999084472656 -63.810001373291016,61.689998626708984 -63.83000183105469,61.65999984741211 C-64.12000274658203,61.20000076293945 -64.36000061035156,60.650001525878906 -64.58999633789062,60.119998931884766 C-64.5999984741211,60.08000183105469 -64.62000274658203,60.040000915527344 -64.62999725341797,60 C-64.66000366210938,59.90999984741211 -64.69000244140625,59.810001373291016 -64.72000122070312,59.709999084472656 C-64.77999877929688,59.52000045776367 -64.8499984741211,59.33000183105469 -64.88999938964844,59.130001068115234 C-65.55999755859375,56.86000061035156 -65.83000183105469,54.2599983215332 -65.93000030517578,52.869998931884766 C-65.98999786376953,52.77000045776367 -66.04000091552734,52.66999816894531 -66.06999969482422,52.56999969482422 C-66.06999969482422,52.56999969482422 -67.23999786376953,50.119998931884766 -67.23999786376953,50.119998931884766 C-67.23999786376953,50.119998931884766 -80.5199966430664,22.559999465942383 -80.5199966430664,22.559999465942383 C-80.5199966430664,22.559999465942383 -112.75,41.16999816894531 -112.75,41.16999816894531 C-112.75,41.16999816894531 -112.7699966430664,41.18000030517578 -112.7699966430664,41.18000030517578 C-112.83999633789062,41.220001220703125 -112.91999816894531,41.25 -112.98999786376953,41.27000045776367 C-113.06999969482422,41.29999923706055 -113.16000366210938,41.310001373291016 -113.23999786376953,41.310001373291016 C-113.38999938964844,41.310001373291016 -113.55000305175781,41.27000045776367 -113.69000244140625,41.189998626708984 C-113.69000244140625,41.189998626708984 -121.97000122070312,36.380001068115234 -121.97000122070312,36.380001068115234 C-122.25,36.220001220703125 -122.41999816894531,35.91999816894531 -122.41999816894531,35.599998474121094 C-122.41999816894531,35.599998474121094 -122.44999694824219,26.440000534057617 -122.44999694824219,26.440000534057617 C-122.44999694824219,26.440000534057617 -122.44999694824219,26.420000076293945 -122.44999694824219,26.420000076293945 C-122.44999694824219,26.40999984741211 -122.44999694824219,26.40999984741211 -122.44999694824219,26.399999618530273 C-122.44999694824219,26.34000015258789 -122.44000244140625,26.280000686645508 -122.43000030517578,26.229999542236328 C-122.4000015258789,26.110000610351562 -122.3499984741211,26 -122.27999877929688,25.90999984741211 C-122.27999877929688,25.90999984741211 -100.38999938964844,-5.28000020980835 -100.38999938964844,-5.28000020980835 C-100.38999938964844,-5.28000020980835 -117.87000274658203,-15.359999656677246 -117.87000274658203,-15.359999656677246 C-118.16000366210938,-15.520000457763672 -118.33000183105469,-15.829999923706055 -118.33000183105469,-16.149999618530273 C-118.33000183105469,-16.149999618530273 -118.29000091552734,-25.299999237060547 -118.29000091552734,-25.299999237060547 C-118.29000091552734,-25.3799991607666 -118.27999877929688,-25.450000762939453 -118.26000213623047,-25.520000457763672 C-118.26000213623047,-25.530000686645508 -118.26000213623047,-25.540000915527344 -118.26000213623047,-25.540000915527344 C-118.23999786376953,-25.610000610351562 -118.20999908447266,-25.68000030517578 -118.18000030517578,-25.739999771118164 C-118.18000030517578,-25.739999771118164 -118.18000030517578,-25.739999771118164 -118.16999816894531,-25.75 C-118.13999938964844,-25.809999465942383 -118.08999633789062,-25.8700008392334 -118.04000091552734,-25.920000076293945 C-118.04000091552734,-25.940000534057617 -118.0199966430664,-25.950000762939453 -118,-25.969999313354492 C-117.95999908447266,-26.010000228881836 -117.91000366210938,-26.049999237060547 -117.8499984741211,-26.079999923706055 C-117.81999969482422,-26.100000381469727 -117.79000091552734,-26.1200008392334 -117.76000213623047,-26.1299991607666 C-117.76000213623047,-26.1299991607666 -109.55999755859375,-30.899999618530273 -109.55999755859375,-30.899999618530273 C-109.48999786376953,-30.940000534057617 -109.41999816894531,-30.969999313354492 -109.33999633789062,-30.989999771118164 C-109.33999633789062,-30.989999771118164 -91.9000015258789,-35.630001068115234 -91.9000015258789,-35.630001068115234 C-91.9000015258789,-35.630001068115234 -91.9000015258789,-74.55000305175781 -91.9000015258789,-74.55000305175781 C-91.9000015258789,-106.11000061035156 -76.2699966430664,-134.30999755859375 -63.11000061035156,-152.44000244140625 C-63.099998474121094,-152.4499969482422 -63.09000015258789,-152.47000122070312 -63.08000183105469,-152.49000549316406 C-63.06999969482422,-152.50999450683594 -63.060001373291016,-152.5399932861328 -63.040000915527344,-152.55999755859375 C-62.84000015258789,-152.83999633789062 -62.63999938964844,-153.11000061035156 -62.439998626708984,-153.3800048828125 C-61.869998931884766,-154.16000366210938 -61.29999923706055,-154.91000366210938 -60.72999954223633,-155.64999389648438 C-60.47999954223633,-155.99000549316406 -60.22999954223633,-156.30999755859375 -59.97999954223633,-156.6300048828125 C-59.4900016784668,-157.25999450683594 -59.0099983215332,-157.8800048828125 -58.529998779296875,-158.49000549316406 C-58.31999969482422,-158.75999450683594 -58.11000061035156,-159.02999877929688 -57.900001525878906,-159.3000030517578 C-57.900001525878906,-159.3000030517578 -57.18000030517578,-160.2100067138672 -57.18000030517578,-160.2100067138672 C-56.290000915527344,-161.33999633789062 -55.40999984741211,-162.41000366210938 -54.540000915527344,-163.44000244140625 C-54.54999923706055,-163.4499969482422 -54.540000915527344,-163.4499969482422 -54.529998779296875,-163.4600067138672 C-53.68000030517578,-164.47999572753906 -52.849998474121094,-165.4600067138672 -52.04999923706055,-166.3800048828125 C-51.5099983215332,-167 -50.97999954223633,-167.61000061035156 -50.459999084472656,-168.19000244140625 C-49.959999084472656,-168.75 -49.47999954223633,-169.27999877929688 -49.02000045776367,-169.7899932861328 C-47.599998474121094,-171.35000610351562 -46.33000183105469,-172.67999267578125 -45.279998779296875,-173.75 C-45.279998779296875,-173.75999450683594 -45.279998779296875,-173.75999450683594 -45.27000045776367,-173.77000427246094 C-45.11000061035156,-173.94000244140625 -44.939998626708984,-174.10000610351562 -44.7599983215332,-174.24000549316406 C-44.58000183105469,-174.39999389648438 -44.38999938964844,-174.5500030517578 -44.20000076293945,-174.67999267578125 C-43.630001068115234,-175.07000732421875 -43.02000045776367,-175.3800048828125 -42.36000061035156,-175.5800018310547 C-41.70000076293945,-175.7899932861328 -41.0099983215332,-175.89999389648438 -40.290000915527344,-175.89999389648438 C-38.400001525878906,-175.89999389648438 -36.630001068115234,-175.13999938964844 -35.31999969482422,-173.75999450683594 C-35.31999969482422,-173.75999450683594 -35.31999969482422,-173.75 -35.31999969482422,-173.75 C-33.529998779296875,-171.92999267578125 -31.06999969482422,-169.3000030517578 -28.200000762939453,-165.9499969482422 C-27.520000457763672,-165.1699981689453 -26.81999969482422,-164.35000610351562 -26.110000610351562,-163.49000549316406 C-25.239999771118164,-162.4600067138672 -24.350000381469727,-161.36000061035156 -23.440000534057617,-160.2100067138672 C-23.43000030517578,-160.1999969482422 -23.43000030517578,-160.19000244140625 -23.40999984741211,-160.17999267578125 C-23.40999984741211,-160.17999267578125 -23.399999618530273,-160.1699981689453 -23.399999618530273,-160.1699981689453 C-21.520000457763672,-157.82000732421875 -19.809999465942383,-155.5800018310547 -18.190000534057617,-153.36000061035156 C-17.959999084472656,-153.05999755859375 -17.739999771118164,-152.75 -17.520000457763672,-152.4499969482422 C-17.5,-152.42999267578125 -17.489999771118164,-152.39999389648438 -17.479999542236328,-152.3800048828125 C-17.469999313354492,-152.36000061035156 -17.459999084472656,-152.35000610351562 -17.450000762939453,-152.3300018310547 C-4.309999942779541,-134.25999450683594 11.300000190734863,-106.12999725341797 11.300000190734863,-74.55000305175781 C11.300000190734863,-74.55000305175781 11.300000190734863,-70.94000244140625 11.300000190734863,-70.94000244140625 C11.300000190734863,-70.63999938964844 11.289999961853027,-70.33999633789062 11.270000457763672,-70.04000091552734 C11.270000457763672,-70.04000091552734 11.270000457763672,-35.630001068115234 11.270000457763672,-35.630001068115234 C11.270000457763672,-35.630001068115234 28.719999313354492,-30.989999771118164 28.719999313354492,-30.989999771118164 C28.790000915527344,-30.969999313354492 28.8700008392334,-30.940000534057617 28.940000534057617,-30.899999618530273 C28.940000534057617,-30.899999618530273 37.130001068115234,-26.1299991607666 37.130001068115234,-26.1299991607666 C37.15999984741211,-26.1200008392334 37.189998626708984,-26.100000381469727 37.220001220703125,-26.079999923706055 C37.290000915527344,-26.040000915527344 37.349998474121094,-25.989999771118164 37.400001525878906,-25.940000534057617 C37.459999084472656,-25.8799991607666 37.5099983215332,-25.81999969482422 37.54999923706055,-25.75 C37.560001373291016,-25.739999771118164 37.560001373291016,-25.739999771118164 37.560001373291016,-25.739999771118164 C37.59000015258789,-25.68000030517578 37.619998931884766,-25.610000610351562 37.63999938964844,-25.540000915527344 C37.63999938964844,-25.540000915527344 37.63999938964844,-25.530000686645508 37.63999938964844,-25.520000457763672 C37.65999984741211,-25.450000762939453 37.66999816894531,-25.3700008392334 37.66999816894531,-25.299999237060547 C37.66999816894531,-25.299999237060547 37.70000076293945,-16.149999618530273 37.70000076293945,-16.149999618530273 C37.709999084472656,-15.829999923706055 37.529998779296875,-15.520000457763672 37.25,-15.359999656677246 C37.25,-15.359999656677246 19.770000457763672,-5.28000020980835 19.770000457763672,-5.28000020980835 C19.770000457763672,-5.28000020980835 41.65999984741211,25.90999984741211 41.65999984741211,25.90999984741211 C41.720001220703125,26 41.77000045776367,26.100000381469727 41.790000915527344,26.209999084472656 C41.810001373291016,26.270000457763672 41.81999969482422,26.350000381469727 41.81999969482422,26.420000076293945z"/></g></g></g><filter id="__lottie_element_133" filterUnits="objectBoundingBox" x="0%" y="0%" width="100%" height="100%"><feComponentTransfer in="SourceGraphic"><feFuncA type="table" tableValues="1.0 0.0"/></feComponentTransfer></filter><mask id="__lottie_element_109_2" mask-type="alpha"><g filter="url(#__lottie_element_133)"><rect width="512" height="512" x="0" y="0" fill="#ffffff" opacity="0"/><use xmlns:ns1="http://www.w3.org/1999/xlink" ns1:href="#__lottie_element_109"/></g></mask></defs><g clip-path="url(#__lottie_element_105)"><g mask="url(#__lottie_element_109_2)" style="display: block;"><g transform="matrix(1,0,0,1,256,256)" opacity="1"><g opacity="1" transform="matrix(1,0,0,1,0,0)"><g opacity="1" transform="matrix(1,0,0,1,0,0)"><path fill="rgb(224,224,224)" fill-opacity="1" d=" M-6.966000080108643,93.75599670410156 C-25.26300048828125,104.38899993896484 -55.090999603271484,104.38999938964844 -73.50800323486328,93.75700378417969 C-81.10399627685547,89.37200164794922 -85.5719985961914,83.8489990234375 -86.91899871826172,78.12899780273438 C-88.68299865722656,86.2249984741211 -84.19400024414062,94.70099639892578 -73.44999694824219,100.90399932861328 C-55.03300094604492,111.53700256347656 -25.20599937438965,111.53700256347656 -6.908999919891357,100.90399932861328 C3.8320000171661377,94.66200256347656 8.215999603271484,86.15399932861328 6.302999973297119,78.03900146484375 C5.046000003814697,83.78500366210938 0.6359999775886536,89.33799743652344 -6.966000080108643,93.75599670410156z"/></g></g><g opacity="1" transform="matrix(1,0,0,1,0,0)"><path fill="rgb(224,224,224)" fill-opacity="1" d=" M79.23400115966797,114.36499786376953 C79.23400115966797,114.36499786376953 -3.559999942779541,162.48500061035156 -3.559999942779541,162.48500061035156 C-8.22599983215332,165.15699768066406 -15.802000045776367,165.15699768066406 -20.507999420166016,162.44500732421875 C-20.507999420166016,162.44500732421875 -169.7899932861328,76.26799774169922 -169.7899932861328,76.26799774169922 C-169.7899932861328,76.26799774169922 -173.44000244140625,78.38999938964844 -173.44000244140625,78.38999938964844 C-175.44000244140625,79.55000305175781 -175.4499969482422,82.43000030517578 -173.4499969482422,83.58999633789062 C-147.47000122070312,98.58999633789062 -17.469999313354492,173.63999938964844 -17.469999313354492,173.63999938964844 C-16,174.49000549316406 -13.75,175 -11.449999809265137,175 C-9.170000076293945,175 -6.949999809265137,174.5 -5.510000228881836,173.6699981689453 C-5.510000228881836,173.6699981689453 92.83000183105469,116.5199966430664 92.83000183105469,116.5199966430664 C94.83000183105469,115.3499984741211 94.83999633789062,112.47000122070312 92.83000183105469,111.31999969482422 C91.64299774169922,110.63600158691406 90.23500061035156,109.8239974975586 88.63600158691406,108.9010009765625 C88.63600158691406,108.9010009765625 87.2509994506836,109.70600128173828 87.2509994506836,109.70600128173828 C87.2509994506836,109.70600128173828 79.23400115966797,114.36499786376953 79.23400115966797,114.36499786376953z"/></g><g opacity="1" transform="matrix(1,0,0,1,0,0)"><g opacity="1" transform="matrix(1,0,0,1,0,0)"><g opacity="1" transform="matrix(1,0,0,1,0,0)"><g opacity="1" transform="matrix(1,0,0,1,0,0)"><g opacity="1" transform="matrix(1,0,0,1,0,0)"><g opacity="1" transform="matrix(1,0,0,1,0,0)"><path stroke-linecap="round" stroke-linejoin="round" fill-opacity="0" stroke="rgb(47,47,47)" stroke-opacity="1" stroke-width="1.823" d=" M79.23400115966797,114.36499786376953 C79.23400115966797,114.36499786376953 -3.559999942779541,162.48500061035156 -3.559999942779541,162.48500061035156 C-8.22599983215332,165.15699768066406 -15.802000045776367,165.15699768066406 -20.507999420166016,162.44500732421875 C-20.507999420166016,162.44500732421875 -171.4499969482422,75.30999755859375 -171.4499969482422,75.30999755859375 C-173.80299377441406,73.9540023803711 -174.99899291992188,72.16000366210938 -174.99899291992188,70.36499786376953 C-174.99899291992188,70.36499786376953 -174.95899963378906,57.3650016784668 -174.95899963378906,57.3650016784668 C-174.95899963378906,59.15999984741211 -173.76300048828125,60.95399856567383 -171.41000366210938,62.310001373291016 C-171.41000366210938,62.310001373291016 -20.468000411987305,149.44500732421875 -20.468000411987305,149.44500732421875 C-15.76200008392334,152.15699768066406 -8.185999870300293,152.15699768066406 -3.5199999809265137,149.48500061035156 C-3.5199999809265137,149.48500061035156 93.22599792480469,93.25599670410156 93.22599792480469,93.25599670410156 C95.53900146484375,91.9000015258789 96.69499969482422,90.14600372314453 96.69499969482422,88.35099792480469 C96.69499969482422,88.35099792480469 96.65599822998047,101.35099792480469 96.65599822998047,101.35099792480469 C96.65599822998047,103.1449966430664 95.4990005493164,104.9000015258789 93.18599700927734,106.25599670410156 C93.18599700927734,106.25599670410156 87.2509994506836,109.70600128173828 87.2509994506836,109.70600128173828"/></g></g></g></g><g opacity="1" transform="matrix(1,0,0,1,0,0)"><g opacity="1" transform="matrix(1,0,0,1,0,0)"><path fill="rgb(227,231,240)" fill-opacity="1" d=" M93.16999816894531,83.41999816894531 C93.16999816894531,83.41999816894531 -57.790000915527344,-3.740000009536743 -57.790000915527344,-3.740000009536743 C-62.470001220703125,-6.440000057220459 -70.04000091552734,-6.440000057220459 -74.72000122070312,-3.7200000286102295 C-74.72000122070312,-3.7200000286102295 -171.47000122070312,52.5099983215332 -171.47000122070312,52.5099983215332 C-176.1300048828125,55.209999084472656 -176.10000610351562,59.59000015258789 -171.4199981689453,62.29999923706055 C-171.4199981689453,62.29999923706055 -20.459999084472656,149.4499969482422 -20.459999084472656,149.4499969482422 C-15.770000457763672,152.16000366210938 -8.180000305175781,152.1699981689453 -3.5299999713897705,149.47000122070312 C-3.5299999713897705,149.47000122070312 93.2300033569336,93.23999786376953 93.2300033569336,93.23999786376953 C97.91000366210938,90.5199966430664 97.86000061035156,86.12000274658203 93.16999816894531,83.41999816894531z M83.70999908447266,90.44999694824219 C83.70999908447266,90.44999694824219 -7.010000228881836,143.1699981689453 -7.010000228881836,143.1699981689453 C-8.34000015258789,143.94000244140625 -10.380000114440918,144.39999389648438 -12.489999771118164,144.39999389648438 C-14.609999656677246,144.39999389648438 -16.690000534057617,143.92999267578125 -18.049999237060547,143.14999389648438 C-18.049999237060547,143.14999389648438 -137.97000122070312,73.91000366210938 -161.92999267578125,60.08000183105469 C-163.77999877929688,59.0099983215332 -163.77000427246094,56.349998474121094 -161.92999267578125,55.279998779296875 C-161.92999267578125,55.279998779296875 -71.2300033569336,2.569999933242798 -71.2300033569336,2.569999933242798 C-69.87999725341797,1.7899999618530273 -67.81999969482422,1.3200000524520874 -65.70999908447266,1.3200000524520874 C-63.58000183105469,1.3200000524520874 -61.56999969482422,1.7699999809265137 -60.20000076293945,2.559999942779541 C-60.20000076293945,2.559999942779541 -25.079999923706055,22.84000015258789 10.949999809265137,43.63999938964844 C10.949999809265137,43.63999938964844 19.190000534057617,48.400001525878906 19.190000534057617,48.400001525878906 C46.95000076293945,64.43000030517578 73.69999694824219,79.87000274658203 83.70999908447266,85.6500015258789 C85.55999755859375,86.72000122070312 85.55000305175781,89.37999725341797 83.70999908447266,90.44999694824219z"/><path stroke-linecap="round" stroke-linejoin="round" fill-opacity="0" stroke="rgb(47,47,47)" stroke-opacity="1" stroke-width="1.823" d=" M93.16999816894531,83.41999816894531 C93.16999816894531,83.41999816894531 -57.790000915527344,-3.740000009536743 -57.790000915527344,-3.740000009536743 C-62.470001220703125,-6.440000057220459 -70.04000091552734,-6.440000057220459 -74.72000122070312,-3.7200000286102295 C-74.72000122070312,-3.7200000286102295 -171.47000122070312,52.5099983215332 -171.47000122070312,52.5099983215332 C-176.1300048828125,55.209999084472656 -176.10000610351562,59.59000015258789 -171.4199981689453,62.29999923706055 C-171.4199981689453,62.29999923706055 -20.459999084472656,149.4499969482422 -20.459999084472656,149.4499969482422 C-15.770000457763672,152.16000366210938 -8.180000305175781,152.1699981689453 -3.5299999713897705,149.47000122070312 C-3.5299999713897705,149.47000122070312 93.2300033569336,93.23999786376953 93.2300033569336,93.23999786376953 C97.91000366210938,90.5199966430664 97.86000061035156,86.12000274658203 93.16999816894531,83.41999816894531z M83.70999908447266,90.44999694824219 C83.70999908447266,90.44999694824219 -7.010000228881836,143.1699981689453 -7.010000228881836,143.1699981689453 C-8.34000015258789,143.94000244140625 -10.380000114440918,144.39999389648438 -12.489999771118164,144.39999389648438 C-14.609999656677246,144.39999389648438 -16.690000534057617,143.92999267578125 -18.049999237060547,143.14999389648438 C-18.049999237060547,143.14999389648438 -137.97000122070312,73.91000366210938 -161.92999267578125,60.08000183105469 C-163.77999877929688,59.0099983215332 -163.77000427246094,56.349998474121094 -161.92999267578125,55.279998779296875 C-161.92999267578125,55.279998779296875 -71.2300033569336,2.569999933242798 -71.2300033569336,2.569999933242798 C-69.87999725341797,1.7899999618530273 -67.81999969482422,1.3200000524520874 -65.70999908447266,1.3200000524520874 C-63.58000183105469,1.3200000524520874 -61.56999969482422,1.7699999809265137 -60.20000076293945,2.559999942779541 C-60.20000076293945,2.559999942779541 -25.079999923706055,22.84000015258789 10.949999809265137,43.63999938964844 C10.949999809265137,43.63999938964844 19.190000534057617,48.400001525878906 19.190000534057617,48.400001525878906 C46.95000076293945,64.43000030517578 73.69999694824219,79.87000274658203 83.70999908447266,85.6500015258789 C85.55999755859375,86.72000122070312 85.55000305175781,89.37999725341797 83.70999908447266,90.44999694824219z"/></g></g></g><g opacity="1" transform="matrix(1,0,0,1,0,0)"><path stroke-linecap="round" stroke-linejoin="round" fill-opacity="0" stroke="rgb(47,47,47)" stroke-opacity="1" stroke-width="1.823" d=" M-51.678001403808594,123.73200225830078 C-22.624000549316406,140.5070037841797 -18.04599952697754,143.14999389648438 -18.04599952697754,143.14999389648438 C-16.687000274658203,143.93499755859375 -14.607999801635742,144.40199279785156 -12.486000061035156,144.40199279785156 C-12.486000061035156,144.40199279785156 -12.486000061035156,144.40199279785156 -12.486000061035156,144.40199279785156 C-10.383000373840332,144.40199279785156 -8.336999893188477,143.9429931640625 -7.01200008392334,143.1719970703125 C-7.01200008392334,143.1719970703125 83.71099853515625,90.4489974975586 83.71099853515625,90.4489974975586 C85.55500030517578,89.37699890136719 85.56199645996094,86.71900177001953 83.71499633789062,85.65299987792969 C73.70500183105469,79.8740005493164 13.932000160217285,45.36399841308594 -13.829999923706055,29.334999084472656 C-13.829999923706055,29.334999084472656 -28.101999282836914,21.09600067138672 -28.101999282836914,21.09600067138672 C-63.31100082397461,0.7680000066757202 -60.19900131225586,2.563999891281128 -60.19900131225586,2.563999891281128 C-61.569000244140625,1.7730000019073486 -63.57699966430664,1.3209999799728394 -65.71199798583984,1.3209999799728394 C-67.81999969482422,1.3209999799728394 -69.88400268554688,1.7879999876022339 -71.23100280761719,2.569999933242798 C-71.23100280761719,2.569999933242798 -161.92999267578125,55.27899932861328 -161.92999267578125,55.27899932861328 C-163.7740020751953,56.35100173950195 -163.781005859375,59.00899887084961 -161.9340057373047,60.07500076293945 C-149.7480010986328,67.11100006103516 -100.5459976196289,95.51799774169922 -67.12100219726562,114.81600189208984"/></g><g opacity="1" transform="matrix(1,0,0,1,0,0)"><g opacity="1" transform="matrix(1,0,0,1,0,0)"><g opacity="1" transform="matrix(1,0,0,1,0,0)"><g opacity="1" transform="matrix(1,0,0,1,0,0)"><path fill="rgb(47,47,47)" fill-opacity="1" d=" M-10.067000389099121,151.3820037841797 C-13.732999801635742,151.71600341796875 -17.62299919128418,151.08399963378906 -20.468000411987305,149.44500732421875 C-20.468000411987305,149.44500732421875 -171.41000366210938,62.310001373291016 -171.41000366210938,62.310001373291016 C-173.76300048828125,60.95399856567383 -174.95899963378906,59.15999984741211 -174.95899963378906,57.3650016784668 C-174.95899963378906,57.3650016784668 -174.99899291992188,70.36499786376953 -174.99899291992188,70.36499786376953 C-174.99899291992188,72.16000366210938 -173.80299377441406,73.9540023803711 -171.4499969482422,75.30999755859375 C-171.4499969482422,75.30999755859375 -20.507999420166016,162.44500732421875 -20.507999420166016,162.44500732421875 C-17.652999877929688,164.08999633789062 -13.744000434875488,164.7220001220703 -10.067000389099121,164.3800048828125 C-10.067000389099121,164.3800048828125 -10.067000389099121,151.3820037841797 -10.067000389099121,151.3820037841797z"/></g></g></g></g><g opacity="1" transform="matrix(1,0,0,1,0,0)"><g opacity="1" transform="matrix(1,0,0,1,0,0)"><g opacity="1" transform="matrix(1,0,0,1,0,0)"><path fill="rgb(47,47,47)" fill-opacity="1" d=" M60.99800109863281,119.12699890136719 C60.99800109863281,120.09500122070312 60.323001861572266,121.26899719238281 59.50199890136719,121.73799896240234 C58.6510009765625,122.20700073242188 58.005001068115234,121.82599639892578 58.005001068115234,120.88700103759766 C58.005001068115234,119.91899871826172 58.6510009765625,118.74500274658203 59.47200012207031,118.2760009765625 C60.323001861572266,117.80599975585938 60.99800109863281,118.18800354003906 60.99800109863281,119.12699890136719z"/></g><g opacity="1" transform="matrix(1,0,0,1,0,0)"><path fill="rgb(47,47,47)" fill-opacity="1" d=" M54.185001373291016,120.80400085449219 C54.185001373291016,120.80400085449219 53.48699951171875,125.58999633789062 53.48699951171875,125.58999633789062 C53.48699951171875,125.58999633789062 46.11899948120117,129.875 46.11899948120117,129.875 C46.11899948120117,129.875 45.38999938964844,125.87999725341797 45.38999938964844,125.87999725341797 C45.38999938964844,125.87999725341797 54.185001373291016,120.80400085449219 54.185001373291016,120.80400085449219z"/></g><g opacity="1" transform="matrix(1,0,0,1,0,0)"><path fill="rgb(47,47,47)" fill-opacity="1" d=" M41.340999603271484,130.4810028076172 C41.340999603271484,131.4199981689453 40.66699981689453,132.593994140625 39.845001220703125,133.06300354003906 C39.02399826049805,133.56199645996094 38.347999572753906,133.17999267578125 38.347999572753906,132.21200561523438 C38.347999572753906,131.24400329589844 39.02399826049805,130.0989990234375 39.845001220703125,129.6300048828125 C40.66699981689453,129.13099670410156 41.340999603271484,129.51300048828125 41.340999603271484,130.4810028076172z"/></g></g></g><g opacity="1" transform="matrix(1,0,0,1,0,0)"><g opacity="1" transform="matrix(1,0,0,1,0,0)"><path fill="rgb(47,47,47)" fill-opacity="1" d=" M25.60700035095215,106.50499725341797 C23.333999633789062,107.81800079345703 23.32200050354004,109.93900299072266 25.586999893188477,111.25499725341797 C27.84000015258789,112.56400299072266 31.510000228881836,112.56800079345703 33.78300094604492,111.25499725341797 C36.055999755859375,109.94200134277344 36.06800079345703,107.81400299072266 33.814998626708984,106.50499725341797 C31.549999237060547,105.18900299072266 27.8799991607666,105.19200134277344 25.60700035095215,106.50499725341797z"/><path stroke-linecap="round" stroke-linejoin="round" fill-opacity="0" stroke="rgb(47,47,47)" stroke-opacity="1" stroke-width="1.823" d=" M25.60700035095215,106.50499725341797 C23.333999633789062,107.81800079345703 23.32200050354004,109.93900299072266 25.586999893188477,111.25499725341797 C27.84000015258789,112.56400299072266 31.510000228881836,112.56800079345703 33.78300094604492,111.25499725341797 C36.055999755859375,109.94200134277344 36.06800079345703,107.81400299072266 33.814998626708984,106.50499725341797 C31.549999237060547,105.18900299072266 27.8799991607666,105.19200134277344 25.60700035095215,106.50499725341797z"/></g></g><g opacity="1" transform="matrix(1,0,0,1,0,0)"><g opacity="1" transform="matrix(1,0,0,1,0,0)"><path fill="rgb(255,255,255)" fill-opacity="1" d=" M60.19499969482422,79.61399841308594 C60.19499969482422,79.61399841308594 55.650001525878906,76.98999786376953 55.650001525878906,76.98999786376953"/><path stroke-linecap="round" stroke-linejoin="round" fill-opacity="0" stroke="rgb(47,47,47)" stroke-opacity="1" stroke-width="1.823" d=" M60.19499969482422,79.61399841308594 C60.19499969482422,79.61399841308594 55.650001525878906,76.98999786376953 55.650001525878906,76.98999786376953"/></g><g opacity="1" transform="matrix(1,0,0,1,0,0)"><path fill="rgb(255,255,255)" fill-opacity="1" d=" M67.09100341796875,92.11699676513672 C67.09100341796875,92.11699676513672 74.4469985961914,87.84200286865234 74.4469985961914,87.84200286865234 C74.4469985961914,87.84200286865234 64.28199768066406,81.9739990234375 64.28199768066406,81.9739990234375"/><path stroke-linecap="round" stroke-linejoin="round" fill-opacity="0" stroke="rgb(47,47,47)" stroke-opacity="1" stroke-width="1.823" d=" M67.09100341796875,92.11699676513672 C67.09100341796875,92.11699676513672 74.4469985961914,87.84200286865234 74.4469985961914,87.84200286865234 C74.4469985961914,87.84200286865234 64.28199768066406,81.9739990234375 64.28199768066406,81.9739990234375"/></g></g><g opacity="1" transform="matrix(1,0,0,1,0,0)"><g opacity="1" transform="matrix(1,0,0,1,0,0)"><g opacity="1" transform="matrix(1,0,0,1,0,0)"><g opacity="1" transform="matrix(1,0,0,1,0,0)"><path fill="rgb(227,231,240)" fill-opacity="1" d=" M6.748000144958496,60.78099822998047 C6.748000144958496,60.78099822998047 6.690000057220459,74.64399719238281 6.690000057220459,74.64399719238281 C6.670000076293945,81.56300354003906 2.127000093460083,88.4729995727539 -6.966000080108643,93.75700378417969 C-25.26300048828125,104.38999938964844 -55.090999603271484,104.38999938964844 -73.50800323486328,93.75700378417969 C-82.75900268554688,88.41600036621094 -87.38099670410156,81.38999938964844 -87.36100006103516,74.37200164794922 C-87.36100006103516,74.37200164794922 -87.3030014038086,60.50899887084961 -87.3030014038086,60.50899887084961 C-87.322998046875,67.5270004272461 -82.70099639892578,74.5530014038086 -73.44999694824219,79.89399719238281 C-55.03300094604492,90.5270004272461 -25.204999923706055,90.5270004272461 -6.9079999923706055,79.89399719238281 C2.184999942779541,74.61000061035156 6.728000164031982,67.69999694824219 6.748000144958496,60.78099822998047z"/></g></g><g opacity="1" transform="matrix(1,0,0,1,0,0)"><g opacity="1" transform="matrix(1,0,0,1,0,0)"><path fill="rgb(47,47,47)" fill-opacity="1" d=" M-78.75900268554688,76.1969985961914 C-84.44000244140625,71.50199890136719 -87.31800079345703,66.00900268554688 -87.3030014038086,60.50899887084961 C-87.3030014038086,60.50899887084961 -87.36100006103516,74.37200164794922 -87.36100006103516,74.37200164794922 C-87.37699890136719,79.88999938964844 -84.47699737548828,85.4000015258789 -78.75900268554688,90.1050033569336 C-78.75900268554688,90.1050033569336 -78.75900268554688,76.1969985961914 -78.75900268554688,76.1969985961914z"/></g></g><g opacity="1" transform="matrix(1,0,0,1,0,0)"><g opacity="1" transform="matrix(1,0,0,1,0,0)"><path stroke-linecap="round" stroke-linejoin="round" fill-opacity="0" stroke="rgb(47,47,47)" stroke-opacity="1" stroke-width="1.823" d=" M-27.707000732421875,100.76000213623047 C-43.47200012207031,103.26300048828125 -61.08599853515625,100.92900085449219 -73.50800323486328,93.75700378417969 C-82.75900268554688,88.41600036621094 -87.38099670410156,81.38999938964844 -87.36100006103516,74.37200164794922 C-87.36100006103516,74.37200164794922 -87.3030014038086,60.50899887084961 -87.3030014038086,60.50899887084961 C-87.322998046875,67.5270004272461 -82.70099639892578,74.5530014038086 -73.44999694824219,79.89399719238281 C-55.03300094604492,90.5270004272461 -25.204999923706055,90.5270004272461 -6.9079999923706055,79.89399719238281 C2.184999942779541,74.61000061035156 6.728000164031982,67.69999694824219 6.748000144958496,60.78099822998047 C6.748000144958496,60.78099822998047 6.690000057220459,74.64399719238281 6.690000057220459,74.64399719238281 C6.670000076293945,81.56300354003906 2.127000093460083,88.4729995727539 -6.966000080108643,93.75700378417969 C-10.161999702453613,95.61399841308594 -13.708999633789062,97.14700317382812 -17.486000061035156,98.3550033569336"/></g></g><g opacity="1" transform="matrix(1,0,0,1,0,0)"><g opacity="1" transform="matrix(1,0,0,1,0,0)"><path stroke-linecap="round" stroke-linejoin="round" fill-opacity="0" stroke="rgb(47,47,47)" stroke-opacity="1" stroke-width="1.823" d=" M-7.1519999504089355,41.36600112915039 C11.265000343322754,51.999000549316406 11.416000366210938,69.24500274658203 -6.9079999923706055,79.89399719238281 C-25.204999923706055,90.5270004272461 -55.03300094604492,90.5270004272461 -73.44999694824219,79.89399719238281 C-91.83999633789062,69.2760009765625 -91.93699645996094,52 -73.63999938964844,41.367000579833984 C-55.316001892089844,30.718000411987305 -25.54199981689453,30.74799919128418 -7.1519999504089355,41.36600112915039z"/></g></g><g opacity="1" transform="matrix(1,0,0,1,0,0)"><g opacity="1" transform="matrix(1,0,0,1,0,0)"><path fill="rgb(227,231,240)" fill-opacity="1" d=" M-17.256999969482422,47.854000091552734 C-4.458000183105469,54.90599822998047 -4.354000091552734,66.34400177001953 -17.08799934387207,73.40599822998047 C-29.804000854492188,80.45800018310547 -50.53200149536133,80.45800018310547 -63.33100128173828,73.40599822998047 C-76.11100006103516,66.36399841308594 -76.17900085449219,54.90700149536133 -63.4630012512207,47.85499954223633 C-50.729000091552734,40.792999267578125 -30.03700065612793,40.8120002746582 -17.256999969482422,47.854000091552734z"/></g></g></g></g></g></g></g><g transform="matrix(1,0,0,1,256,201.20611572265625)" opacity="1" style="display: block;"><g opacity="1" transform="matrix(1,0,0,1,0,0)"><g opacity="1" transform="matrix(1,0,0,1,0,0)"><g opacity="1" transform="matrix(1,0,0,1,0,0)"><g opacity="1" transform="matrix(1,0,0,1,0,0)"><g opacity="1" transform="matrix(1,0,0,1,0,0)"><g opacity="1" transform="matrix(1,0,0,1,0,0)"><g opacity="1" transform="matrix(1,0,0,1,0,0)"><g opacity="1" transform="matrix(1,0,0,1,0,0)"><path fill="rgb(47,47,47)" fill-opacity="1" d=" M36.75699996948242,-25.301000595092773 C36.75699996948242,-25.301000595092773 10.362000465393066,-32.33700180053711 10.362000465393066,-32.33700180053711 C10.362000465393066,-32.33700180053711 10.362000465393066,-34.92499923706055 10.362000465393066,-34.92499923706055 C10.362000465393066,-34.92499923706055 28.481000900268555,-30.113000869750977 28.481000900268555,-30.113000869750977 C28.481000900268555,-30.113000869750977 36.75699996948242,-25.301000595092773 36.75699996948242,-25.301000595092773z"/><path stroke-linecap="round" stroke-linejoin="round" fill-opacity="0" stroke="rgb(47,47,47)" stroke-opacity="1" stroke-width="1.823" d=" M36.75699996948242,-25.301000595092773 C36.75699996948242,-25.301000595092773 10.362000465393066,-32.33700180053711 10.362000465393066,-32.33700180053711 C10.362000465393066,-32.33700180053711 10.362000465393066,-34.92499923706055 10.362000465393066,-34.92499923706055 C10.362000465393066,-34.92499923706055 28.481000900268555,-30.113000869750977 28.481000900268555,-30.113000869750977 C28.481000900268555,-30.113000869750977 36.75699996948242,-25.301000595092773 36.75699996948242,-25.301000595092773z"/></g></g><g opacity="1" transform="matrix(1,0,0,1,0,0)"><g opacity="1" transform="matrix(1,0,0,1,0,0)"><path stroke-linecap="round" stroke-linejoin="round" fill-opacity="0" stroke="rgb(47,47,47)" stroke-opacity="1" stroke-width="1.823" d=" M10.362000465393066,-32.33700180053711 C10.362000465393066,-32.33700180053711 36.75699996948242,-25.301000595092773 36.75699996948242,-25.301000595092773 C36.75699996948242,-25.301000595092773 36.792999267578125,-16.149999618530273 36.792999267578125,-16.149999618530273 C36.792999267578125,-16.149999618530273 18.454999923706055,-5.578000068664551 18.454999923706055,-5.578000068664551"/></g></g></g></g></g><g opacity="1" transform="matrix(1,0,0,1,0,0)"><g opacity="1" transform="matrix(1,0,0,1,0,0)"><g opacity="1" transform="matrix(1,0,0,1,0,0)"><g opacity="1" transform="matrix(1,0,0,1,0,0)"><g opacity="1" transform="matrix(1,0,0,1,0,0)"><path fill="rgb(47,47,47)" fill-opacity="1" d=" M-90.98699951171875,-34.92499923706055 C-90.98699951171875,-34.92499923706055 -90.98699951171875,-32.33700180053711 -90.98699951171875,-32.33700180053711 C-90.98699951171875,-32.33700180053711 -117.38200378417969,-25.301000595092773 -117.38200378417969,-25.301000595092773 C-117.38200378417969,-25.301000595092773 -109.10600280761719,-30.113000869750977 -109.10600280761719,-30.113000869750977 C-109.10600280761719,-30.113000869750977 -90.98699951171875,-34.92499923706055 -90.98699951171875,-34.92499923706055z"/><path stroke-linecap="round" stroke-linejoin="round" fill-opacity="0" stroke="rgb(47,47,47)" stroke-opacity="1" stroke-width="1.823" d=" M-90.98699951171875,-34.92499923706055 C-90.98699951171875,-34.92499923706055 -90.98699951171875,-32.33700180053711 -90.98699951171875,-32.33700180053711 C-90.98699951171875,-32.33700180053711 -117.38200378417969,-25.301000595092773 -117.38200378417969,-25.301000595092773 C-117.38200378417969,-25.301000595092773 -109.10600280761719,-30.113000869750977 -109.10600280761719,-30.113000869750977 C-109.10600280761719,-30.113000869750977 -90.98699951171875,-34.92499923706055 -90.98699951171875,-34.92499923706055z"/></g></g><g opacity="1" transform="matrix(1,0,0,1,0,0)"><g opacity="1" transform="matrix(1,0,0,1,0,0)"><path stroke-linecap="round" stroke-linejoin="round" fill-opacity="0" stroke="rgb(47,47,47)" stroke-opacity="1" stroke-width="1.823" d=" M-99.08100128173828,-5.578000068664551 C-99.08100128173828,-5.578000068664551 -117.41799926757812,-16.149999618530273 -117.41799926757812,-16.149999618530273 C-117.41799926757812,-16.149999618530273 -117.38200378417969,-25.301000595092773 -117.38200378417969,-25.301000595092773 C-117.38200378417969,-25.301000595092773 -90.98699951171875,-32.33700180053711 -90.98699951171875,-32.33700180053711"/></g></g></g></g></g></g><g opacity="1" transform="matrix(1,0,0,1,0,0)"><path fill="rgb(47,47,47)" fill-opacity="1" d=" M-15.595000267028809,52.715999603271484 C-15.777000427246094,54.939998626708984 -16.142000198364258,57.52799987792969 -16.834999084472656,59.56999969482422 C-17.017000198364258,60.117000579833984 -17.235000610351562,60.66400146484375 -17.562999725341797,61.17399978637695 C-18.656999588012695,63.215999603271484 -20.66200065612793,65.14800262451172 -23.4689998626709,66.75199890136719 C-32.8380012512207,72.18399810791016 -47.96799850463867,72.18399810791016 -57.22800064086914,66.75199890136719 C-60.03499984741211,65.14800262451172 -61.930999755859375,63.25299835205078 -63.025001525878906,61.21099853515625 C-63.06100082397461,61.21099853515625 -63.06100082397461,61.209999084472656 -63.06100082397461,61.17399978637695 C-63.316001892089844,60.77299880981445 -63.53499984741211,60.262001037597656 -63.75400161743164,59.75199890136719 C-63.82699966430664,59.49700164794922 -63.93600082397461,59.20500183105469 -64.00900268554688,58.91400146484375 C-64.55599975585938,57.018001556396484 -64.88400268554688,54.685001373291016 -65.02999877929688,52.715999603271484 C-63.972999572753906,55.30500030517578 -61.638999938964844,57.74700164794922 -58.17599868774414,59.78900146484375 C-48.222999572753906,65.54900360107422 -32.18199920654297,65.54900360107422 -22.339000701904297,59.78900146484375 C-18.875999450683594,57.784000396728516 -16.615999221801758,55.30500030517578 -15.595000267028809,52.715999603271484z"/><path stroke-linecap="round" stroke-linejoin="round" fill-opacity="0" stroke="rgb(47,47,47)" stroke-opacity="1" stroke-width="1.823" d=" M-15.595000267028809,52.715999603271484 C-15.777000427246094,54.939998626708984 -16.142000198364258,57.52799987792969 -16.834999084472656,59.56999969482422 C-17.017000198364258,60.117000579833984 -17.235000610351562,60.66400146484375 -17.562999725341797,61.17399978637695 C-18.656999588012695,63.215999603271484 -20.66200065612793,65.14800262451172 -23.4689998626709,66.75199890136719 C-32.8380012512207,72.18399810791016 -47.96799850463867,72.18399810791016 -57.22800064086914,66.75199890136719 C-60.03499984741211,65.14800262451172 -61.930999755859375,63.25299835205078 -63.025001525878906,61.21099853515625 C-63.06100082397461,61.21099853515625 -63.06100082397461,61.209999084472656 -63.06100082397461,61.17399978637695 C-63.316001892089844,60.77299880981445 -63.53499984741211,60.262001037597656 -63.75400161743164,59.75199890136719 C-63.82699966430664,59.49700164794922 -63.93600082397461,59.20500183105469 -64.00900268554688,58.91400146484375 C-64.55599975585938,57.018001556396484 -64.88400268554688,54.685001373291016 -65.02999877929688,52.715999603271484 C-63.972999572753906,55.30500030517578 -61.638999938964844,57.74700164794922 -58.17599868774414,59.78900146484375 C-48.222999572753906,65.54900360107422 -32.18199920654297,65.54900360107422 -22.339000701904297,59.78900146484375 C-18.875999450683594,57.784000396728516 -16.615999221801758,55.30500030517578 -15.595000267028809,52.715999603271484z"/></g><g opacity="1" transform="matrix(1,0,0,1,0,0)"><path stroke-linecap="round" stroke-linejoin="round" fill-opacity="0" stroke="rgb(47,47,47)" stroke-opacity="1" stroke-width="1.823" d=" M-80.12300109863281,21.291000366210938 C-80.12300109863281,21.291000366210938 -66.41500091552734,49.72700119018555 -66.41500091552734,49.72700119018555 C-66.41500091552734,49.72700119018555 -65.21199798583984,52.242000579833984 -65.21199798583984,52.242000579833984 C-65.1760025024414,52.38800048828125 -65.10299682617188,52.49700164794922 -65.02999877929688,52.643001556396484 C-65.06600189208984,52.67900085449219 -65.02999877929688,52.715999603271484 -65.02999877929688,52.715999603271484 C-63.972999572753906,55.30400085449219 -61.638999938964844,57.74700164794922 -58.17599868774414,59.78900146484375 C-48.222999572753906,65.54900360107422 -32.18199920654297,65.54900360107422 -22.339000701904297,59.78900146484375 C-18.875999450683594,57.784000396728516 -16.615999221801758,55.30400085449219 -15.595000267028809,52.715999603271484 C-15.522000312805176,52.534000396728516 -15.486000061035156,52.38800048828125 -15.413000106811523,52.20600128173828 C-15.413000106811523,52.20600128173828 -14.246000289916992,49.79999923706055 -14.246000289916992,49.79999923706055 C-14.246000289916992,49.79999923706055 -6.443999767303467,33.612998962402344 -6.443999767303467,33.612998962402344 C-6.443999767303467,33.612998962402344 -3.5280001163482666,27.597999572753906 -3.5280001163482666,27.597999572753906 C-3.5280001163482666,27.597999572753906 -0.5019999742507935,21.291000366210938 -0.5019999742507935,21.291000366210938"/></g><g opacity="1" transform="matrix(1,0,0,1,0,0)"><path stroke-linecap="round" stroke-linejoin="round" fill-opacity="0" stroke="rgb(47,47,47)" stroke-opacity="1" stroke-width="1.823" d=" M10.388999938964844,-74.5479965209961 C10.388999938964844,-74.5479965209961 10.388999938964844,-70.94200134277344 10.388999938964844,-70.94200134277344 C10.317000389099121,-63.40700149536133 5.341000080108643,-55.90800094604492 -4.609000205993652,-50.17599868774414 C-24.474000930786133,-38.71099853515625 -56.525001525878906,-38.74700164794922 -76.24600219726562,-50.17599868774414 C-86.08799743652344,-55.90800094604492 -90.99199676513672,-63.40700149536133 -90.99199676513672,-70.90599822998047 C-90.99199676513672,-70.90599822998047 -90.99199676513672,-70.90599822998047 -90.99199676513672,-70.94200134277344 C-90.99199676513672,-70.94200134277344 -90.99199676513672,-74.5479965209961 -90.99199676513672,-74.5479965209961 C-90.99199676513672,-105.44499969482422 -75.99400329589844,-133.1699981689453 -62.29399871826172,-152.0260009765625 C-60.31100082397461,-154.76600646972656 -58.327999114990234,-157.28900146484375 -56.452999114990234,-159.63299560546875 C-51.801998138427734,-165.50999450683594 -47.58399963378906,-170.08900451660156 -44.62799835205078,-173.11700439453125 C-42.24800109863281,-175.60499572753906 -38.35499954223633,-175.60499572753906 -35.974998474121094,-173.11700439453125 C-33.01900100708008,-170.08900451660156 -28.801000595092773,-165.4739990234375 -24.11400032043457,-159.5970001220703 C-22.23900032043457,-157.2530059814453 -20.256000518798828,-154.6929931640625 -18.273000717163086,-151.91700744628906 C-4.572999954223633,-133.0970001220703 10.388999938964844,-105.40899658203125 10.388999938964844,-74.5479965209961z"/></g><g opacity="1" transform="matrix(1,0,0,1,0,0)"><path stroke-linecap="round" stroke-linejoin="round" fill-opacity="0" stroke="rgb(47,47,47)" stroke-opacity="1" stroke-width="1.823" d=" M-83.51599884033203,-81.41600036621094 C-83.69000244140625,-79.14700317382812 -83.78099822998047,-76.85600280761719 -83.78099822998047,-74.54900360107422 C-83.78099822998047,-74.54900360107422 -83.78099822998047,-70.90599822998047 -83.78099822998047,-70.90599822998047 C-83.78099822998047,-66.61900329589844 -80.88600158691406,-62.1870002746582 -75.7300033569336,-58.43000030517578"/></g><g opacity="1" transform="matrix(1,0,0,1,0,0)"><path stroke-linecap="round" stroke-linejoin="round" fill-opacity="0" stroke="rgb(47,47,47)" stroke-opacity="1" stroke-width="1.823" d=" M-81.28399658203125,-95.91000366210938 C-81.9800033569336,-92.87000274658203 -82.54900360107422,-89.7760009765625 -82.96700286865234,-86.63600158691406"/></g><g opacity="1" transform="matrix(1,0,0,1,0,0)"><path fill="rgb(227,231,240)" fill-opacity="1" d=" M10.362000465393066,-70.94400024414062 C10.362000465393066,-70.94400024414062 10.362000465393066,-17.097999572753906 10.362000465393066,-17.097999572753906 C10.362000465393066,-17.097999572753906 0.8109999895095825,-30.695999145507812 0.8109999895095825,-30.695999145507812 C0.8109999895095825,-30.695999145507812 -7.465000152587891,-25.884000778198242 -7.465000152587891,-25.884000778198242 C-7.465000152587891,-25.884000778198242 -7.611000061035156,17.135000228881836 -7.611000061035156,17.135000228881836 C-26.38599967956543,26.395000457763672 -54.16600036621094,26.320999145507812 -73.01399993896484,17.024999618530273 C-73.01399993896484,17.024999618530273 -73.16000366210938,-25.884000778198242 -73.16000366210938,-25.884000778198242 C-73.16000366210938,-25.884000778198242 -81.43499755859375,-30.695999145507812 -81.43499755859375,-30.695999145507812 C-81.43499755859375,-30.695999145507812 -90.98699951171875,-17.097999572753906 -90.98699951171875,-17.097999572753906 C-90.98699951171875,-17.097999572753906 -90.98699951171875,-70.87200164794922 -90.98699951171875,-70.87200164794922 C-90.98699951171875,-63.39799880981445 -86.06500244140625,-55.887001037597656 -76.22200012207031,-50.16400146484375 C-56.53499984741211,-38.75299835205078 -24.452999114990234,-38.71699905395508 -4.620999813079834,-50.16400146484375 C5.331999778747559,-55.887001037597656 10.326000213623047,-63.433998107910156 10.362000465393066,-70.94400024414062z"/><path stroke-linecap="round" stroke-linejoin="round" fill-opacity="0" stroke="rgb(47,47,47)" stroke-opacity="1" stroke-width="1.823" d=" M10.362000465393066,-70.94400024414062 C10.362000465393066,-70.94400024414062 10.362000465393066,-17.097999572753906 10.362000465393066,-17.097999572753906 C10.362000465393066,-17.097999572753906 0.8109999895095825,-30.695999145507812 0.8109999895095825,-30.695999145507812 C0.8109999895095825,-30.695999145507812 -7.465000152587891,-25.884000778198242 -7.465000152587891,-25.884000778198242 C-7.465000152587891,-25.884000778198242 -7.611000061035156,17.135000228881836 -7.611000061035156,17.135000228881836 C-26.38599967956543,26.395000457763672 -54.16600036621094,26.320999145507812 -73.01399993896484,17.024999618530273 C-73.01399993896484,17.024999618530273 -73.16000366210938,-25.884000778198242 -73.16000366210938,-25.884000778198242 C-73.16000366210938,-25.884000778198242 -81.43499755859375,-30.695999145507812 -81.43499755859375,-30.695999145507812 C-81.43499755859375,-30.695999145507812 -90.98699951171875,-17.097999572753906 -90.98699951171875,-17.097999572753906 C-90.98699951171875,-17.097999572753906 -90.98699951171875,-70.87200164794922 -90.98699951171875,-70.87200164794922 C-90.98699951171875,-63.39799880981445 -86.06500244140625,-55.887001037597656 -76.22200012207031,-50.16400146484375 C-56.53499984741211,-38.75299835205078 -24.452999114990234,-38.71699905395508 -4.620999813079834,-50.16400146484375 C5.331999778747559,-55.887001037597656 10.326000213623047,-63.433998107910156 10.362000465393066,-70.94400024414062z"/></g><g opacity="1" transform="matrix(1,0,0,1,0,0)"><g opacity="1" transform="matrix(1,0,0,1,0,0)"><g opacity="1" transform="matrix(1,0,0,1,0,0)"><g opacity="1" transform="matrix(1,0,0,1,0,0)"><g opacity="1" transform="matrix(1,0,0,1,0,0)"><g opacity="1" transform="matrix(1,0,0,1,0,0)"><path stroke-linecap="round" stroke-linejoin="round" fill-opacity="0" stroke="rgb(47,47,47)" stroke-opacity="1" stroke-width="1.823" d=" M40.91299819946289,26.430999755859375 C40.91299819946289,26.430999755859375 32.637001037597656,31.243000030517578 32.637001037597656,31.243000030517578 C32.637001037597656,31.243000030517578 9.887999534606934,-1.1670000553131104 9.887999534606934,-1.1670000553131104 C9.887999534606934,-1.1670000553131104 -7.465000152587891,-25.884000778198242 -7.465000152587891,-25.884000778198242 C-7.465000152587891,-25.884000778198242 0.8109999895095825,-30.695999145507812 0.8109999895095825,-30.695999145507812 C0.8109999895095825,-30.695999145507812 10.362000465393066,-17.097999572753906 10.362000465393066,-17.097999572753906 C10.362000465393066,-17.097999572753906 40.91299819946289,26.430999755859375 40.91299819946289,26.430999755859375z"/></g></g><g opacity="1" transform="matrix(1,0,0,1,0,0)"><g opacity="1" transform="matrix(1,0,0,1,0,0)"><path fill="rgb(47,47,47)" fill-opacity="1" d=" M32.63800048828125,31.229999542236328 C32.63800048828125,31.229999542236328 40.9119987487793,26.422000885009766 40.9119987487793,26.422000885009766 C40.9119987487793,26.422000885009766 40.88600158691406,35.59400177001953 40.88600158691406,35.59400177001953 C40.88600158691406,35.59400177001953 32.61199951171875,40.40299987792969 32.61199951171875,40.40299987792969 C32.61199951171875,40.40299987792969 32.63800048828125,31.229999542236328 32.63800048828125,31.229999542236328z"/><path stroke-linecap="round" stroke-linejoin="round" fill-opacity="0" stroke="rgb(47,47,47)" stroke-opacity="1" stroke-width="1.823" d=" M32.63800048828125,31.229999542236328 C32.63800048828125,31.229999542236328 40.9119987487793,26.422000885009766 40.9119987487793,26.422000885009766 C40.9119987487793,26.422000885009766 40.88600158691406,35.59400177001953 40.88600158691406,35.59400177001953 C40.88600158691406,35.59400177001953 32.61199951171875,40.40299987792969 32.61199951171875,40.40299987792969 C32.61199951171875,40.40299987792969 32.63800048828125,31.229999542236328 32.63800048828125,31.229999542236328z"/></g></g><g opacity="1" transform="matrix(1,0,0,1,0,0)"><g opacity="1" transform="matrix(1,0,0,1,0,0)"><path stroke-linecap="round" stroke-linejoin="round" fill-opacity="0" stroke="rgb(47,47,47)" stroke-opacity="1" stroke-width="1.823" d=" M32.637001037597656,31.243000030517578 C32.637001037597656,31.243000030517578 32.60100173950195,40.39400100708008 32.60100173950195,40.39400100708008 C32.60100173950195,40.39400100708008 -7.611000061035156,17.17099952697754 -7.611000061035156,17.17099952697754 C-7.611000061035156,17.17099952697754 -7.611000061035156,17.135000228881836 -7.611000061035156,17.135000228881836 C-7.611000061035156,17.135000228881836 -7.465000152587891,-25.884000778198242 -7.465000152587891,-25.884000778198242 C-7.465000152587891,-25.884000778198242 9.887999534606934,-1.1670000553131104 9.887999534606934,-1.1670000553131104 C9.887999534606934,-1.1670000553131104 32.637001037597656,31.243000030517578 32.637001037597656,31.243000030517578z"/></g></g></g></g></g><g opacity="1" transform="matrix(1,0,0,1,0,0)"><g opacity="1" transform="matrix(1,0,0,1,0,0)"><g opacity="1" transform="matrix(1,0,0,1,0,0)"><g opacity="1" transform="matrix(1,0,0,1,0,0)"><g opacity="1" transform="matrix(1,0,0,1,0,0)"><path stroke-linecap="round" stroke-linejoin="round" fill-opacity="0" stroke="rgb(47,47,47)" stroke-opacity="1" stroke-width="1.823" d=" M-73.16000366210938,-25.884000778198242 C-73.16000366210938,-25.884000778198242 -90.47699737548828,-1.2389999628067017 -90.47699737548828,-1.2389999628067017 C-90.47699737548828,-1.2389999628067017 -98.35099792480469,9.98900032043457 -98.35099792480469,9.98900032043457 C-98.35099792480469,9.98900032043457 -108.23100280761719,24.097999572753906 -108.23100280761719,24.097999572753906 C-108.23100280761719,24.097999572753906 -113.26200103759766,31.243000030517578 -113.26200103759766,31.243000030517578 C-113.26200103759766,31.243000030517578 -116.90799713134766,29.128999710083008 -116.90799713134766,29.128999710083008 C-116.90799713134766,29.128999710083008 -121.53800201416016,26.430999755859375 -121.53800201416016,26.430999755859375 C-121.53800201416016,26.430999755859375 -118.03800201416016,21.43600082397461 -118.03800201416016,21.43600082397461 C-118.03800201416016,21.43600082397461 -90.98699951171875,-17.097999572753906 -90.98699951171875,-17.097999572753906 C-90.98699951171875,-17.097999572753906 -81.43499755859375,-30.695999145507812 -81.43499755859375,-30.695999145507812 C-81.43499755859375,-30.695999145507812 -73.16000366210938,-25.884000778198242 -73.16000366210938,-25.884000778198242z"/></g></g><g opacity="1" transform="matrix(1,0,0,1,0,0)"><g opacity="1" transform="matrix(1,0,0,1,0,0)"><path fill="rgb(47,47,47)" fill-opacity="1" d=" M-113.26200103759766,31.229999542236328 C-113.26200103759766,31.229999542236328 -121.53600311279297,26.422000885009766 -121.53600311279297,26.422000885009766 C-121.53600311279297,26.422000885009766 -121.51000213623047,35.59400177001953 -121.51000213623047,35.59400177001953 C-121.51000213623047,35.59400177001953 -113.23600006103516,40.40299987792969 -113.23600006103516,40.40299987792969 C-113.23600006103516,40.40299987792969 -113.26200103759766,31.229999542236328 -113.26200103759766,31.229999542236328z"/><path stroke-linecap="round" stroke-linejoin="round" fill-opacity="0" stroke="rgb(47,47,47)" stroke-opacity="1" stroke-width="1.823" d=" M-113.26200103759766,31.229999542236328 C-113.26200103759766,31.229999542236328 -121.53600311279297,26.422000885009766 -121.53600311279297,26.422000885009766 C-121.53600311279297,26.422000885009766 -121.51000213623047,35.59400177001953 -121.51000213623047,35.59400177001953 C-121.51000213623047,35.59400177001953 -113.23600006103516,40.40299987792969 -113.23600006103516,40.40299987792969 C-113.23600006103516,40.40299987792969 -113.26200103759766,31.229999542236328 -113.26200103759766,31.229999542236328z"/></g></g><g opacity="1" transform="matrix(1,0,0,1,0,0)"><g opacity="1" transform="matrix(1,0,0,1,0,0)"><path stroke-linecap="round" stroke-linejoin="round" fill-opacity="0" stroke="rgb(47,47,47)" stroke-opacity="1" stroke-width="1.823" d=" M-73.01399993896484,17.024999618530273 C-73.01399993896484,17.024999618530273 -73.01399993896484,17.17099952697754 -73.01399993896484,17.17099952697754 C-73.01399993896484,17.17099952697754 -113.22599792480469,40.39400100708008 -113.22599792480469,40.39400100708008 C-113.22599792480469,40.39400100708008 -113.26200103759766,31.243000030517578 -113.26200103759766,31.243000030517578 C-113.26200103759766,31.243000030517578 -90.47699737548828,-1.2389999628067017 -90.47699737548828,-1.2389999628067017 C-90.47699737548828,-1.2389999628067017 -73.16000366210938,-25.884000778198242 -73.16000366210938,-25.884000778198242 C-73.16000366210938,-25.884000778198242 -73.01399993896484,17.024999618530273 -73.01399993896484,17.024999618530273z"/></g></g></g></g></g></g></g></g><g opacity="1" transform="matrix(1,0,0,1,0,0)"><g opacity="1" transform="matrix(1,0,0,1,0,0)"><path fill="rgb(46,88,255)" fill-opacity="1" d=" M-18.256000518798828,-151.9149932861328 C-18.364999771118164,-148.77999877929688 -20.516000747680664,-145.7169952392578 -24.63599967956543,-143.3470001220703 C-33.202999114990234,-138.3159942626953 -47.202999114990234,-138.3159942626953 -55.84299850463867,-143.3470001220703 C-59.999000549316406,-145.7169952392578 -62.150001525878906,-148.8520050048828 -62.29600143432617,-152.0240020751953 C-60.32699966430664,-154.75799560546875 -58.321998596191406,-157.2729949951172 -56.4630012512207,-159.64300537109375 C-56.38999938964844,-157.2729949951172 -54.749000549316406,-154.9770050048828 -51.6870002746582,-153.2270050048828 C-45.34299850463867,-149.58099365234375 -35.0629997253418,-149.58099365234375 -28.79199981689453,-153.2270050048828 C-25.766000747680664,-154.9770050048828 -24.198999404907227,-157.23699951171875 -24.125999450683594,-159.60699462890625 C-22.229999542236328,-157.23699951171875 -20.26099967956543,-154.68600463867188 -18.256000518798828,-151.9149932861328z"/><path stroke-linecap="round" stroke-linejoin="round" fill-opacity="0" stroke="rgb(47,47,47)" stroke-opacity="1" stroke-width="1.823" d=" M-18.256000518798828,-151.9149932861328 C-18.364999771118164,-148.77999877929688 -20.516000747680664,-145.7169952392578 -24.63599967956543,-143.3470001220703 C-33.202999114990234,-138.3159942626953 -47.202999114990234,-138.3159942626953 -55.84299850463867,-143.3470001220703 C-59.999000549316406,-145.7169952392578 -62.150001525878906,-148.8520050048828 -62.29600143432617,-152.0240020751953 C-60.32699966430664,-154.75799560546875 -58.321998596191406,-157.2729949951172 -56.4630012512207,-159.64300537109375 C-56.38999938964844,-157.2729949951172 -54.749000549316406,-154.9770050048828 -51.6870002746582,-153.2270050048828 C-45.34299850463867,-149.58099365234375 -35.0629997253418,-149.58099365234375 -28.79199981689453,-153.2270050048828 C-25.766000747680664,-154.9770050048828 -24.198999404907227,-157.23699951171875 -24.125999450683594,-159.60699462890625 C-22.229999542236328,-157.23699951171875 -20.26099967956543,-154.68600463867188 -18.256000518798828,-151.9149932861328z"/></g></g><g opacity="1" transform="matrix(1,0,0,1,0,0)"><g opacity="1" transform="matrix(1,0,0,1,0,0)"><path stroke-linecap="round" stroke-linejoin="round" fill-opacity="0" stroke="rgb(47,47,47)" stroke-opacity="1" stroke-width="1.823" d=" M-24.125999450683594,-159.60699462890625 C-24.198999404907227,-157.23699951171875 -25.766000747680664,-154.9770050048828 -28.79199981689453,-153.2270050048828 C-35.0629997253418,-149.58099365234375 -45.34299850463867,-149.58099365234375 -51.6870002746582,-153.2270050048828 C-54.749000549316406,-154.9770050048828 -56.38999938964844,-157.2729949951172 -56.4630012512207,-159.64300537109375 C-51.79600143432617,-165.51199340820312 -47.56700134277344,-170.1060028076172 -44.61399841308594,-173.1320037841797 C-42.24399948120117,-175.61099243164062 -38.34400177001953,-175.61099243164062 -35.9739990234375,-173.1320037841797 C-33.020999908447266,-170.1060028076172 -28.79199981689453,-165.4770050048828 -24.125999450683594,-159.60699462890625z"/></g></g></g><g transform="matrix(1,0,0,1,256,256)" opacity="1" style="display: block;"><g opacity="1" transform="matrix(1,0,0,1,0,0)"><path stroke-linecap="round" stroke-linejoin="round" fill-opacity="0" stroke-dasharray=" 5.468 5.104" stroke-dashoffset="0" stroke="rgb(47,47,47)" stroke-opacity="1" stroke-width="1.823" d=" M54.013999938964844,66.08999633789062 C41.05799865722656,78.26300048828125 29.687000274658203,88.94599914550781 29.687000274658203,88.94599914550781 C29.687000274658203,88.94599914550781 51.303001403808594,130.58700561523438 51.303001403808594,130.58700561523438 C51.303001403808594,130.58700561523438 91.51399993896484,153.80999755859375 91.51399993896484,153.80999755859375 C91.51399993896484,153.80999755859375 175,105.28700256347656 175,105.28700256347656 C175,105.28700256347656 86.9209976196289,54.393001556396484 86.9209976196289,54.393001556396484 C86.9209976196289,54.393001556396484 86.9209976196289,54.393001556396484 86.9209976196289,54.393001556396484 C86.9209976196289,54.393001556396484 106.82599639892578,42.83599853515625 106.82599639892578,42.83599853515625 C106.82599639892578,42.83599853515625 91.10299682617188,31.243000030517578 91.10299682617188,31.243000030517578 C91.10299682617188,31.243000030517578 71.16799926757812,49.97200012207031 54.013999938964844,66.08999633789062"/></g></g><g transform="matrix(1,0,0,1,259.81219482421875,255.15298461914062)" opacity="1" style="display: block;"><g opacity="1" transform="matrix(1,0,0,1,0,0)"><g opacity="1" transform="matrix(1,0,0,1,0,0)"><g opacity="1" transform="matrix(1,0,0,1,0,0)"><g opacity="1" transform="matrix(1,0,0,1,0,0)"><g opacity="1" transform="matrix(1,0,0,1,0,0)"><g opacity="1" transform="matrix(1,0,0,1,0,0)"><g opacity="1" transform="matrix(1,0,0,1,0,0)"><g opacity="1" transform="matrix(1,0,0,1,0,0)"><path stroke-linecap="round" stroke-linejoin="round" fill-opacity="0" stroke="rgb(47,47,47)" stroke-opacity="1" stroke-width="1.823" d=" M128.44900512695312,9.230999946594238 C128.44900512695312,9.230999946594238 128.39599609375,35.55400085449219 128.39599609375,35.55400085449219 C128.38999938964844,37.683998107910156 126.99800109863281,39.81399917602539 124.19599914550781,41.44200134277344 C118.59700012207031,44.69599914550781 109.34400177001953,44.69599914550781 103.70800018310547,41.44200134277344 C100.83699798583984,39.784000396728516 99.40699768066406,37.5989990234375 99.41300201416016,35.42300033569336 C99.41300201416016,35.42300033569336 99.53299713134766,-21.06999969482422 99.53299713134766,-21.06999969482422 C99.5270004272461,-18.893999099731445 100.95700073242188,-16.708999633789062 103.8280029296875,-15.050999641418457 C109.46399688720703,-11.79699993133545 118.71700286865234,-11.79699993133545 124.31600189208984,-15.050999641418457 C127.11799621582031,-16.679000854492188 128.50999450683594,-18.80900001525879 128.51600646972656,-20.93899917602539 C128.51600646972656,-20.93899917602539 128.4669952392578,-2.4649999141693115 128.4669952392578,-2.4649999141693115"/></g><g opacity="1" transform="matrix(1,0,0,1,0,0)"><path stroke-linecap="round" stroke-linejoin="round" fill-opacity="0" stroke="rgb(47,47,47)" stroke-opacity="1" stroke-width="1.823" d=" M105.45700073242188,19.016000747680664 C105.45700073242188,19.016000747680664 105.50299835205078,16.44300079345703 105.50299835205078,16.44300079345703"/></g><g opacity="1" transform="matrix(1,0,0,1,0,0)"><path stroke-linecap="round" stroke-linejoin="round" fill-opacity="0" stroke="rgb(47,47,47)" stroke-opacity="1" stroke-width="1.823" d=" M105.4280014038086,33.36199951171875 C105.4280014038086,33.36199951171875 105.44499969482422,24.143999099731445 105.44499969482422,24.143999099731445"/></g></g><g opacity="1" transform="matrix(1,0,0,1,0,0)"><g opacity="1" transform="matrix(1,0,0,1,0,0)"><path stroke-linecap="round" stroke-linejoin="round" fill-opacity="0" stroke="rgb(47,47,47)" stroke-opacity="1" stroke-width="1.823" d=" M120.49700164794922,-28.509000778198242 C121.84600067138672,-28.107999801635742 123.12200164794922,-27.56100082397461 124.25199890136719,-26.905000686645508 C129.86599731445312,-23.65999984741211 129.9759979248047,-18.33799934387207 124.32499694824219,-15.057000160217285 C118.71099853515625,-11.812000274658203 109.45099639892578,-11.812000274658203 103.83699798583984,-15.057000160217285 C98.1500015258789,-18.33799934387207 98.11299896240234,-23.695999145507812 103.69100189208984,-26.94099998474121 C104.82099914550781,-27.597000122070312 106.06099700927734,-28.107999801635742 107.41000366210938,-28.509000778198242"/></g></g></g></g><g opacity="1" transform="matrix(1,0,0,1,0,0)"><g opacity="1" transform="matrix(1,0,0,1,0,0)"><g opacity="1" transform="matrix(1,0,0,1,0,0)"><g opacity="1" transform="matrix(1,0,0,1,0,0)"><path stroke-linecap="round" stroke-linejoin="round" fill-opacity="0" stroke="rgb(47,47,47)" stroke-opacity="1" stroke-width="1.823" d=" M107.44599914550781,-37.07600021362305 C107.44599914550781,-37.07600021362305 107.41000366210938,-21.764999389648438 107.41000366210938,-21.764999389648438 C107.41000366210938,-20.7810001373291 108.02999877929688,-19.79599952697754 109.34200286865234,-19.030000686645508 C111.89399719238281,-17.57200050354004 116.04900360107422,-17.57200050354004 118.56500244140625,-19.030000686645508 C119.84100341796875,-19.79599952697754 120.46099853515625,-20.743999481201172 120.46099853515625,-21.691999435424805 C120.46099853515625,-21.691999435424805 120.49700164794922,-32.62900161743164 120.49700164794922,-32.62900161743164"/></g></g></g></g></g><g opacity="1" transform="matrix(1,0,0,1,0,0)"><g opacity="1" transform="matrix(1,0,0,1,0,0)"><g opacity="1" transform="matrix(1,0,0,1,0,0)"><g opacity="1" transform="matrix(1,0,0,1,0,0)"><g opacity="1" transform="matrix(1,0,0,1,0,0)"><g opacity="1" transform="matrix(1,0,0,1,0,0)"><g opacity="1" transform="matrix(1,0,0,1,0,0)"><g opacity="1" transform="matrix(1,0,0,1,0,0)"><path fill="rgb(47,47,47)" fill-opacity="1" d=" M104.66000366210938,-157.14199829101562 C104.66000366210938,-157.14199829101562 91.42400360107422,-149.4770050048828 91.42400360107422,-149.4770050048828 C84.1709976196289,-151.0469970703125 77.66600036621094,-150.18800354003906 72.43199920654297,-147.1219940185547 C72.43199920654297,-147.1219940185547 85.74199676513672,-154.86099243164062 85.74199676513672,-154.86099243164062 C90.93900299072266,-157.88900756835938 97.44400024414062,-158.75 104.66000366210938,-157.14199829101562z"/></g></g><g opacity="1" transform="matrix(1,0,0,1,0,0)"><g opacity="1" transform="matrix(1,0,0,1,0,0)"><path stroke-linecap="round" stroke-linejoin="round" fill-opacity="0" stroke="rgb(47,47,47)" stroke-opacity="1" stroke-width="1.823" d=" M105.08799743652344,-143.94500732421875 C130.44000244140625,-129.30799865722656 150.90899658203125,-93.85700225830078 150.8260040283203,-64.7249984741211 C150.7429962158203,-35.62099838256836 130.14100646972656,-23.85300064086914 104.78900146484375,-38.4900016784668 C79.46099853515625,-53.112998962402344 58.96900177001953,-88.60700225830078 59.051998138427734,-117.71099853515625 C59.1349983215332,-146.84300231933594 79.76000213623047,-158.5679931640625 105.08799743652344,-143.94500732421875z"/></g></g></g></g></g></g></g><g opacity="1" transform="matrix(1,0,0,1,0,0)"><g opacity="1" transform="matrix(1,0,0,1,0,0)"><path stroke-linecap="round" stroke-linejoin="round" fill-opacity="0" stroke="rgb(47,47,47)" stroke-opacity="1" stroke-width="1.823" d=" M127.4530029296875,-145.38999938964844 C140.93299865722656,-134.5070037841797 152.2469940185547,-118.08100128173828 158.6060028076172,-100.947998046875"/></g><g opacity="1" transform="matrix(1,0,0,1,0,0)"><path stroke-linecap="round" stroke-linejoin="round" fill-opacity="0" stroke="rgb(47,47,47)" stroke-opacity="1" stroke-width="1.823" d=" M163.29400634765625,-87.5739974975586 C164.31700134277344,-82.57499694824219 164.85699462890625,-77.625 164.843994140625,-72.84500122070312 C164.80599975585938,-58.402000427246094 157.6719970703125,-47.03799819946289 149.4029998779297,-42.236000061035156 C149.4029998779297,-42.236000061035156 137.4409942626953,-35.27899932861328 137.4409942626953,-35.27899932861328 C145.6719970703125,-40.08100128173828 150.7790069580078,-50.255001068115234 150.81700134277344,-64.73600006103516 C150.89300537109375,-93.8499984741211 130.4290008544922,-129.29100036621094 105.08799743652344,-143.96200561523438 C92.3219985961914,-151.31700134277344 80.7750015258789,-152.0030059814453 72.42900085449219,-147.125 C72.42900085449219,-147.125 85.75,-154.86099243164062 85.75,-154.86099243164062 C93.01699829101562,-159.0749969482422 102.71099853515625,-159.1009979248047 113.49800109863281,-154.18099975585938"/></g></g></g></g></g></g><g opacity="1" transform="matrix(1,0,0,1,0,0)"><g opacity="1" transform="matrix(1,0,0,1,0,0)"><g opacity="1" transform="matrix(1,0,0,1,0,0)"><path stroke-linecap="round" stroke-linejoin="round" fill-opacity="0" stroke="rgb(47,47,47)" stroke-opacity="1" stroke-width="1.823" d=" M104.9219970703125,-91.20700073242188 C104.9219970703125,-91.20700073242188 82.6510009765625,-78.51499938964844 82.6510009765625,-78.51499938964844 C88.32599639892578,-68.68599700927734 96.16600036621094,-60.11399841308594 104.81999969482422,-55.117000579833984 C113.49299621582031,-50.10900115966797 121.35600280761719,-49.6150016784668 127.04900360107422,-52.88100051879883 C127.04900360107422,-52.88100051879883 104.9219970703125,-91.20700073242188 104.9219970703125,-91.20700073242188z"/></g></g><g opacity="1" transform="matrix(1,0,0,1,0,0)"><g opacity="1" transform="matrix(1,0,0,1,0,0)"><path stroke-linecap="round" stroke-linejoin="round" fill-opacity="0" stroke="rgb(47,47,47)" stroke-opacity="1" stroke-width="1.823" d=" M105.0250015258789,-127.33100128173828 C105.0250015258789,-127.33100128173828 104.91899871826172,-91.19300079345703 104.91899871826172,-91.19300079345703 C104.91899871826172,-91.19300079345703 82.63899993896484,-78.50800323486328 82.63899993896484,-78.50800323486328 C76.98899841308594,-88.35099792480469 73.47100067138672,-99.4020004272461 73.50700378417969,-109.35099792480469 C73.5780029296875,-129.28500366210938 87.68499755859375,-137.3520050048828 105.0250015258789,-127.33100128173828z"/></g></g><g opacity="1" transform="matrix(1,0,0,1,0,0)"><g opacity="1" transform="matrix(1,0,0,1,0,0)"><path fill="rgb(255,52,43)" fill-opacity="1" d=" M104.88700103759766,-91.23500061035156 C104.88700103759766,-91.23500061035156 127.00700378417969,-52.86600112915039 127.00700378417969,-52.86600112915039 C132.79299926757812,-56.097999572753906 136.281005859375,-63.07500076293945 136.36599731445312,-73.02899932861328 C136.36599731445312,-93.02200317382812 122.41400146484375,-117.26899719238281 105.05799865722656,-127.30899810791016 C105.05799865722656,-127.30899810791016 104.88700103759766,-91.23500061035156 104.88700103759766,-91.23500061035156z"/><path stroke-linecap="round" stroke-linejoin="round" fill-opacity="0" stroke="rgb(47,47,47)" stroke-opacity="1" stroke-width="1.821" d=" M104.88700103759766,-91.23500061035156 C104.88700103759766,-91.23500061035156 127.00700378417969,-52.86600112915039 127.00700378417969,-52.86600112915039 C132.79299926757812,-56.097999572753906 136.281005859375,-63.07500076293945 136.36599731445312,-73.02899932861328 C136.36599731445312,-93.02200317382812 122.41400146484375,-117.26899719238281 105.05799865722656,-127.30899810791016 C105.05799865722656,-127.30899810791016 104.88700103759766,-91.23500061035156 104.88700103759766,-91.23500061035156z"/></g></g></g></g><g transform="matrix(1,0,0,1,152.0261688232422,331.4730224609375)" opacity="1" style="display: block;"><g opacity="1" transform="matrix(1,0,0,1,0,0)"><path stroke-linecap="round" stroke-linejoin="round" fill-opacity="0" stroke="rgb(176,184,207)" stroke-opacity="1" stroke-width="1.823" d=" M133.0050048828125,105.5270004272461 C133.0050048828125,108.19000244140625 130.87399291992188,110.37899780273438 128.15199279785156,110.37899780273438 C125.48899841308594,110.37899780273438 123.29900360107422,108.19000244140625 123.29900360107422,105.5270004272461 C123.29900360107422,102.80500030517578 125.48899841308594,100.67400360107422 128.15199279785156,100.67400360107422 C130.87399291992188,100.67400360107422 133.0050048828125,102.80500030517578 133.0050048828125,105.5270004272461z"/></g></g><g transform="matrix(0.5396647453308105,-0.8418800234794617,0.8418800234794617,0.5396647453308105,321.5619201660156,142.83343505859375)" opacity="1" style="display: block;"><g opacity="1" transform="matrix(1,0,0,1,0,0)"><path stroke-linecap="round" stroke-linejoin="round" fill-opacity="0" stroke="rgb(47,47,47)" stroke-opacity="1" stroke-width="1.823" d=" M38.34000015258789,-86.63600158691406 C38.34000015258789,-86.63600158691406 38.3390007019043,-73.38200378417969 38.3390007019043,-73.38200378417969"/></g><g opacity="1" transform="matrix(1,0,0,1,0,0)"><path stroke-linecap="round" stroke-linejoin="round" fill-opacity="0" stroke="rgb(47,47,47)" stroke-opacity="1" stroke-width="1.823" d=" M31.714000701904297,-80.01000213623047 C31.714000701904297,-80.01000213623047 44.96500015258789,-80.00800323486328 44.96500015258789,-80.00800323486328"/></g></g><g transform="matrix(1,0,0,1,239.47149658203125,311.41912841796875)" opacity="1" style="display: block;"><g opacity="1" transform="matrix(1,0,0,1,0,0)"><path fill="rgb(255,52,43)" fill-opacity="1" d=" M-137.69700622558594,-52.88999938964844 C-137.69700622558594,-50.22700119018555 -139.8280029296875,-48.0369987487793 -142.5500030517578,-48.0369987487793 C-145.21299743652344,-48.0369987487793 -147.40199279785156,-50.22700119018555 -147.40199279785156,-52.88999938964844 C-147.40199279785156,-55.61199951171875 -145.21299743652344,-57.74300003051758 -142.5500030517578,-57.74300003051758 C-139.8280029296875,-57.74300003051758 -137.69700622558594,-55.61199951171875 -137.69700622558594,-52.88999938964844z"/></g></g><g transform="matrix(1,0,0,1,247.5,281)" opacity="1" style="display: block;"><g opacity="1" transform="matrix(1,0,0,1,0,0)"><path stroke-linecap="round" stroke-linejoin="round" fill-opacity="0" stroke="rgb(47,47,47)" stroke-opacity="1" stroke-width="1.823" d="M0 0"/></g><g opacity="1" transform="matrix(1,0,0,1,0,0)"><path stroke-linecap="round" stroke-linejoin="round" fill-opacity="0" stroke="rgb(47,47,47)" stroke-opacity="1" stroke-width="1.823" d="M0 0"/></g></g><g transform="matrix(1,0,0,1,247.5,281)" opacity="1" style="display: block;"><g opacity="1" transform="matrix(1,0,0,1,0,0)"><path stroke-linecap="round" stroke-linejoin="round" fill-opacity="0" stroke="rgb(47,47,47)" stroke-opacity="1" stroke-width="1.823" d="M0 0"/></g><g opacity="1" transform="matrix(1,0,0,1,0,0)"><path stroke-linecap="round" stroke-linejoin="round" fill-opacity="0" stroke="rgb(47,47,47)" stroke-opacity="1" stroke-width="1.823" d="M0 0"/></g></g><g transform="matrix(1,0,0,1,247.5,263.7619934082031)" opacity="1" style="display: block;"><g opacity="1" transform="matrix(1,0,0,1,0,0)"><path stroke-linecap="round" stroke-linejoin="round" fill-opacity="0" stroke="rgb(47,47,47)" stroke-opacity="1" stroke-width="1.823" d=" M-26.281999588012695,10.855999946594238 C-26.281999588012695,10.855999946594238 -26.281999588012695,21.29400062561035 -26.281999588012695,29.426000595092773"/></g><g opacity="1" transform="matrix(1,0,0,1,0,0)"><path stroke-linecap="round" stroke-linejoin="round" fill-opacity="0" stroke="rgb(47,47,47)" stroke-opacity="1" stroke-width="1.823" d=" M-36.09600067138672,10.855999946594238 C-36.09600067138672,10.855999946594238 -36.09600067138672,21.29400062561035 -36.09600067138672,29.426000595092773"/></g></g></g></svg>