<svg xmlns="http://www.w3.org/2000/svg" xmlns:xlink="http://www.w3.org/1999/xlink" viewBox="0 0 512 512" width="512" height="512" preserveAspectRatio="xMidYMid meet" style="width: 100%; height: 100%; transform: translate3d(0px, 0px, 0px); content-visibility: visible;"><defs><clipPath id="__lottie_element_76"><rect width="512" height="512" x="0" y="0"/></clipPath><clipPath id="__lottie_element_85"><path fill="#ffffff" clip-rule="nonzero" d=" M-114.86699676513672,-96.5270004272461 C-114.86699676513672,-96.5270004272461 -129.74200439453125,-0.550000011920929 -129.74200439453125,-0.550000011920929 C-129.74200439453125,-0.550000011920929 -49.61800003051758,-29.674999237060547 -49.61800003051758,-29.674999237060547 C-49.61800003051758,-29.674999237060547 -104.99299621582031,-101.9020004272461 -104.99299621582031,-101.9020004272461 C-104.99299621582031,-101.9020004272461 -114.86699676513672,-96.5270004272461 -114.86699676513672,-96.5270004272461" fill-opacity="1"/></clipPath><g id="__lottie_element_87"><g transform="matrix(1,0,0,1,256,264.8786315917969)" opacity="1" style="display: block;"><g opacity="1" transform="matrix(1,0,0,1,0,0)"><path fill="rgb(201,206,226)" fill-opacity="1" d=" M-72.0770034790039,-153.53500366210938 C-72.0770034790039,-153.53500366210938 -82.36000061035156,-159.552001953125 -82.36000061035156,-159.552001953125 C-82.94300079345703,-159.8800048828125 -83.56400299072266,-160.13499450683594 -84.22000122070312,-160.31700134277344 C-85.11000061035156,-163.86099243164062 -86.98300170898438,-166.38999938964844 -89.51599884033203,-167.75900268554688 C-89.43199920654297,-167.71400451660156 -89.34600067138672,-167.67300415039062 -89.26399993896484,-167.625 C-89.26399993896484,-167.625 -99.67500305175781,-173.68899536132812 -99.67500305175781,-173.68899536132812 C-103.19499969482422,-175.72999572753906 -108.0459976196289,-175.46400451660156 -113.37000274658203,-172.35800170898438 C-121.14800262451172,-167.86199951171875 -127.89199829101562,-158.6649932861328 -130.8800048828125,-149.22999572753906 C-130.8800048828125,-149.22999572753906 -130.88999938964844,-149.23599243164062 -130.88999938964844,-149.23599243164062 C-132.6300048828125,-148.9709930419922 -134.4810028076172,-148.27099609375 -136.42599487304688,-147.1479949951172 C-143.79100036621094,-142.89599609375 -150.00799560546875,-133.7209930419922 -152.04400634765625,-124.8290023803711 C-152.04400634765625,-124.8290023803711 -152.04400634765625,-124.8290023803711 -152.04400634765625,-124.8290023803711 C-160.33200073242188,-119.13099670410156 -166.80499267578125,-107.33000183105469 -166.77699279785156,-97.56500244140625 C-166.76199340820312,-92.39600372314453 -164.93699645996094,-88.75599670410156 -161.9929962158203,-87.04499816894531 C-161.9929962158203,-87.04499816894531 -151.57000732421875,-80.98699951171875 -151.57000732421875,-80.98699951171875 C-151.6280059814453,-81.02100372314453 -151.6790008544922,-81.06800079345703 -151.73599243164062,-81.10299682617188 C-148.7519989013672,-79.25800323486328 -144.5760040283203,-79.44300079345703 -139.93899536132812,-82.13500213623047 C-139.93899536132812,-82.13500213623047 -97.71199798583984,-106.49400329589844 -97.71199798583984,-106.49400329589844 C-97.71199798583984,-106.49400329589844 -90.85600280761719,-110.46900177001953 -90.85600280761719,-110.46900177001953 C-90.85600280761719,-110.46900177001953 -83.48999786376953,-114.6989974975586 -83.48999786376953,-114.6989974975586 C-74.4469985961914,-119.91400146484375 -67.11799621582031,-132.60299682617188 -67.15399932861328,-142.99600219726562 C-67.19100189208984,-148.2100067138672 -69.05000305175781,-151.8939971923828 -72.0770034790039,-153.53500366210938z M-89.98600006103516,-168.0030059814453 C-90.2509994506836,-168.1269989013672 -90.52300262451172,-168.23699951171875 -90.8010025024414,-168.33700561523438 C-90.52300262451172,-168.23699951171875 -90.2509994506836,-168.1280059814453 -89.98600006103516,-168.0030059814453z M-91.20500183105469,-168.47300720214844 C-91.52200317382812,-168.5709991455078 -91.84400177001953,-168.65699768066406 -92.1760025024414,-168.7239990234375 C-91.84400177001953,-168.65699768066406 -91.52100372314453,-168.5709991455078 -91.20500183105469,-168.47300720214844z M-92.50199890136719,-168.7790069580078 C-92.81300354003906,-168.83099365234375 -93.12999725341797,-168.87100219726562 -93.4530029296875,-168.89599609375 C-93.12999725341797,-168.87100219726562 -92.81300354003906,-168.83099365234375 -92.50199890136719,-168.7790069580078z M-93.6969985961914,-168.91799926757812 C-94.08200073242188,-168.93899536132812 -94.47599792480469,-168.93600463867188 -94.8759994506836,-168.91799926757812 C-94.47599792480469,-168.93499755859375 -94.08200073242188,-168.93899536132812 -93.6969985961914,-168.91799926757812z M-99.81400299072266,-167.8159942626953 C-100.24700164794922,-167.6479949951172 -100.68399810791016,-167.4600067138672 -101.1259994506836,-167.2530059814453 C-100.68399810791016,-167.46099853515625 -100.24700164794922,-167.6479949951172 -99.81400299072266,-167.8159942626953z M-101.55699920654297,-167.04100036621094 C-101.93199920654297,-166.85499572753906 -102.30999755859375,-166.65499877929688 -102.69100189208984,-166.4409942626953 C-102.30999755859375,-166.656005859375 -101.93199920654297,-166.85499572753906 -101.55699920654297,-167.04100036621094z M-106.10600280761719,-164.1790008544922 C-106.79199981689453,-163.6529998779297 -107.46499633789062,-163.09100341796875 -108.125,-162.49899291992188 C-107.46499633789062,-163.09100341796875 -106.79199981689453,-163.6529998779297 -106.10600280761719,-164.1790008544922z M-120.48699951171875,-143.1739959716797 C-120.48699951171875,-143.1739959716797 -120.48600006103516,-143.1739959716797 -120.48600006103516,-143.1739959716797 C-120.49199676513672,-143.17300415039062 -120.4990005493164,-143.17100524902344 -120.50499725341797,-143.1699981689453 C-120.4990005493164,-143.17100524902344 -120.49299621582031,-143.17300415039062 -120.48699951171875,-143.1739959716797z M-153.072998046875,-82.15699768066406 C-152.91799926757812,-82.00700378417969 -152.77099609375,-81.84400177001953 -152.6060028076172,-81.70800018310547 C-152.77099609375,-81.84300231933594 -152.91700744628906,-82.00700378417969 -153.072998046875,-82.15699768066406z M-156.34800720214844,-91.50700378417969 C-156.33399963378906,-87.61900329589844 -155.29800415039062,-84.59400177001953 -153.53500366210938,-82.6050033569336 C-155.3040008544922,-84.59300231933594 -156.34300231933594,-87.61499786376953 -156.35400390625,-91.50700378417969 C-156.37899780273438,-100.39900207519531 -151.00799560546875,-110.96499633789062 -143.7899932861328,-117.08799743652344 C-150.99899291992188,-110.9469985961914 -156.38099670410156,-100.40299987792969 -156.34800720214844,-91.50700378417969z M-141.61599731445312,-118.78299713134766 C-141.61700439453125,-118.78299713134766 -141.61700439453125,-118.78199768066406 -141.6179962158203,-118.78199768066406 C-141.10899353027344,-121.00199890136719 -140.33900451660156,-123.23999786376953 -139.3560028076172,-125.41400146484375 C-140.33700561523438,-123.24099731445312 -141.1060028076172,-121.00399780273438 -141.61599731445312,-118.78299713134766z M-97.94999694824219,-168.42999267578125 C-97.53199768066406,-168.54200744628906 -97.12100219726562,-168.63299560546875 -96.71499633789062,-168.70700073242188 C-97.12100219726562,-168.63299560546875 -97.53199768066406,-168.54200744628906 -97.94999694824219,-168.42999267578125z M-99.447998046875,-167.95199584960938 C-98.99600219726562,-168.1179962158203 -98.5469970703125,-168.2689971923828 -98.10600280761719,-168.39199829101562 C-98.5469970703125,-168.2689971923828 -98.99600219726562,-168.11700439453125 -99.447998046875,-167.95199584960938z M-95.19499969482422,-168.9010009765625 C-95.5999984741211,-168.8730010986328 -96.01100158691406,-168.82699584960938 -96.43000030517578,-168.75900268554688 C-96.01100158691406,-168.82699584960938 -95.5999984741211,-168.8730010986328 -95.19499969482422,-168.9010009765625z"/></g></g></g><g id="__lottie_element_93"><g transform="matrix(1,0,0,1,256,256)" opacity="1" style="display: block;"><g opacity="1" transform="matrix(1,0,0,1,0,0)"><path stroke-linecap="round" stroke-linejoin="round" fill-opacity="0" stroke-dasharray=" 12" stroke-dashoffset="0" stroke="rgb(47,47,47)" stroke-opacity="1" stroke-width="3.5" d="M0 0"/></g><g opacity="1" transform="matrix(1,0,0,1,0,0)"><path stroke-linecap="round" stroke-linejoin="round" fill-opacity="0" stroke-dasharray=" 12" stroke-dashoffset="0" stroke="rgb(47,47,47)" stroke-opacity="1" stroke-width="3.5" d="M0 0"/></g><g opacity="1" transform="matrix(1,0,0,1,0,0)"><g opacity="1" transform="matrix(1,0,0,1,0,0)"><path stroke-linecap="round" stroke-linejoin="round" fill-opacity="0" stroke-dasharray=" 12" stroke-dashoffset="0" stroke="rgb(47,47,47)" stroke-opacity="1" stroke-width="3.5" d="M0 0"/></g></g><g opacity="1" transform="matrix(1,0,0,1,0,0)"><path stroke-linecap="round" stroke-linejoin="round" fill-opacity="0" stroke-dasharray=" 12" stroke-dashoffset="0" stroke="rgb(47,47,47)" stroke-opacity="1" stroke-width="3.5" d="M0 0"/></g><g opacity="1" transform="matrix(1,0,0,1,0,0)"><g opacity="1" transform="matrix(1,0,0,1,0,0)"><path stroke-linecap="round" stroke-linejoin="round" fill-opacity="0" stroke-dasharray=" 12" stroke-dashoffset="0" stroke="rgb(47,47,47)" stroke-opacity="1" stroke-width="3.5" d="M0 0"/></g></g><g opacity="1" transform="matrix(1,0,0,1,0,0)"><path stroke-linecap="round" stroke-linejoin="round" fill-opacity="0" stroke-dasharray=" 12" stroke-dashoffset="0" stroke="rgb(47,47,47)" stroke-opacity="1" stroke-width="3.5" d="M0 0"/></g></g></g><g id="__lottie_element_99"><g transform="matrix(1,0,0,1,256,256)" opacity="1" style="display: block;"><g opacity="1" transform="matrix(1,0,0,1,0,0)"><g opacity="1" transform="matrix(1,0,0,1,0,0)"/></g><g opacity="1" transform="matrix(1,0,0,1,0,0)"><g opacity="1" transform="matrix(1,0,0,1,0,0)"><path stroke-linecap="round" stroke-linejoin="round" fill-opacity="0" stroke-dasharray=" 13 17" stroke-dashoffset="0" stroke="rgb(47,47,47)" stroke-opacity="1" stroke-width="3" d="M0 0"/></g></g></g></g><filter id="__lottie_element_102" filterUnits="objectBoundingBox" x="0%" y="0%" width="100%" height="100%"><feComponentTransfer in="SourceGraphic"><feFuncA type="table" tableValues="1.0 0.0"/></feComponentTransfer></filter><mask id="__lottie_element_99_2" mask-type="alpha"><g filter="url(#__lottie_element_102)"><rect width="512" height="512" x="0" y="0" fill="#ffffff" opacity="0"/><use xmlns:ns1="http://www.w3.org/1999/xlink" ns1:href="#__lottie_element_99"/></g></mask><filter id="__lottie_element_103" filterUnits="objectBoundingBox" x="0%" y="0%" width="100%" height="100%"><feComponentTransfer in="SourceGraphic"><feFuncA type="table" tableValues="1.0 0.0"/></feComponentTransfer></filter><mask id="__lottie_element_93_2" mask-type="alpha"><g filter="url(#__lottie_element_103)"><rect width="512" height="512" x="0" y="0" fill="#ffffff" opacity="0"/><use xmlns:ns2="http://www.w3.org/1999/xlink" ns2:href="#__lottie_element_93"/></g></mask><filter id="__lottie_element_104" filterUnits="objectBoundingBox" x="0%" y="0%" width="100%" height="100%"><feComponentTransfer in="SourceGraphic"><feFuncA type="table" tableValues="1.0 0.0"/></feComponentTransfer></filter><mask id="__lottie_element_87_2" mask-type="alpha"><g filter="url(#__lottie_element_104)"><rect width="512" height="512" x="0" y="0" fill="#ffffff" opacity="0"/><use xmlns:ns3="http://www.w3.org/1999/xlink" ns3:href="#__lottie_element_87"/></g></mask></defs><g clip-path="url(#__lottie_element_76)"><g transform="matrix(1,0,0,1,256,256)" opacity="1" style="display: block;"><g opacity="1" transform="matrix(0.9063815474510193,-0.42246007919311523,0.42246007919311523,0.9063815474510193,-36.546478271484375,-3.6039276123046875)"><g opacity="1" transform="matrix(1,0,0,1,0,0)"><g opacity="1" transform="matrix(1,0,0,1,0,0)"><path fill="rgb(255,255,255)" fill-opacity="1" d=" M-44.77799987792969,49.617000579833984 C-44.77799987792969,49.617000579833984 -35.64500045776367,40.486000061035156 -35.64500045776367,40.486000061035156"/><path stroke-linecap="round" stroke-linejoin="round" fill-opacity="0" stroke="rgb(47,47,47)" stroke-opacity="1" stroke-width="1.823" d=" M-44.77799987792969,49.617000579833984 C-44.77799987792969,49.617000579833984 -35.64500045776367,40.486000061035156 -35.64500045776367,40.486000061035156"/></g><g opacity="1" transform="matrix(1,0,0,1,0,0)"><path fill="rgb(255,255,255)" fill-opacity="1" d=" M-35.645999908447266,49.617000579833984 C-35.645999908447266,49.617000579833984 -44.777000427246094,40.486000061035156 -44.777000427246094,40.486000061035156"/><path stroke-linecap="round" stroke-linejoin="round" fill-opacity="0" stroke="rgb(47,47,47)" stroke-opacity="1" stroke-width="1.823" d=" M-35.645999908447266,49.617000579833984 C-35.645999908447266,49.617000579833984 -44.777000427246094,40.486000061035156 -44.777000427246094,40.486000061035156"/></g></g></g><g opacity="1" transform="matrix(1,0,0,1,4.583221435546875,-4.583213806152344)"><g opacity="1" transform="matrix(1,0,0,1,0,0)"><path stroke-linecap="round" stroke-linejoin="round" fill-opacity="0" stroke="rgb(176,184,207)" stroke-opacity="1" stroke-width="1.823" d=" M-80.76799774169922,-85.35099792480469 C-80.76799774169922,-82.71600341796875 -78.66000366210938,-80.54900360107422 -75.96600341796875,-80.54900360107422 C-73.33100128173828,-80.54900360107422 -71.16400146484375,-82.71600341796875 -71.16400146484375,-85.35099792480469 C-71.16400146484375,-88.04499816894531 -73.33100128173828,-90.15299987792969 -75.96600341796875,-90.15299987792969 C-78.66000366210938,-90.15299987792969 -80.76799774169922,-88.04499816894531 -80.76799774169922,-85.35099792480469z"/></g></g><g opacity="1" transform="matrix(1,0,0,1,-13.749649047851562,-4.583221435546875)"><g opacity="1" transform="matrix(1,0,0,1,0,0)"><path fill="rgb(255,52,43)" fill-opacity="1" d=" M132.88800048828125,-134.00399780273438 C132.88800048828125,-130.06900024414062 129.73899841308594,-126.83300018310547 125.71700286865234,-126.83300018310547 C121.78199768066406,-126.83300018310547 118.5459976196289,-130.06900024414062 118.5459976196289,-134.00399780273438 C118.5459976196289,-138.02699279785156 121.78199768066406,-141.1750030517578 125.71700286865234,-141.1750030517578 C129.73899841308594,-141.1750030517578 132.88800048828125,-138.02699279785156 132.88800048828125,-134.00399780273438z"/></g></g></g><g transform="matrix(1,0,0,1,256,264.8786315917969)" opacity="1" style="display: block;"><g opacity="1" transform="matrix(1,0,0,1,0,0)"><g opacity="1" transform="matrix(1,0,0,1,0,0)"><g opacity="1" transform="matrix(1,0,0,1,0,0)"><path fill="rgb(47,47,47)" fill-opacity="1" d=" M-72.0770034790039,-153.53500366210938 C-72.33200073242188,-153.68099975585938 -72.58699798583984,-153.82699584960938 -72.87899780273438,-153.93600463867188 C-73.0979995727539,-154.0449981689453 -73.35299682617188,-154.1179962158203 -73.5719985961914,-154.1540069580078 C-73.75399780273438,-154.2270050048828 -73.9729995727539,-154.30099487304688 -74.19200134277344,-154.33700561523438 C-74.48400115966797,-154.41000366210938 -74.7750015258789,-154.44700622558594 -75.06700134277344,-154.48300170898438 C-75.43199920654297,-154.5189971923828 -75.83300018310547,-154.55599975585938 -76.23400115966797,-154.55599975585938 C-78.49500274658203,-154.55599975585938 -81.0469970703125,-153.8260040283203 -83.78199768066406,-152.25799560546875 C-83.6729965209961,-153.2790069580078 -83.5999984741211,-154.26400756835938 -83.5999984741211,-155.2480010986328 C-83.5999984741211,-157.10800170898438 -83.81900024414062,-158.82200622558594 -84.22000122070312,-160.31700134277344 C-83.56400299072266,-160.13499450683594 -82.94300079345703,-159.87899780273438 -82.36000061035156,-159.55099487304688 C-82.36000061035156,-159.55099487304688 -72.0770034790039,-153.53500366210938 -72.0770034790039,-153.53500366210938z"/><path stroke-linecap="round" stroke-linejoin="round" fill-opacity="0" stroke="rgb(47,47,47)" stroke-opacity="1" stroke-width="1.823" d=" M-72.0770034790039,-153.53500366210938 C-72.33200073242188,-153.68099975585938 -72.58699798583984,-153.82699584960938 -72.87899780273438,-153.93600463867188 C-73.0979995727539,-154.0449981689453 -73.35299682617188,-154.1179962158203 -73.5719985961914,-154.1540069580078 C-73.75399780273438,-154.2270050048828 -73.9729995727539,-154.30099487304688 -74.19200134277344,-154.33700561523438 C-74.48400115966797,-154.41000366210938 -74.7750015258789,-154.44700622558594 -75.06700134277344,-154.48300170898438 C-75.43199920654297,-154.5189971923828 -75.83300018310547,-154.55599975585938 -76.23400115966797,-154.55599975585938 C-78.49500274658203,-154.55599975585938 -81.0469970703125,-153.8260040283203 -83.78199768066406,-152.25799560546875 C-83.6729965209961,-153.2790069580078 -83.5999984741211,-154.26400756835938 -83.5999984741211,-155.2480010986328 C-83.5999984741211,-157.10800170898438 -83.81900024414062,-158.82200622558594 -84.22000122070312,-160.31700134277344 C-83.56400299072266,-160.13499450683594 -82.94300079345703,-159.87899780273438 -82.36000061035156,-159.55099487304688 C-82.36000061035156,-159.55099487304688 -72.0770034790039,-153.53500366210938 -72.0770034790039,-153.53500366210938z"/></g></g><g opacity="1" transform="matrix(1,0,0,1,0,0)"><g opacity="1" transform="matrix(1,0,0,1,0,0)"><path stroke-linecap="round" stroke-linejoin="round" fill-opacity="0" stroke="rgb(47,47,47)" stroke-opacity="1" stroke-width="1.823" d=" M-89.26399993896484,-167.625 C-92.75399780273438,-169.66600036621094 -97.60399627685547,-169.39999389648438 -102.95800018310547,-166.29400634765625 C-110.73699951171875,-161.8280029296875 -117.4520034790039,-152.60000610351562 -120.46900177001953,-143.16400146484375 C-120.46900177001953,-143.16400146484375 -130.8800048828125,-149.22799682617188 -130.8800048828125,-149.22799682617188 C-127.89299774169922,-158.66400146484375 -121.14900207519531,-167.86199951171875 -113.37000274658203,-172.35800170898438 C-108.0459976196289,-175.46400451660156 -103.19499969482422,-175.72999572753906 -99.67500305175781,-173.68899536132812 C-99.67500305175781,-173.68899536132812 -89.26399993896484,-167.625 -89.26399993896484,-167.625z"/></g></g><g opacity="1" transform="matrix(1,0,0,1,0,0)"><g opacity="1" transform="matrix(1,0,0,1,0,0)"><path stroke-linecap="round" stroke-linejoin="round" fill-opacity="0" stroke="rgb(47,47,47)" stroke-opacity="1" stroke-width="1.823" d=" M-141.6199951171875,-118.77100372314453 C-141.6199951171875,-118.77100372314453 -152.04400634765625,-124.8290023803711 -152.04400634765625,-124.8290023803711 C-150.0070037841797,-133.7209930419922 -143.79100036621094,-142.89599609375 -136.42599487304688,-147.1479949951172 C-134.4810028076172,-148.27099609375 -132.6300048828125,-148.9709930419922 -130.88999938964844,-149.23599243164062 C-130.88999938964844,-149.23599243164062 -120.46600341796875,-143.1790008544922 -120.46600341796875,-143.1790008544922 C-122.20500183105469,-142.91400146484375 -124.05799865722656,-142.21400451660156 -126.00299835205078,-141.09100341796875 C-133.3679962158203,-136.83900451660156 -139.58299255371094,-127.66300201416016 -141.6199951171875,-118.77100372314453z"/></g></g><g opacity="1" transform="matrix(1,0,0,1,0,0)"><path stroke-linecap="round" stroke-linejoin="round" fill-opacity="0" stroke="rgb(47,47,47)" stroke-opacity="1" stroke-width="1.823" d=" M-166.77699279785156,-97.56500244140625 C-166.80499267578125,-107.33000183105469 -160.33200073242188,-119.13099670410156 -152.04400634765625,-124.8290023803711 C-152.04400634765625,-124.8290023803711 -141.6199951171875,-118.77100372314453 -141.6199951171875,-118.77100372314453 C-149.9080047607422,-113.072998046875 -156.3820037841797,-101.27200317382812 -156.35400390625,-91.50700378417969 C-156.33900451660156,-86.33799743652344 -154.51400756835938,-82.697998046875 -151.57000732421875,-80.98699951171875 C-151.57000732421875,-80.98699951171875 -161.9929962158203,-87.04499816894531 -161.9929962158203,-87.04499816894531 C-164.93699645996094,-88.75599670410156 -166.76199340820312,-92.39600372314453 -166.77699279785156,-97.56500244140625"/></g><g opacity="1" transform="matrix(1,0,0,1,0,0)"><g opacity="1" transform="matrix(1,0,0,1,0,0)"><path stroke-linecap="round" stroke-linejoin="round" fill-opacity="0" stroke="rgb(47,47,47)" stroke-opacity="1" stroke-width="1.823" d=" M-67.15399932861328,-142.99600219726562 C-67.11799621582031,-132.60299682617188 -74.4469985961914,-119.91400146484375 -83.48999786376953,-114.6989974975586 C-83.48999786376953,-114.6989974975586 -90.85600280761719,-110.46900177001953 -90.85600280761719,-110.46900177001953 C-90.85600280761719,-110.46900177001953 -97.71199798583984,-106.49400329589844 -97.71199798583984,-106.49400329589844 C-97.71199798583984,-106.49400329589844 -139.93899536132812,-82.13500213623047 -139.93899536132812,-82.13500213623047 C-148.98300170898438,-76.88400268554688 -156.31199645996094,-81.11399841308594 -156.34800720214844,-91.50700378417969 C-156.38400268554688,-101.27999877929688 -149.8939971923828,-113.05799865722656 -141.61599731445312,-118.78299713134766 C-139.57400512695312,-127.68099975585938 -133.375,-136.83299255371094 -126.00900268554688,-141.10000610351562 C-124.04000091552734,-142.22999572753906 -122.21600341796875,-142.92300415039062 -120.46600341796875,-143.17799377441406 C-117.47599792480469,-152.6230010986328 -110.7300033569336,-161.81199645996094 -102.96299743652344,-166.2969970703125 C-93.95600128173828,-171.51199340820312 -86.33499908447266,-168.74000549316406 -84.22000122070312,-160.31700134277344 C-83.81900024414062,-158.82200622558594 -83.5999984741211,-157.10800170898438 -83.5999984741211,-155.2480010986328 C-83.5999984741211,-154.26400756835938 -83.6729965209961,-153.2790069580078 -83.78199768066406,-152.25799560546875 C-81.0469970703125,-153.8260040283203 -78.49500274658203,-154.55599975585938 -76.23400115966797,-154.55599975585938 C-75.83300018310547,-154.55599975585938 -75.43199920654297,-154.5189971923828 -75.06700134277344,-154.48300170898438 C-74.7750015258789,-154.44700622558594 -74.48400115966797,-154.41000366210938 -74.19200134277344,-154.33700561523438 C-73.9729995727539,-154.30099487304688 -73.75399780273438,-154.2270050048828 -73.5719985961914,-154.1540069580078 C-73.35299682617188,-154.1179962158203 -73.0979995727539,-154.0449981689453 -72.87899780273438,-153.93600463867188 C-72.58699798583984,-153.82699584960938 -72.33200073242188,-153.68099975585938 -72.0770034790039,-153.53500366210938 C-69.05000305175781,-151.8939971923828 -67.19000244140625,-148.21099853515625 -67.15399932861328,-142.99600219726562z"/></g></g></g><g opacity="1" transform="matrix(1,0,0,1,0,0)"><g opacity="1" transform="matrix(1.000172734260559,0,0,1.000172734260559,0.01700592041015625,0.02264404296875)"><g opacity="1" transform="matrix(1,0,0,1,0,0)"><g opacity="1" transform="matrix(1,0,0,1,0,0)"><path stroke-linecap="round" stroke-linejoin="round" fill-opacity="0" stroke="rgb(47,47,47)" stroke-opacity="1" stroke-width="1.823" d=" M-102.15799713134766,-139.65499877929688 C-102.15799713134766,-139.65499877929688 -94.71700286865234,-135.4149932861328 -94.71700286865234,-135.4149932861328 C-94.71700286865234,-135.4149932861328 -102.10900115966797,-122.61199951171875 -102.10900115966797,-122.61199951171875"/></g></g></g><g opacity="1" transform="matrix(0.995445728302002,0,0,0.995445728302002,-0.5696640014648438,-0.54656982421875)"><g opacity="1" transform="matrix(1,0,0,1,0,0)"><g opacity="1" transform="matrix(1,0,0,1,0,0)"><path stroke-linecap="round" stroke-linejoin="round" fill-opacity="0" stroke="rgb(47,47,47)" stroke-opacity="1" stroke-width="1.823" d=" M-121.37000274658203,-111.49199676513672 C-121.37000274658203,-111.49199676513672 -128.79800415039062,-115.73899841308594 -128.79800415039062,-115.73899841308594 C-128.79800415039062,-115.73899841308594 -121.41799926757812,-128.53500366210938 -121.41799926757812,-128.53500366210938"/></g></g></g><g opacity="1" transform="matrix(1,0,0,1,0,0)"><g opacity="1" transform="matrix(1,0,0,1,0,0)"><path fill="rgb(255,255,255)" fill-opacity="1" d=" M-115.61299896240234,-108.01599884033203 C-115.61299896240234,-108.01599884033203 -107.90299987792969,-143.1300048828125 -107.90299987792969,-143.1300048828125"/><path stroke-linecap="round" stroke-linejoin="round" fill-opacity="0" stroke="rgb(47,47,47)" stroke-opacity="1" stroke-width="1.823" d=" M-115.61299896240234,-108.01599884033203 C-115.61299896240234,-108.01599884033203 -107.90299987792969,-143.1300048828125 -107.90299987792969,-143.1300048828125"/></g></g></g></g><g mask="url(#__lottie_element_87_2)" style="display: block;"><g clip-path="url(#__lottie_element_85)" transform="matrix(1,0,0,1,256,256)" opacity="1"><g opacity="1" transform="matrix(1,0,0,1,0,0)"><path stroke-linecap="round" stroke-linejoin="round" fill-opacity="0" stroke-dasharray=" 5.47 5.105" stroke-dashoffset="0" stroke="rgb(47,47,47)" stroke-opacity="1" stroke-width="1.823" d=" M-71.38899993896484,-45.14099884033203 C-61.202999114990234,-50.97600173950195 -52.99300003051758,-55.67900085449219 -52.99300003051758,-55.67900085449219 C-52.99300003051758,-55.67900085449219 -80.3270034790039,-105.2770004272461 -80.3270034790039,-105.2770004272461 C-80.3270034790039,-105.2770004272461 -110.74199676513672,-103.08699798583984 -110.74199676513672,-103.08699798583984 C-110.74199676513672,-103.08699798583984 -110.74199676513672,-103.08699798583984 -110.74199676513672,-103.08699798583984 C-110.74199676513672,-103.08699798583984 -109.9520034790039,-23.049999237060547 -109.9520034790039,-23.049999237060547 C-109.9520034790039,-23.049999237060547 -88.03199768066406,-35.606998443603516 -71.38899993896484,-45.14099884033203"/></g></g></g><g mask="url(#__lottie_element_93_2)" style="display: block;"><g transform="matrix(1,0,0,1,256,256)" opacity="1"><g opacity="1" transform="matrix(1,0,0,1,0,0)"><g opacity="1" transform="matrix(1,0,0,1,0,0)"><g opacity="1" transform="matrix(1,0,0,1,0,0)"><g opacity="1" transform="matrix(1,0,0,1,0,0)"><g opacity="1" transform="matrix(1,0,0,1,0,0)"><g opacity="1" transform="matrix(1,0,0,1,0,0)"><path fill="rgb(227,231,240)" fill-opacity="1" d=" M81.51499938964844,97.23799896240234 C79.29100036621094,99.86299896240234 76.33799743652344,102.30599975585938 72.61799621582031,104.49400329589844 C53.948001861572266,115.50700378417969 23.57200050354004,115.50700378417969 4.791999816894531,104.49400329589844 C-0.057999998331069946,101.6500015258789 -3.6679999828338623,98.36799621582031 -6.038000106811523,94.83100128173828 C20.655000686645508,84.76699829101562 56.0620002746582,85.56900024414062 81.51499938964844,97.23799896240234z"/></g><g opacity="1" transform="matrix(1,0,0,1,0,0)"><path fill="rgb(227,231,240)" fill-opacity="1" d=" M88.40699768066406,162.2550048828125 C59.125,179.2480010986328 11.465999603271484,179.2480010986328 -17.99799919128418,162.2550048828125 C-43.231998443603516,147.66900634765625 -46.987998962402344,125.35199737548828 -29.19300079345703,108.5780029296875 C-25.58300018310547,112.91699981689453 -20.660999298095703,117.00199890136719 -14.425000190734863,120.61199951171875 C15.074999809265137,137.64100646972656 62.70000076293945,137.64100646972656 92.01799774169922,120.61199951171875 C96.24800109863281,118.16899871826172 99.85800170898438,115.50599670410156 102.8479995727539,112.66200256347656 C116.26699829101562,128.85299682617188 111.48899841308594,148.83599853515625 88.40699768066406,162.2550048828125z"/></g></g></g></g></g></g><g opacity="1" transform="matrix(1,0,0,1,0,0)"><g opacity="1" transform="matrix(1,0,0,1,0,0)"><g opacity="1" transform="matrix(1,0,0,1,0,0)"><path fill="rgb(255,255,255)" fill-opacity="1" d=" M127.4739990234375,83.5270004272461 C127.4739990234375,83.5270004272461 141.1230010986328,75.60600280761719 141.1230010986328,75.60600280761719"/><path stroke-linecap="round" stroke-linejoin="round" fill-opacity="0" stroke="rgb(47,47,47)" stroke-opacity="1" stroke-width="1.823" d=" M127.4739990234375,83.5270004272461 C127.4739990234375,83.5270004272461 141.1230010986328,75.60600280761719 141.1230010986328,75.60600280761719"/></g><g opacity="1" transform="matrix(1,0,0,1,0,0)"><path fill="rgb(255,255,255)" fill-opacity="1" d=" M113.8219985961914,91.41000366210938 C113.8219985961914,91.41000366210938 121.05799865722656,87.23200225830078 121.05799865722656,87.23200225830078"/><path stroke-linecap="round" stroke-linejoin="round" fill-opacity="0" stroke="rgb(47,47,47)" stroke-opacity="1" stroke-width="1.823" d=" M113.8219985961914,91.41000366210938 C113.8219985961914,91.41000366210938 121.05799865722656,87.23200225830078 121.05799865722656,87.23200225830078"/></g><g opacity="1" transform="matrix(1,0,0,1,0,0)"><g opacity="1" transform="matrix(1,0,0,1,0,0)"><path stroke-linecap="round" stroke-linejoin="round" fill-opacity="0" stroke="rgb(47,47,47)" stroke-opacity="1" stroke-width="1.823" d=" M155.0970001220703,75.65599822998047 C158.9709930419922,73.41999816894531 158.99200439453125,69.79299926757812 155.14300537109375,67.55599975585938 C151.28900146484375,65.31600189208984 145.02699279785156,65.31700134277344 141.1529998779297,67.5530014038086 C137.2740020751953,69.79299926757812 137.2530059814453,73.41899871826172 141.10699462890625,75.65899658203125 C144.95599365234375,77.89600372314453 151.21800231933594,77.89600372314453 155.0970001220703,75.65599822998047z"/></g></g></g><g opacity="1" transform="matrix(1,0,0,1,0,0)"><g opacity="1" transform="matrix(1,0,0,1,0,0)"><path stroke-linecap="round" stroke-linejoin="round" fill-opacity="0" stroke="rgb(47,47,47)" stroke-opacity="1" stroke-width="1.823" d=" M-50.23400115966797,83.5270004272461 C-50.23400115966797,83.5270004272461 -63.87200164794922,75.6500015258789 -63.87200164794922,75.6500015258789"/></g><g opacity="1" transform="matrix(1,0,0,1,0,0)"><path fill="rgb(255,255,255)" fill-opacity="1" d=" M-36.62099838256836,91.27300262451172 C-36.62099838256836,91.27300262451172 -43.810001373291016,87.23200225830078 -43.810001373291016,87.23200225830078"/><path stroke-linecap="round" stroke-linejoin="round" fill-opacity="0" stroke="rgb(47,47,47)" stroke-opacity="1" stroke-width="1.823" d=" M-36.62099838256836,91.27300262451172 C-36.62099838256836,91.27300262451172 -43.810001373291016,87.23200225830078 -43.810001373291016,87.23200225830078"/></g><g opacity="1" transform="matrix(1,0,0,1,0,0)"><g opacity="1" transform="matrix(1,0,0,1,0,0)"><path stroke-linecap="round" stroke-linejoin="round" fill-opacity="0" stroke="rgb(47,47,47)" stroke-opacity="1" stroke-width="1.823" d=" M-77.8489990234375,75.65599822998047 C-81.7229995727539,73.41999816894531 -81.74400329589844,69.79299926757812 -77.8949966430664,67.55599975585938 C-74.04100036621094,65.31600189208984 -67.77799987792969,65.31700134277344 -63.90399932861328,67.5530014038086 C-60.025001525878906,69.79299926757812 -60.005001068115234,73.41899871826172 -63.85900115966797,75.65899658203125 C-67.70800018310547,77.89600372314453 -73.97000122070312,77.89600372314453 -77.8489990234375,75.65599822998047z"/></g></g></g></g><g opacity="1" transform="matrix(1,0,0,1,0,0)"><g opacity="1" transform="matrix(1,0,0,1,0,0)"><g opacity="1" transform="matrix(1,0,0,1,0,0)"><g opacity="1" transform="matrix(1,0,0,1,0,0)"><g opacity="1" transform="matrix(1,0,0,1,0,0)"><path stroke-linecap="round" stroke-linejoin="round" fill-opacity="0" stroke="rgb(47,47,47)" stroke-opacity="1" stroke-width="1.823" d=" M64.15799713134766,149.49200439453125 C64.15799713134766,149.49200439453125 79.03600311279297,158.13499450683594 79.03600311279297,158.13499450683594 C79.03600311279297,158.13499450683594 79.65599822998047,158.281005859375 79.65599822998047,158.281005859375 C79.65599822998047,158.281005859375 93.22100067138672,155.91000366210938 93.22100067138672,155.91000366210938 C93.22100067138672,155.91000366210938 106.2750015258789,163.4949951171875 106.2750015258789,163.4949951171875"/></g></g><g opacity="1" transform="matrix(1,0,0,1,0,0)"><g opacity="1" transform="matrix(1,0,0,1,0,0)"><path stroke-linecap="round" stroke-linejoin="round" fill-opacity="0" stroke="rgb(47,47,47)" stroke-opacity="1" stroke-width="1.823" d=" M119.39900207519531,163.90899658203125 C123.27300262451172,166.14500427246094 123.29299926757812,169.7729949951172 119.44400024414062,172.00999450683594 C115.58999633789062,174.25 109.3280029296875,174.24899291992188 105.4540023803711,172.01300048828125 C101.57499694824219,169.7729949951172 101.55400085449219,166.14599609375 105.40799713134766,163.906005859375 C109.25700378417969,161.66900634765625 115.5199966430664,161.66900634765625 119.39900207519531,163.90899658203125z"/></g></g></g><g opacity="1" transform="matrix(1,0,0,1,0,0)"><path stroke-linecap="round" stroke-linejoin="round" fill-opacity="0" stroke="rgb(47,47,47)" stroke-opacity="1" stroke-width="1.823" d=" M149.8520050048828,145.2259979248047 C149.8520050048828,145.2259979248047 136.25,137.35000610351562 136.25,137.35000610351562"/></g><g opacity="1" transform="matrix(1,0,0,1,0,0)"><path fill="rgb(255,255,255)" fill-opacity="1" d=" M110.29299926757812,122.36499786376953 C110.29299926757812,122.36499786376953 129.82000732421875,133.63900756835938 129.82000732421875,133.63900756835938"/><path stroke-linecap="round" stroke-linejoin="round" fill-opacity="0" stroke="rgb(47,47,47)" stroke-opacity="1" stroke-width="1.823" d=" M110.29299926757812,122.36499786376953 C110.29299926757812,122.36499786376953 129.82000732421875,133.63900756835938 129.82000732421875,133.63900756835938"/></g><g opacity="1" transform="matrix(1,0,0,1,0,0)"><g opacity="1" transform="matrix(1,0,0,1,0,0)"><path stroke-linecap="round" stroke-linejoin="round" fill-opacity="0" stroke="rgb(47,47,47)" stroke-opacity="1" stroke-width="1.823" d=" M163.85899353027344,145.21499633789062 C167.73300170898438,147.4510040283203 167.7530059814453,151.0780029296875 163.9040069580078,153.31500244140625 C160.0500030517578,155.55499267578125 153.78799438476562,155.55499267578125 149.91400146484375,153.31900024414062 C146.03500366210938,151.07899475097656 146.01499938964844,147.45199584960938 149.86900329589844,145.21200561523438 C153.71800231933594,142.97500610351562 159.97999572753906,142.97500610351562 163.85899353027344,145.21499633789062z"/></g></g></g><g opacity="1" transform="matrix(1,0,0,1,0,0)"><g opacity="1" transform="matrix(1,0,0,1,0,0)"><g opacity="1" transform="matrix(1,0,0,1,0,0)"><g opacity="1" transform="matrix(1,0,0,1,0,0)"><path stroke-linecap="round" stroke-linejoin="round" fill-opacity="0" stroke="rgb(47,47,47)" stroke-opacity="1" stroke-width="1.823" d=" M-29.047000885009766,163.4949951171875 C-29.047000885009766,163.4949951171875 -15.956000328063965,155.91000366210938 -15.956000328063965,155.91000366210938 C-15.956000328063965,155.91000366210938 -2.3910000324249268,158.281005859375 -2.3910000324249268,158.281005859375 C-2.3910000324249268,158.281005859375 -1.7710000276565552,158.13499450683594 -1.7710000276565552,158.13499450683594 C-1.7710000276565552,158.13499450683594 13.069999694824219,149.49200439453125 13.069999694824219,149.49200439453125"/></g></g><g opacity="1" transform="matrix(1,0,0,1,0,0)"><g opacity="1" transform="matrix(1,0,0,1,0,0)"><path stroke-linecap="round" stroke-linejoin="round" fill-opacity="0" stroke="rgb(47,47,47)" stroke-opacity="1" stroke-width="1.823" d=" M-42.150001525878906,163.90899658203125 C-46.02399826049805,166.14500427246094 -46.04499816894531,169.7729949951172 -42.19599914550781,172.00999450683594 C-38.34199905395508,174.25 -32.08000183105469,174.24899291992188 -28.20599937438965,172.01300048828125 C-24.32699966430664,169.7729949951172 -24.305999755859375,166.14599609375 -28.15999984741211,163.906005859375 C-32.00899887084961,161.66900634765625 -38.270999908447266,161.66900634765625 -42.150001525878906,163.90899658203125z"/></g></g></g><g opacity="1" transform="matrix(1,0,0,1,0,0)"><path stroke-linecap="round" stroke-linejoin="round" fill-opacity="0" stroke="rgb(47,47,47)" stroke-opacity="1" stroke-width="1.823" d=" M-61.137001037597656,138.58900451660156 C-61.137001037597656,138.58900451660156 -72.6240005493164,145.2259979248047 -72.6240005493164,145.2259979248047"/></g><g opacity="1" transform="matrix(1,0,0,1,0,0)"><path fill="rgb(255,255,255)" fill-opacity="1" d=" M-33.04399871826172,122.36499786376953 C-33.04399871826172,122.36499786376953 -55.34199905395508,135.23899841308594 -55.34199905395508,135.23899841308594"/><path stroke-linecap="round" stroke-linejoin="round" fill-opacity="0" stroke="rgb(47,47,47)" stroke-opacity="1" stroke-width="1.823" d=" M-33.04399871826172,122.36499786376953 C-33.04399871826172,122.36499786376953 -55.34199905395508,135.23899841308594 -55.34199905395508,135.23899841308594"/></g><g opacity="1" transform="matrix(1,0,0,1,0,0)"><g opacity="1" transform="matrix(1,0,0,1,0,0)"><path stroke-linecap="round" stroke-linejoin="round" fill-opacity="0" stroke="rgb(47,47,47)" stroke-opacity="1" stroke-width="1.823" d=" M-86.61100006103516,145.21499633789062 C-90.48500061035156,147.4510040283203 -90.50499725341797,151.0780029296875 -86.65599822998047,153.31500244140625 C-82.802001953125,155.55499267578125 -76.54000091552734,155.55499267578125 -72.66600036621094,153.31900024414062 C-68.78700256347656,151.07899475097656 -68.76599884033203,147.45199584960938 -72.62000274658203,145.21200561523438 C-76.46900177001953,142.97500610351562 -82.73200225830078,142.97500610351562 -86.61100006103516,145.21499633789062z"/></g></g></g></g><g opacity="1" transform="matrix(1,0,0,1,0,0)"><g opacity="1" transform="matrix(1,0,0,1,0,0)"><path fill="rgb(201,206,226)" fill-opacity="1" d=" M113.86499786376953,90.01699829101562 C113.86499786376953,90.01699829101562 113.78199768066406,117.77300262451172 113.78199768066406,117.77300262451172 C113.7509994506836,128.8560028076172 106.46800231933594,139.92100524902344 91.91999816894531,148.37600708007812 C62.6349983215332,165.39500427246094 14.987000465393066,165.39500427246094 -14.489999771118164,148.3769989013672 C-29.322999954223633,139.81300354003906 -36.73099899291992,128.57000732421875 -36.69900131225586,117.34400177001953 C-36.69900131225586,117.34400177001953 -36.61600112915039,89.58799743652344 -36.61600112915039,89.58799743652344 C-36.64799880981445,100.81400299072266 -29.239999771118164,112.05699920654297 -14.406999588012695,120.62100219726562 C15.069999694824219,137.63900756835938 62.71699905395508,137.63900756835938 92.00199890136719,120.62000274658203 C106.55000305175781,112.16500091552734 113.83399963378906,101.0999984741211 113.86499786376953,90.01699829101562z"/></g></g><g opacity="1" transform="matrix(1,0,0,1,0,0)"><g opacity="1" transform="matrix(1,0,0,1,0,0)"><g opacity="1" transform="matrix(1,0,0,1,0,0)"><g opacity="1" transform="matrix(1,0,0,1,0,0)"><g opacity="1" transform="matrix(1,0,0,1,0,0)"><g opacity="1" transform="matrix(1,0,0,1,0,0)"><g opacity="1" transform="matrix(1,0,0,1,0,0)"><g opacity="1" transform="matrix(1,0,0,1,0,0)"><path fill="rgb(255,255,255)" fill-opacity="1" d=" M37.53799819946289,49.61399841308594"/><path stroke-linecap="round" stroke-linejoin="round" fill-opacity="0" stroke="rgb(47,47,47)" stroke-opacity="1" stroke-width="1.823" d=" M37.53799819946289,49.61399841308594"/></g><g opacity="1" transform="matrix(1,0,0,1,0,0)"><path stroke-linecap="round" stroke-linejoin="round" fill-opacity="0" stroke="rgb(47,47,47)" stroke-opacity="1" stroke-width="1.823" d=" M102.8479995727539,112.66200256347656 C99.85800170898438,115.50599670410156 96.24800109863281,118.16899871826172 92.01799774169922,120.61199951171875 C62.70000076293945,137.64100646972656 15.074999809265137,137.64100646972656 -14.425000190734863,120.61199951171875 C-20.660999298095703,117.00199890136719 -25.58300018310547,112.91699981689453 -29.19300079345703,108.5780029296875 C-40.46099853515625,94.97599792480469 -38.893001556396484,78.71299743652344 -24.416000366210938,65.87699890136719 C-24.416000366210938,65.87699890136719 -15.73799991607666,59.569000244140625 -15.73799991607666,59.569000244140625 C-15.40999984741211,59.387001037597656 -15.081000328063965,59.167999267578125 -14.753000259399414,58.986000061035156 C-13.038999557495117,58.000999450683594 -11.253000259399414,57.053001403808594 -9.392999649047852,56.14099884033203 C-9.392999649047852,56.14099884033203 -9.392999649047852,84.4020004272461 -9.392999649047852,84.4020004272461 C-9.392999649047852,87.97599792480469 -8.298999786376953,91.47599792480469 -6.038000106811523,94.83100128173828 C-3.6679999828338623,98.36799621582031 -0.057999998331069946,101.6500015258789 4.791999816894531,104.49400329589844 C23.57200050354004,115.50700378417969 53.948001861572266,115.50700378417969 72.61799621582031,104.49400329589844 C76.33799743652344,102.30599975585938 79.29100036621094,99.86299896240234 81.51499938964844,97.23799896240234 C84.87000274658203,93.30000305175781 86.5479965209961,88.99700164794922 86.58399963378906,84.69400024414062 C86.58399963378906,84.69400024414062 86.58399963378906,56.323001861572266 86.58399963378906,56.323001861572266 C88.33399963378906,57.1619987487793 90.01200103759766,58.03799819946289 91.65299987792969,58.986000061035156 C116.88700103759766,73.5719985961914 120.64299774169922,95.88800048828125 102.8479995727539,112.66200256347656z"/></g></g></g></g></g></g><g opacity="1" transform="matrix(1,0,0,1,0,0)"><g opacity="1" transform="matrix(1,0,0,1,0,0)"><g opacity="1" transform="matrix(1,0,0,1,0,0)"><g opacity="1" transform="matrix(1,0,0,1,0,0)"><path stroke-linecap="round" stroke-linejoin="round" fill-opacity="0" stroke="rgb(47,47,47)" stroke-opacity="1" stroke-width="1.823" d=" M86.58399963378906,21.097999572753906 C86.58399963378906,21.097999572753906 86.58399963378906,84.69400024414062 86.58399963378906,84.69400024414062 C86.5479965209961,91.87799835205078 81.91699981689453,99.02400207519531 72.61799621582031,104.49400329589844 C53.948001861572266,115.50700378417969 23.57200050354004,115.50700378417969 4.791999816894531,104.49400329589844 C-4.689000129699707,98.95099639892578 -9.392999649047852,91.65899658203125 -9.392999649047852,84.4020004272461 C-9.392999649047852,84.4020004272461 -9.392999649047852,56.14099884033203 -9.392999649047852,56.14099884033203 C-9.392999649047852,56.14099884033203 -9.355999946594238,22.520000457763672 -9.355999946594238,22.520000457763672 C-8.883999824523926,22.792999267578125 -14.835000038146973,19.354999542236328 37.53799819946289,49.61399841308594 C104.7509994506836,10.53600025177002 81.56900024414062,24.013999938964844 86.58399963378906,21.097999572753906z"/></g></g></g></g><g opacity="1" transform="matrix(1,0,0,1,0,0)"><g opacity="1" transform="matrix(1,0,0,1,0,0)"><path fill="rgb(227,231,240)" fill-opacity="1" d=" M72.43699645996094,64.59400177001953 C91.23200225830078,75.61199951171875 91.33100128173828,93.4800033569336 72.65899658203125,104.49800109863281 C53.98699951171875,115.51599884033203 23.606000900268555,115.51699829101562 4.810999870300293,104.4990005493164 C-13.984000205993652,93.48100280761719 -14.081999778747559,75.61199951171875 4.590000152587891,64.59400177001953 C23.261999130249023,53.57600021362305 53.641998291015625,53.57600021362305 72.43699645996094,64.59400177001953z"/><path stroke-linecap="round" stroke-linejoin="round" fill-opacity="0" stroke="rgb(47,47,47)" stroke-opacity="1" stroke-width="1.823" d=" M72.43699645996094,64.59400177001953 C91.23200225830078,75.61199951171875 91.33100128173828,93.4800033569336 72.65899658203125,104.49800109863281 C53.98699951171875,115.51599884033203 23.606000900268555,115.51699829101562 4.810999870300293,104.4990005493164 C-13.984000205993652,93.48100280761719 -14.081999778747559,75.61199951171875 4.590000152587891,64.59400177001953 C23.261999130249023,53.57600021362305 53.641998291015625,53.57600021362305 72.43699645996094,64.59400177001953z"/></g></g></g></g><g opacity="1" transform="matrix(1,0,0,1,0,0)"><g opacity="1" transform="matrix(1,0,0,1,0,0)"><path stroke-linecap="round" stroke-linejoin="round" fill-opacity="0" stroke="rgb(47,47,47)" stroke-opacity="1" stroke-width="1.823" d=" M-13.269000053405762,149.0659942626953 C-13.678999900817871,148.83900451660156 -14.086000442504883,148.61000061035156 -14.489999771118164,148.3769989013672 C-29.322999954223633,139.81300354003906 -36.73099899291992,128.57000732421875 -36.69900131225586,117.34400177001953 C-36.69900131225586,117.34400177001953 -36.61600112915039,89.58799743652344 -36.61600112915039,89.58799743652344 C-36.64799880981445,100.81400299072266 -29.239999771118164,112.05699920654297 -14.406999588012695,120.62100219726562 C15.069999694824219,137.63900756835938 62.71699905395508,137.63900756835938 92.00199890136719,120.62000274658203 C106.55000305175781,112.16500091552734 113.83399963378906,101.0999984741211 113.86499786376953,90.01699829101562 C113.86499786376953,90.01699829101562 113.78199768066406,117.77300262451172 113.78199768066406,117.77300262451172 C113.7509994506836,128.8560028076172 106.46800231933594,139.92100524902344 91.91999816894531,148.37600708007812 C68.3499984741211,162.07400512695312 32.8849983215332,164.7469940185547 4.572000026702881,156.39599609375"/></g></g><g opacity="1" transform="matrix(1,0,0,1,0,0)"><g opacity="1" transform="matrix(1,0,0,1,0,0)"><path fill="rgb(47,47,47)" fill-opacity="1" d=" M92.00199890136719,120.62000274658203 C106.55000305175781,112.16500091552734 113.83399963378906,101.0999984741211 113.86499786376953,90.01699829101562 C113.86499786376953,90.01699829101562 113.78199768066406,117.77300262451172 113.78199768066406,117.77300262451172 C113.7509994506836,128.8560028076172 106.46800231933594,139.92100524902344 91.91999816894531,148.37600708007812 C91.91999816894531,148.37600708007812 92.00199890136719,120.62000274658203 92.00199890136719,120.62000274658203z"/><path stroke-linecap="round" stroke-linejoin="round" fill-opacity="0" stroke="rgb(47,47,47)" stroke-opacity="1" stroke-width="1.823" d=" M92.00199890136719,120.62000274658203 C106.55000305175781,112.16500091552734 113.83399963378906,101.0999984741211 113.86499786376953,90.01699829101562 C113.86499786376953,90.01699829101562 113.78199768066406,117.77300262451172 113.78199768066406,117.77300262451172 C113.7509994506836,128.8560028076172 106.46800231933594,139.92100524902344 91.91999816894531,148.37600708007812 C91.91999816894531,148.37600708007812 92.00199890136719,120.62000274658203 92.00199890136719,120.62000274658203z"/></g></g></g></g><g mask="url(#__lottie_element_99_2)" style="display: block;"><g transform="matrix(1,0,0,1,256,256)" opacity="1"><g opacity="1" transform="matrix(1,0,0,1,0,0)"><path stroke-linecap="round" stroke-linejoin="round" fill-opacity="0" stroke="rgb(47,47,47)" stroke-opacity="1" stroke-width="1.823" d=" M131.76499938964844,-99.49299621582031 C131.76499938964844,-99.49299621582031 131.61900329589844,-60.14699935913086 131.61900329589844,-60.14699935913086 C131.61900329589844,-60.14699935913086 131.54600524902344,-42.75299835205078 131.54600524902344,-42.75299835205078 C131.54600524902344,-42.75299835205078 131.36399841308594,-4.938000202178955 131.36399841308594,-4.938000202178955 C131.36399841308594,-4.938000202178955 86.58399963378906,21.097999572753906 86.58399963378906,21.097999572753906 C86.58399963378906,21.097999572753906 37.53799819946289,49.61399841308594 37.53799819946289,49.61399841308594 C37.53799819946289,49.61399841308594 37.83000183105469,-28.9689998626709 37.83000183105469,-28.9689998626709 C37.83000183105469,-28.9689998626709 37.90299987792969,-44.941001892089844 37.90299987792969,-44.941001892089844 C37.90299987792969,-44.941001892089844 37.90299987792969,-46.03499984741211 37.90299987792969,-46.03499984741211 C37.90299987792969,-46.03499984741211 131.76499938964844,-99.49299621582031 131.76499938964844,-99.49299621582031z"/></g><g opacity="1" transform="matrix(1,0,0,1,0,0)"><path stroke-linecap="round" stroke-linejoin="round" fill-opacity="0" stroke="rgb(47,47,47)" stroke-opacity="1" stroke-width="1.823" d=" M37.90299987792969,-44.941001892089844 C37.90299987792969,-44.941001892089844 37.83000183105469,-28.9689998626709 37.83000183105469,-28.9689998626709 C37.83000183105469,-28.9689998626709 37.53799819946289,49.61399841308594 37.53799819946289,49.61399841308594 C37.53799819946289,49.61399841308594 -9.355999946594238,22.520000457763672 -9.355999946594238,22.520000457763672 C-9.355999946594238,22.520000457763672 -24.599000930786133,13.732000350952148 -24.599000930786133,13.732000350952148 C-24.599000930786133,13.732000350952148 -36.52299880981445,6.875999927520752 -36.52299880981445,6.875999927520752 C-36.52299880981445,6.875999927520752 -56.90700149536133,-4.9019999504089355 -56.90700149536133,-4.9019999504089355 C-56.90700149536133,-4.9019999504089355 -56.50600051879883,-99.45600128173828 -56.50600051879883,-99.45600128173828 C-56.50600051879883,-99.45600128173828 37.90299987792969,-44.941001892089844 37.90299987792969,-44.941001892089844z"/></g><g opacity="1" transform="matrix(1,0,0,1,0,0)"><path stroke-linecap="round" stroke-linejoin="round" fill-opacity="0" stroke="rgb(47,47,47)" stroke-opacity="1" stroke-width="1.823" d=" M-49.78099822998047,-74.12999725341797 C-49.78099822998047,-74.12999725341797 -49.73500061035156,-85.63300323486328 -49.73500061035156,-85.63300323486328 C-49.73500061035156,-85.63300323486328 -40.26499938964844,-80.16600036621094 -40.26499938964844,-80.16600036621094"/></g><g opacity="1" transform="matrix(1,0,0,1,0,0)"><path fill="rgb(255,255,255)" fill-opacity="1" d=" M-49.8380012512207,-60.13999938964844 C-49.8380012512207,-60.13999938964844 -49.80799865722656,-67.5260009765625 -49.80799865722656,-67.5260009765625"/><path stroke-linecap="round" stroke-linejoin="round" fill-opacity="0" stroke="rgb(47,47,47)" stroke-opacity="1" stroke-width="1.823" d=" M-49.8380012512207,-60.13999938964844 C-49.8380012512207,-60.13999938964844 -49.80799865722656,-67.5260009765625 -49.80799865722656,-67.5260009765625"/></g><g opacity="1" transform="matrix(1,0,0,1,0,0)"><path stroke-linecap="round" stroke-linejoin="round" fill-opacity="0" stroke="rgb(47,47,47)" stroke-opacity="1" stroke-width="1.823" d=" M131.76400756835938,-99.48200225830078 C131.76400756835938,-99.48200225830078 37.90800094604492,-44.93899917602539 37.90800094604492,-44.93899917602539 C37.90800094604492,-44.93899917602539 -56.507999420166016,-99.45099639892578 -56.507999420166016,-99.45099639892578 C-56.507999420166016,-99.45099639892578 37.347999572753906,-153.9929962158203 37.347999572753906,-153.9929962158203 C37.347999572753906,-153.9929962158203 131.76400756835938,-99.48200225830078 131.76400756835938,-99.48200225830078z"/></g><g opacity="1" transform="matrix(1,0,0,1,0,0)"><g opacity="1" transform="matrix(1,0,0,1,0,0)"/></g><g opacity="1" transform="matrix(1,0,0,1,0,0)"><g opacity="1" transform="matrix(1,0,0,1,0,0)"><path stroke-linecap="round" stroke-linejoin="round" fill-opacity="0" stroke="rgb(47,47,47)" stroke-opacity="1" stroke-width="1.823" d=" M86.97000122070312,-106.9209976196289 C86.97000122070312,-106.9209976196289 99.86399841308594,-99.47699737548828 99.86399841308594,-99.47699737548828 C99.86399841308594,-99.47699737548828 37.8129997253418,-63.41699981689453 37.8129997253418,-63.41699981689453 C37.8129997253418,-63.41699981689453 -24.607999801635742,-99.45600128173828 -24.607999801635742,-99.45600128173828 C-24.607999801635742,-99.45600128173828 2.936000108718872,-115.46299743652344 2.936000108718872,-115.46299743652344"/></g><g opacity="1" transform="matrix(1,0,0,1,0,0)"><path stroke-linecap="round" stroke-linejoin="round" fill-opacity="0" stroke="rgb(47,47,47)" stroke-opacity="1" stroke-width="1.823" d=" M17.115999221801758,-123.7030029296875 C17.115999221801758,-123.7030029296875 37.44300079345703,-135.51600646972656 37.44300079345703,-135.51600646972656 C37.44300079345703,-135.51600646972656 75.05599975585938,-113.80000305175781 75.05599975585938,-113.80000305175781"/></g></g><g opacity="1" transform="matrix(1,0,0,1,0,0)"><g opacity="1" transform="matrix(1,0,0,1,0,0)"><path fill="rgb(255,255,255)" fill-opacity="1" d=" M53.731998443603516,-24.500999450683594 C53.731998443603516,-24.500999450683594 53.73500061035156,-23.329999923706055 53.74100112915039,-21.41699981689453"/><path stroke-linecap="round" stroke-linejoin="round" fill-opacity="0" stroke="rgb(47,47,47)" stroke-opacity="1" stroke-width="1.823" d=" M53.731998443603516,-24.500999450683594 C53.731998443603516,-24.500999450683594 53.73500061035156,-23.329999923706055 53.74100112915039,-21.41699981689453"/></g></g><g opacity="1" transform="matrix(1,0,0,1,0,0)"><g opacity="1" transform="matrix(1,0,0,1,0,0)"><path fill="rgb(255,255,255)" fill-opacity="1" d=" M66.11399841308594,-18.469999313354492 C66.13400268554688,-11.27400016784668 66.16100311279297,-1.8930000066757202 66.16100311279297,-1.8930000066757202"/><path stroke-linecap="round" stroke-linejoin="round" fill-opacity="0" stroke="rgb(47,47,47)" stroke-opacity="1" stroke-width="1.823" d=" M66.11399841308594,-18.469999313354492 C66.13400268554688,-11.27400016784668 66.16100311279297,-1.8930000066757202 66.16100311279297,-1.8930000066757202"/></g></g><g opacity="1" transform="matrix(1,0,0,1,0,0)"><g opacity="1" transform="matrix(1,0,0,1,0,0)"><path fill="rgb(255,255,255)" fill-opacity="1" d=" M78.4520034790039,-28.538000106811523 C78.45800018310547,-26.444000244140625 78.49299621582031,-13.909000396728516 78.49299621582031,-13.909000396728516"/><path stroke-linecap="round" stroke-linejoin="round" fill-opacity="0" stroke="rgb(47,47,47)" stroke-opacity="1" stroke-width="1.823" d=" M78.4520034790039,-28.538000106811523 C78.45800018310547,-26.444000244140625 78.49299621582031,-13.909000396728516 78.49299621582031,-13.909000396728516"/></g></g><g opacity="1" transform="matrix(1,0,0,1,0,0)"><g opacity="1" transform="matrix(1,0,0,1,0,0)"><path fill="rgb(255,255,255)" fill-opacity="1" d=" M90.80500030517578,-32.928001403808594 C90.82599639892578,-25.392000198364258 90.85399627685547,-15.567000389099121 90.85399627685547,-15.567000389099121"/><path stroke-linecap="round" stroke-linejoin="round" fill-opacity="0" stroke="rgb(47,47,47)" stroke-opacity="1" stroke-width="1.823" d=" M90.80500030517578,-32.928001403808594 C90.82599639892578,-25.392000198364258 90.85399627685547,-15.567000389099121 90.85399627685547,-15.567000389099121"/></g></g><g opacity="1" transform="matrix(1,0,0,1,0,0)"><g opacity="1" transform="matrix(1,0,0,1,0,0)"><path fill="rgb(255,255,255)" fill-opacity="1" d=" M103.15399932861328,-38.78900146484375 C103.16899871826172,-33.41699981689453 103.18900299072266,-26.415000915527344 103.18900299072266,-26.415000915527344"/><path stroke-linecap="round" stroke-linejoin="round" fill-opacity="0" stroke="rgb(47,47,47)" stroke-opacity="1" stroke-width="1.823" d=" M103.15399932861328,-38.78900146484375 C103.16899871826172,-33.41699981689453 103.18900299072266,-26.415000915527344 103.18900299072266,-26.415000915527344"/></g></g><g opacity="1" transform="matrix(1,0,0,1,0,0)"><g opacity="1" transform="matrix(1,0,0,1,0,0)"><path fill="rgb(255,255,255)" fill-opacity="1" d=" M115.45899963378906,-60.13999938964844 C115.45899963378906,-60.13999938964844 115.53600311279297,-32.99700164794922 115.55400085449219,-26.67099952697754"/><path stroke-linecap="round" stroke-linejoin="round" fill-opacity="0" stroke="rgb(47,47,47)" stroke-opacity="1" stroke-width="1.823" d=" M115.45899963378906,-60.13999938964844 C115.45899963378906,-60.13999938964844 115.53600311279297,-32.99700164794922 115.55400085449219,-26.67099952697754"/></g></g><g opacity="1" transform="matrix(1.004143238067627,0,0,1.004143238067627,0.03932380676269531,0.10323715209960938)"><g opacity="1" transform="matrix(1,0,0,1,0,0)"><g opacity="1" transform="matrix(1,0,0,1,0,0)"><g opacity="1" transform="matrix(1,0,0,1,0,0)"><path fill="rgb(46,88,255)" fill-opacity="1" d=" M1.0950000286102295,-5.175000190734863 C1.2760000228881836,-4.576000213623047 1.3619999885559082,-4.114999771118164 1.3609999418258667,-3.7880001068115234 C1.3589999675750732,-3.009000062942505 1.13100004196167,-2.4860000610351562 0.6850000023841858,-2.2070000171661377 C0.23899999260902405,-1.9359999895095825 -0.33799999952316284,-2 -1.0520000457763672,-2.4119999408721924 C-1.5549999475479126,-2.7019999027252197 -2.006999969482422,-3.122999906539917 -2.4140000343322754,-3.6600000858306885 C-2.821000099182129,-4.205999851226807 -3.134000062942505,-4.806000232696533 -3.3440001010894775,-5.455999851226807 C-3.3440001010894775,-5.455999851226807 -6.794000148773193,-17.047000885009766 -6.794000148773193,-17.047000885009766 C-6.794000148773193,-17.047000885009766 -24.961000442504883,-27.535999298095703 -24.961000442504883,-27.535999298095703 C-24.961000442504883,-27.535999298095703 -28.465999603271484,-19.959999084472656 -28.465999603271484,-19.959999084472656 C-28.679000854492188,-19.554000854492188 -28.993999481201172,-19.31599998474121 -29.402999877929688,-19.242000579833984 C-29.812000274658203,-19.176000595092773 -30.263999938964844,-19.277999877929688 -30.767000198364258,-19.56800079345703 C-31.481000900268555,-19.979999542236328 -32.05699920654297,-20.58099937438965 -32.5,-21.365999221801758 C-32.94300079345703,-22.159000396728516 -33.16699981689453,-22.94300079345703 -33.165000915527344,-23.722000122070312 C-33.16400146484375,-24.048999786376953 -33.07600021362305,-24.409000396728516 -32.891998291015625,-24.79800033569336 C-32.891998291015625,-24.79800033569336 -19.16200065612793,-53.89899826049805 -19.16200065612793,-53.89899826049805 C-18.875999450683594,-54.47200012207031 -18.472999572753906,-54.84400177001953 -17.95400047302246,-55.013999938964844 C-17.434999465942383,-55.183998107910156 -16.799999237060547,-55.051998138427734 -16.055999755859375,-54.62300109863281 C-16.055999755859375,-54.62300109863281 -15.517000198364258,-54.3120002746582 -15.517000198364258,-54.3120002746582 C-14.77299976348877,-53.882999420166016 -14.138999938964844,-53.28200149536133 -13.623000144958496,-52.513999938964844 C-13.107000350952148,-51.74599838256836 -12.706999778747559,-50.9109992980957 -12.425000190734863,-50.0099983215332 C-12.425000190734863,-50.0099983215332 1.0950000286102295,-5.175000190734863 1.0950000286102295,-5.175000190734863z M-23.08099937438965,-31.551000595092773 C-23.08099937438965,-31.551000595092773 -8.645999908447266,-23.216999053955078 -8.645999908447266,-23.216999053955078 C-8.645999908447266,-23.216999053955078 -15.807000160217285,-47.34700012207031 -15.807000160217285,-47.34700012207031 C-15.807000160217285,-47.34700012207031 -23.08099937438965,-31.551000595092773 -23.08099937438965,-31.551000595092773"/></g></g><g opacity="1" transform="matrix(1,0,0,1,0,0)"><g opacity="1" transform="matrix(1,0,0,1,0,0)"><path fill="rgb(46,88,255)" fill-opacity="1" d=" M11.734000205993652,-38.577999114990234 C12.411999702453613,-38.1870002746582 12.987000465393066,-37.577999114990234 13.467000007629395,-36.74700164794922 C13.946999549865723,-35.91600036621094 14.1850004196167,-35.11600112915039 14.182999610900879,-34.33700180053711 C14.182999610900879,-34.33700180053711 14.076000213623047,3.552999973297119 14.076000213623047,3.552999973297119 C14.074000358581543,4.331999778747559 13.831000328063965,4.8470001220703125 13.347999572753906,5.105000019073486 C12.864999771118164,5.355000019073486 12.288999557495117,5.289999961853027 11.611000061035156,4.89900016784668 C10.932999610900879,4.507999897003174 10.364999771118164,3.9110000133514404 9.906999588012695,3.118000030517578 C9.442000389099121,2.312000036239624 9.211000442504883,1.5240000486373901 9.213000297546387,0.7450000047683716 C9.213000297546387,0.7450000047683716 9.321000099182129,-37.14400100708008 9.321000099182129,-37.14400100708008 C9.322999954223633,-37.92300033569336 9.557999610900879,-38.45000076293945 10.026000022888184,-38.73400115966797 C10.487000465393066,-39.02199935913086 11.055999755859375,-38.96900177001953 11.734000205993652,-38.577999114990234z"/></g></g></g></g></g></g></g></svg>